<svg width="355" height="355" viewBox="0 0 355 355" fill="none" xmlns="http://www.w3.org/2000/svg">
<path d="M312.613 73.4217C295.843 48.4644 267.386 30.7188 237.282 30.2584C207.178 29.7979 176.733 48.4007 166.594 76.6945C161.624 90.4801 161.489 105.47 158.586 119.822C155.682 134.175 148.951 149.115 135.787 155.597C117.952 164.367 96.8085 154.343 76.9569 155.292C54.4854 156.362 34.08 172.755 26.1848 193.759C18.2896 214.763 22.1165 239.274 34.1723 258.224C46.2281 277.174 65.8241 290.712 87.2022 297.704C108.58 304.696 158.962 308.762 181.256 305.772C191.771 305.341 202.194 303.623 212.29 300.658C242.948 291.569 267.904 276.296 288.65 254.824C313.38 229.215 328.801 194.984 332.259 159.592C335.12 129.683 329.376 98.3789 312.613 73.4217Z" fill="#EBEBEB"/>
<path d="M334.247 329.333C334.247 329.44 264.063 329.518 177.507 329.518C90.951 329.518 20.7533 329.44 20.7533 329.333C20.7533 329.227 90.9226 329.148 177.507 329.148C264.092 329.148 334.247 329.234 334.247 329.333Z" fill="#263238"/>
<path d="M65.7744 310.931C66.4844 308.324 64.7307 305.71 62.8137 303.847C60.8967 301.984 58.6034 300.269 57.6023 297.769C55.9835 293.717 58.1561 288.474 55.4013 285.095C53.7754 283.112 50.8644 282.446 49.4231 280.321C48.7567 279.149 48.316 277.864 48.1238 276.531C46.5918 269.8 43.2738 263.605 38.5175 258.594C38.1969 264.589 39.4991 270.559 42.2876 275.879C43.4023 278.004 44.7797 280.073 45.1276 282.446C45.7311 286.292 43.5727 290.238 44.5241 294.035C45.6104 298.357 50.4739 301.254 50.7011 305.703C50.8999 309.465 47.6126 312.787 47.8611 316.527C48.0602 318.129 48.6422 319.66 49.558 320.99C52.469 325.829 56.7574 329.158 63.2468 329.052L71.1988 329.328L65.7744 310.931Z" fill="#D9B08C"/>
<g opacity="0.3">
<path d="M65.7744 310.931C66.4844 308.324 64.7307 305.71 62.8137 303.847C60.8967 301.984 58.6034 300.269 57.6023 297.769C55.9835 293.717 58.1561 288.474 55.4013 285.095C53.7754 283.112 50.8644 282.446 49.4231 280.321C48.7567 279.149 48.316 277.864 48.1238 276.531C46.5918 269.8 43.2738 263.605 38.5175 258.594C38.1969 264.589 39.4991 270.559 42.2876 275.879C43.4023 278.004 44.7797 280.073 45.1276 282.446C45.7311 286.292 43.5727 290.238 44.5241 294.035C45.6104 298.357 50.4739 301.254 50.7011 305.703C50.8999 309.465 47.6126 312.787 47.8611 316.527C48.0602 318.129 48.6422 319.66 49.558 320.99C52.469 325.829 56.7574 329.158 63.2468 329.052L71.1988 329.328L65.7744 310.931Z" fill="black"/>
</g>
<path d="M72.8034 329.499C73.5317 329.611 74.2739 329.596 74.9973 329.456C75.8755 329.323 76.7387 329.105 77.5746 328.804C78.7289 328.404 79.8086 327.815 80.7696 327.062C81.3478 326.598 81.7995 325.996 82.0831 325.312C82.3206 324.545 82.4449 323.748 82.4523 322.946C82.4683 322.088 82.5323 321.232 82.644 320.381C82.7936 319.476 83.1218 318.609 83.6096 317.831C84.5468 316.188 86.1088 314.629 86.6058 312.398C87.1028 310.166 86.762 307.828 86.3928 305.448C86.0236 303.068 85.6828 300.489 86.5774 297.996C87.472 295.502 89.176 293.271 90.0493 290.479C90.9226 287.688 90.5108 284.614 90.6954 281.617C90.7499 280.095 91.102 278.598 91.732 277.211C92.371 275.794 93.2656 274.484 93.9614 273.01C95.3814 270.021 95.6228 266.634 96.0062 263.312C96.1979 261.64 96.3825 259.947 96.5742 258.247C96.695 256.528 96.9924 254.826 97.4617 253.168C98.0004 251.496 98.6357 249.857 99.3645 248.258C99.7398 247.432 100.048 246.577 100.287 245.701C100.421 244.795 100.507 243.882 100.543 242.967C100.628 241.134 100.556 239.297 100.33 237.476C100.117 235.649 99.7834 233.835 99.5846 232C99.5846 231.887 99.5846 231.781 99.5846 231.682L99.542 231.32L99.2225 231.476C97.5438 232.336 96.0861 233.57 94.9625 235.082C93.8605 236.563 92.9737 238.192 92.3284 239.92C91.0007 243.328 90.525 246.898 89.8576 250.306C89.1902 253.713 88.3382 257.064 86.5916 259.897C85.7183 261.314 84.6604 262.604 83.7516 263.978C82.7647 265.319 82.0904 266.863 81.7778 268.498C81.3021 271.855 83.1552 274.802 82.7718 277.778C82.5988 279.235 82.1146 280.639 81.3518 281.894C80.6418 283.162 79.7827 284.338 78.9733 285.514C78.1529 286.667 77.4399 287.893 76.8433 289.176C76.2817 290.432 75.9499 291.778 75.8635 293.15C75.6718 295.828 76.0481 298.364 75.8635 300.758C75.6418 303.041 74.9736 305.257 73.8968 307.283C72.9383 309.231 71.8662 310.995 70.9716 312.709C70.5243 313.559 70.1054 314.395 69.7646 315.238C69.4421 316.048 69.2042 316.888 69.0546 317.746C68.8169 319.244 68.7978 320.769 68.9978 322.273C69.2064 324.37 69.9928 326.368 71.2698 328.046C71.465 328.3 71.6811 328.537 71.9159 328.755C72.0727 328.919 72.2464 329.066 72.4342 329.194C72.7324 329.414 72.8886 329.513 72.8886 329.513C72.321 329.065 71.8043 328.557 71.3479 327.997C70.1289 326.312 69.3926 324.329 69.2179 322.259C69.0371 320.774 69.0706 319.271 69.3173 317.796C69.4668 316.958 69.7048 316.139 70.0273 315.352C70.387 314.499 70.7923 313.667 71.2414 312.858C72.1431 311.158 73.2223 309.401 74.2021 307.439C75.3111 305.381 76.0012 303.126 76.2327 300.801C76.4457 298.357 76.0765 295.807 76.2753 293.2C76.3667 291.871 76.6911 290.569 77.2338 289.353C77.8341 288.097 78.547 286.897 79.3638 285.769C80.1732 284.593 81.0323 283.417 81.7707 282.12C82.5811 280.818 83.0994 279.356 83.2901 277.834C83.6735 274.668 81.8346 271.707 82.3103 268.583C82.6215 267.02 83.2735 265.544 84.2202 264.261C85.1219 262.908 86.1869 261.619 87.0602 260.167C88.8707 257.255 89.744 253.841 90.4043 250.419C91.0646 246.997 91.5545 243.455 92.8609 240.112C93.4892 238.431 94.3521 236.848 95.424 235.408C96.5048 233.956 97.9068 232.773 99.5207 231.951L99.1586 231.745C99.1586 231.852 99.1586 231.958 99.1941 232.071C99.3929 233.927 99.7266 235.741 99.9041 237.554C100.128 239.347 100.197 241.155 100.11 242.959C100.074 243.846 99.9935 244.73 99.8686 245.609C99.6391 246.456 99.3399 247.283 98.974 248.081C98.2413 249.697 97.6013 251.352 97.057 253.04C96.5838 254.724 96.284 256.452 96.1624 258.197C95.9778 259.905 95.7861 261.598 95.6015 263.27C95.2181 266.606 94.9696 269.936 93.6135 272.819C92.9035 274.236 92.0515 275.589 91.3912 277.034C90.7413 278.473 90.3796 280.025 90.3262 281.603C90.1487 284.663 90.5463 287.66 89.7156 290.366C88.8849 293.072 87.1596 295.325 86.2863 297.882C85.413 300.44 85.7325 303.146 86.1159 305.519C86.4993 307.892 86.8827 310.23 86.3715 312.334C85.8603 314.438 84.3977 316.01 83.4463 317.697C82.9447 318.508 82.6092 319.411 82.4594 320.353C82.3521 321.213 82.2952 322.079 82.289 322.946C82.2901 323.728 82.1753 324.506 81.9482 325.255C81.6852 325.904 81.2628 326.477 80.7199 326.92C79.7846 327.672 78.7316 328.266 77.603 328.677C76.7781 328.994 75.9245 329.231 75.0541 329.385C74.5221 329.482 73.983 329.534 73.4424 329.541C72.9951 329.499 72.8034 329.499 72.8034 329.499Z" fill="#263238"/>
<path d="M97.9232 236.055C97.8853 236.131 97.8589 236.212 97.8451 236.296L97.6747 237.004C97.5185 237.634 97.3268 238.577 97.0286 239.753C96.7304 240.929 95.9991 242.26 95.3814 243.897C94.6579 245.739 94.0276 247.616 93.4928 249.522C92.8822 251.647 92.3497 253.984 91.7817 256.506C91.299 259.193 90.4435 261.799 89.2399 264.249C88.5867 265.539 87.8199 266.842 87.2732 268.273C86.6999 269.734 86.3158 271.263 86.1301 272.821C85.7262 276.049 85.1527 279.253 84.4119 282.42C82.8215 288.916 81.3021 295.108 79.9176 300.747C78.5331 306.385 77.2267 311.429 76.1475 315.694C75.0683 319.959 74.2518 323.359 73.6554 325.789C73.3785 326.951 73.1584 327.864 73.0022 328.537C72.9383 328.828 72.8815 329.062 72.8389 329.246C72.831 329.328 72.831 329.411 72.8389 329.494C72.8801 329.42 72.9112 329.342 72.9312 329.26C72.9809 329.069 73.0519 328.842 73.1371 328.552C73.3146 327.893 73.5631 326.979 73.8826 325.824C74.5216 323.416 75.4233 319.994 76.538 315.779C77.6527 311.564 78.952 306.463 80.4075 300.86C81.863 295.256 83.3398 289.022 84.9444 282.519C85.6805 279.343 86.2399 276.129 86.62 272.892C86.8014 271.371 87.1735 269.879 87.7276 268.45C88.2885 267.033 89.0056 265.765 89.6588 264.462C91.0788 261.876 91.6397 259.099 92.2006 256.599C92.7615 254.098 93.2585 251.732 93.8407 249.621C94.4229 247.51 95.0335 245.625 95.6441 243.996C96.2547 242.367 96.9292 241.021 97.2203 239.802C97.5114 238.584 97.6463 237.677 97.7741 237.025C97.8214 236.732 97.864 236.496 97.9019 236.317C97.9232 236.14 97.9374 236.055 97.9232 236.055Z" fill="#263238"/>
<path d="M74.2092 329.531C79.3993 326.45 80.8903 317.099 78.7248 311.474C76.5593 305.849 72.7679 300.706 72.1857 294.706C71.7313 290.094 73.2507 285.362 72.1857 280.857C70.7302 274.771 64.7804 270.06 64.8514 263.805C64.8869 260.299 66.8891 256.997 66.7258 253.491C66.5341 249.198 63.2255 245.783 61.1807 242C58.0425 236.199 57.8366 229.348 56.7645 222.873C55.6924 216.399 53.2145 209.414 47.4351 206.219C46.5831 211.737 45.1276 215.52 45.582 222.994C45.7524 225.679 48.8764 230.786 49.3024 236.702C49.558 240.244 49.7284 243.743 49.9485 247.257C50.1686 250.771 50.3816 254.171 51.6099 257.373C52.5542 259.831 54.0665 262.063 54.7694 264.599C56.0829 269.366 54.3505 274.516 55.4155 279.362C56.3172 283.456 59.1572 286.977 59.7394 291.129C60.5488 296.959 56.7716 303.023 58.7028 308.584C59.6684 311.347 61.9404 313.543 62.5865 316.412C63.0906 318.622 62.5439 320.967 62.9983 323.184C63.7083 326.769 70.5669 329.56 74.2234 329.326" fill="#D9B08C"/>
<path d="M48.8551 211.664C48.8454 211.768 48.8454 211.872 48.8551 211.976C48.8551 212.21 48.9261 212.507 48.9687 212.883C49.0894 213.683 49.2243 214.852 49.4941 216.368C49.7639 217.884 50.5733 219.598 51.1981 221.667C51.8229 223.735 52.5187 226.101 53.1009 228.751C53.6831 231.4 54.1943 234.354 54.7126 237.521C55.2309 240.688 55.7989 244.137 57.3751 247.439C58.0851 249.089 58.9229 250.747 59.5051 252.518C60.1016 254.331 60.4689 256.211 60.5985 258.114C60.8887 262.153 61.3983 266.173 62.125 270.157C63.7154 278.332 65.2277 286.118 66.6051 293.209C67.9825 300.3 69.367 306.626 70.4746 311.982C71.5822 317.337 72.491 321.616 73.1229 324.634L73.8329 328.07C73.9181 328.438 73.982 328.728 74.0388 328.955C74.058 329.059 74.0865 329.161 74.124 329.26C74.1365 329.156 74.1365 329.052 74.124 328.948C74.0814 328.714 74.0317 328.424 73.9678 328.048C73.8116 327.227 73.5915 326.065 73.3146 324.591C72.7182 321.566 71.8946 317.245 70.8225 311.911C69.7504 306.577 68.4795 300.18 67.0666 293.117C65.6537 286.054 64.2266 278.24 62.6291 270.072C61.902 266.088 61.39 262.068 61.0955 258.029C60.9603 256.086 60.5811 254.168 59.9666 252.32C59.3347 250.52 58.504 248.855 57.7727 247.212C56.2107 243.96 55.6427 240.567 55.1031 237.415C54.5635 234.262 54.0452 231.301 53.4275 228.638C52.8098 225.974 52.1353 223.594 51.4395 221.553C50.7437 219.513 49.9698 217.785 49.6574 216.304C49.345 214.824 49.1959 213.633 49.0468 212.847C48.9758 212.479 48.919 212.181 48.8764 211.947C48.8749 211.853 48.8678 211.758 48.8551 211.664Z" fill="#263238"/>
<path d="M299.244 63.681H296.404C296.406 64.0024 296.343 64.3209 296.219 64.6177C296.096 64.9145 295.914 65.1835 295.684 65.4087C295.454 65.634 295.181 65.811 294.882 65.9292C294.582 66.0473 294.262 66.1043 293.94 66.0967C293.464 66.1137 292.995 65.9823 292.598 65.7207C292.201 65.4591 291.896 65.0804 291.725 64.6374C291.575 64.2685 291.515 63.8695 291.55 63.473C291.584 63.0766 291.712 62.6939 291.924 62.3563C292.406 61.5629 293.457 60.8474 295.36 61.1804V54.8047H292.57V58.5309C291.425 58.8672 290.422 59.5691 289.715 60.5289C289.009 61.4886 288.637 62.6532 288.658 63.844C288.658 67.9669 292.364 68.9233 293.954 68.9233C295.168 68.9516 299.3 68.6611 299.244 63.681Z" fill="#D9B08C"/>
<path d="M292.548 53.5156H295.381V50.8733H292.548V53.5156Z" fill="#D9B08C"/>
<path d="M314.729 59.9118C314.738 59.7915 314.738 59.6708 314.729 59.5505C314.729 59.2955 314.729 58.9484 314.729 58.5021C314.729 58.2754 314.729 58.0133 314.693 57.7299C314.658 57.4465 314.615 57.1348 314.565 56.809C314.516 56.4831 314.466 56.1006 314.409 55.7251L314.111 54.5208C313.584 52.4468 312.72 50.4727 311.555 48.6764C309.863 46.0162 307.582 43.7785 304.888 42.1354C302.194 40.4922 299.158 39.4873 296.013 39.1979C295.069 39.1147 294.12 39.0958 293.173 39.1413C292.698 39.1413 292.208 39.1413 291.753 39.2334L290.291 39.453C288.284 39.8251 286.342 40.4861 284.525 41.4153C282.629 42.4164 280.886 43.6832 279.35 45.1769C277.776 46.7679 276.461 48.5939 275.452 50.5891C274.365 52.6462 273.654 54.8792 273.35 57.1844C273.261 57.7685 273.211 58.3577 273.201 58.9484C273.154 59.5398 273.142 60.1336 273.165 60.7265C273.32 64.5267 274.51 68.2129 276.609 71.388V71.1684C275.622 73.6266 274.649 76.0422 273.698 78.3942L273.527 78.8263L273.975 78.6988L281.714 76.5736L281.529 76.5311C284.136 78.4998 287.172 79.8252 290.39 80.399C291.883 80.6766 293.404 80.7694 294.92 80.6752C295.651 80.6644 296.38 80.5957 297.1 80.4698L298.157 80.3069C298.505 80.2431 298.867 80.1368 299.18 80.0589C303.949 78.8531 308.132 75.9928 310.98 71.9902C312.042 70.5156 312.895 68.9017 313.515 67.1942C313.65 66.8188 313.777 66.4858 313.898 66.1175C314.019 65.7491 314.083 65.409 314.161 65.0903C314.239 64.7715 314.324 64.4456 314.395 64.1481C314.466 63.8505 314.487 63.5601 314.53 63.2838C314.594 62.7383 314.693 62.2566 314.715 61.867C314.736 61.4774 314.715 61.1019 314.715 60.8044C314.715 60.5069 314.715 60.3227 314.715 60.1597C314.715 59.9968 314.715 59.9401 314.715 59.9401C314.704 60.0129 314.704 60.0869 314.715 60.1597C314.715 60.3227 314.715 60.5352 314.665 60.8044C314.615 61.0736 314.622 61.449 314.594 61.8599C314.565 62.2708 314.459 62.7525 314.374 63.2767C313.697 67.1975 311.893 70.8377 309.182 73.7552C306.471 76.6727 302.969 78.742 299.102 79.7118C298.768 79.7897 298.434 79.8889 298.094 79.9527L297.05 80.1085C296.346 80.2258 295.634 80.2897 294.92 80.2998C293.432 80.378 291.94 80.2805 290.475 80.0093C287.332 79.4323 284.368 78.1295 281.82 76.2052L281.735 76.1343H281.629L273.882 78.2596L274.152 78.5642L277.07 71.3455L277.113 71.2322L277.049 71.1259C275.651 69.0154 274.659 66.6635 274.124 64.1906C273.879 63.0433 273.731 61.8773 273.684 60.7052C273.66 60.1265 273.672 59.5469 273.719 58.9696C273.724 58.3931 273.771 57.8177 273.861 57.2482C274.134 54.997 274.804 52.812 275.842 50.7946C276.829 48.8446 278.11 47.0575 279.641 45.4957C281.144 44.0292 282.852 42.7862 284.71 41.8049C286.486 40.8833 288.388 40.2269 290.355 39.8568L291.775 39.6372C292.25 39.5663 292.726 39.5734 293.195 39.538C294.12 39.494 295.047 39.5106 295.971 39.5876C299.063 39.8577 302.054 40.8275 304.715 42.4232C307.376 44.0189 309.637 46.1986 311.328 48.7969C312.5 50.5618 313.377 52.5044 313.926 54.5491L314.246 55.7393C314.31 56.1147 314.367 56.4477 314.424 56.8019C314.48 57.1561 314.523 57.4395 314.573 57.7228C314.622 58.0062 314.608 58.2612 314.629 58.4879C314.629 58.9271 314.686 59.2742 314.707 59.5293C314.694 59.6571 314.701 59.7862 314.729 59.9118Z" fill="#263238"/>
<path d="M103 143.457H144.002C144.002 143.457 144.002 109.106 179.779 108.497C198.36 108.171 207.994 120.32 211.914 129.622C216.458 140.425 215.08 152.737 208.988 162.761C202.038 174.202 187.057 185.699 159.423 180.84L159.161 271.99H199.709V217.953C199.709 217.953 256.573 203.289 256.573 140.737C256.573 80.9114 208.087 67.9901 182.023 67.1542C167.524 66.6937 162.27 66.0703 144.336 68.6135C121.481 71.8722 102.517 98.3525 103 143.457Z" fill="#D9B08C"/>
<path d="M200.199 290.992H159.047V329.338H200.199V290.992Z" fill="#D9B08C"/>
<path opacity="0.1" d="M200.199 290.992H159.047V329.338H200.199V290.992Z" fill="black"/>
<path opacity="0.1" d="M103 143.457H144.002C144.002 143.457 144.002 109.106 179.779 108.497C198.36 108.171 207.994 120.32 211.914 129.622C216.458 140.425 215.08 152.737 208.988 162.761C202.038 174.202 187.057 185.699 159.423 180.84L159.161 271.99H199.709V217.953C199.709 217.953 256.573 203.289 256.573 140.737C256.573 80.9114 208.087 67.9901 182.023 67.1542C167.524 66.6937 162.27 66.0703 144.336 68.6135C121.481 71.8722 102.517 98.3525 103 143.457Z" fill="black"/>
<path d="M86.0094 143.461H127.019C127.019 143.461 127.019 109.11 162.796 108.501C181.377 108.175 191.011 120.324 194.923 129.625C199.474 140.429 198.097 152.741 192.005 162.765C185.054 174.206 169.811 184.605 142.177 179.767V271.994H182.726V217.957C182.726 217.957 239.589 203.293 239.589 140.74C239.589 80.9153 185.814 67.0234 162.803 67.0234C145.202 67.0447 85.2355 71.2881 86.0094 143.461Z" fill="#D9B08C"/>
<path opacity="0.3" d="M86.0094 143.461H127.019C127.019 143.461 127.019 109.11 162.796 108.501C181.377 108.175 191.011 120.324 194.923 129.625C199.474 140.429 198.097 152.741 192.005 162.765C185.054 174.206 169.811 184.605 142.177 179.767V271.994H182.726V217.957C182.726 217.957 239.589 203.293 239.589 140.74C239.589 80.9153 185.814 67.0234 162.803 67.0234C145.202 67.0447 85.2355 71.2881 86.0094 143.461Z" fill="black"/>
<path d="M183.215 290.992H142.064V329.338H183.215V290.992Z" fill="#D9B08C"/>
<path opacity="0.3" d="M183.215 290.992H142.064V329.338H183.215V290.992Z" fill="black"/>
<path d="M167.425 108.683C167.222 108.701 167.018 108.701 166.814 108.683C166.41 108.683 165.828 108.548 165.068 108.541C162.92 108.436 160.767 108.526 158.635 108.811C155.474 109.21 152.364 109.939 149.356 110.985C147.582 111.604 145.855 112.347 144.187 113.21C142.384 114.109 140.686 115.204 139.124 116.476C137.574 117.759 136.184 119.224 134.985 120.839C133.849 122.333 132.813 123.9 131.882 125.529C130.33 128.304 129.098 131.246 128.212 134.299C127.611 136.359 127.197 138.47 126.976 140.604C126.891 141.355 126.87 141.95 126.849 142.347C126.849 142.551 126.83 142.755 126.792 142.956C126.773 142.753 126.773 142.549 126.792 142.347C126.792 141.943 126.792 141.348 126.856 140.59C127.019 138.432 127.397 136.297 127.985 134.214C128.838 131.126 130.054 128.149 131.606 125.345C132.538 123.697 133.579 122.114 134.722 120.606C135.931 118.964 137.338 117.477 138.911 116.178C140.492 114.889 142.211 113.779 144.038 112.87C145.716 111.991 147.455 111.234 149.242 110.603C152.278 109.56 155.418 108.848 158.607 108.478C160.753 108.215 162.919 108.165 165.075 108.329C165.661 108.366 166.244 108.437 166.822 108.541C167.026 108.574 167.228 108.622 167.425 108.683Z" fill="#263238"/>
<path d="M229.209 101.393C229.209 101.393 229.16 101.343 229.074 101.237C228.989 101.131 228.861 100.947 228.719 100.741L227.363 98.8286C227.072 98.4177 226.76 97.9431 226.391 97.4543L225.113 95.9029L223.65 94.1106C223.117 93.4872 222.493 92.8851 221.868 92.2262C221.243 91.5674 220.604 90.8661 219.88 90.1931C219.156 89.5201 218.382 88.833 217.587 88.1246C217.189 87.7703 216.798 87.4161 216.372 87.0407L215.052 85.9993C214.15 85.2909 213.256 84.5825 212.283 83.8741C208.043 80.8475 203.546 78.1974 198.843 75.9541L195.101 74.2681L191.388 72.8513C190.173 72.3483 188.938 71.9941 187.745 71.5974C186.552 71.2007 185.388 70.7969 184.195 70.5206L180.801 69.6351C179.701 69.3447 178.608 69.1676 177.564 68.9267C176.52 68.6858 175.512 68.4733 174.525 68.3529L171.685 67.942C169.889 67.6374 168.242 67.5736 166.807 67.432C166.097 67.3753 165.387 67.2974 164.798 67.269L163.108 67.2265L160.765 67.1486H160.155H159.949C160.017 67.138 160.086 67.138 160.155 67.1486H160.765H163.108H164.805C165.423 67.1486 166.097 67.2336 166.822 67.2832C168.242 67.4036 169.917 67.4532 171.713 67.7437L174.553 68.1262C175.54 68.2395 176.549 68.4946 177.599 68.6858C178.65 68.8771 179.729 69.0755 180.858 69.3942L184.266 70.2727C185.445 70.5419 186.609 70.9811 187.816 71.3424C189.023 71.7037 190.252 72.0508 191.466 72.5892L195.2 74.006L198.963 75.6991C203.691 77.9475 208.206 80.6172 212.453 83.6758C213.433 84.3842 214.328 85.1422 215.229 85.8435L216.55 86.7998C216.976 87.154 217.366 87.5082 217.764 87.8908L220.05 90.016C220.76 90.7244 221.399 91.4328 222.031 92.0775C222.663 92.7221 223.267 93.3526 223.799 93.9831L225.219 95.7895L226.483 97.3622C226.845 97.8581 227.15 98.3398 227.434 98.779C227.988 99.6078 228.421 100.26 228.726 100.727L229.06 101.244C229.116 101.287 229.166 101.337 229.209 101.393Z" fill="#263238"/>
<path d="M224.935 189.234C224.851 189.388 224.748 189.53 224.63 189.659L223.65 190.814C223.245 191.331 222.734 191.948 222.102 192.635C221.47 193.322 220.796 194.129 219.972 194.965C219.149 195.801 218.268 196.736 217.267 197.679C216.266 198.621 215.18 199.613 214.022 200.647C208.946 205.067 203.382 208.896 197.437 212.059C196.059 212.768 194.76 213.476 193.503 214.022C192.247 214.567 191.075 215.127 189.996 215.58C188.917 216.033 187.923 216.409 187.057 216.742C186.19 217.075 185.431 217.344 184.806 217.542L183.386 218.003C183.221 218.068 183.05 218.116 182.875 218.145C183.028 218.057 183.19 217.986 183.357 217.932L184.777 217.408C185.395 217.188 186.141 216.905 187 216.551C187.859 216.196 188.853 215.842 189.918 215.339C190.983 214.836 192.161 214.362 193.39 213.745C194.618 213.129 195.932 212.477 197.302 211.762C200.007 210.274 202.925 208.531 205.872 206.52C208.818 204.508 211.466 202.39 213.824 200.392C214.981 199.372 216.088 198.415 217.075 197.452C218.062 196.488 218.985 195.617 219.802 194.781C220.618 193.945 221.335 193.173 221.974 192.493C222.613 191.813 223.139 191.218 223.565 190.722L224.559 189.596C224.674 189.465 224.8 189.344 224.935 189.234Z" fill="#263238"/>
<path d="M182.008 268.774C181.902 268.774 181.817 257.397 181.817 243.363C181.817 229.329 181.902 217.945 182.008 217.945C182.115 217.945 182.193 229.322 182.193 243.363C182.193 257.404 182.108 268.774 182.008 268.774Z" fill="#263238"/>
<path d="M183.57 326.739C183.464 326.739 183.386 318.755 183.386 308.908C183.386 299.061 183.464 291.07 183.57 291.07C183.677 291.07 183.755 299.054 183.755 308.908C183.755 318.762 183.67 326.739 183.57 326.739Z" fill="#263238"/>
<path d="M223.934 138.016C223.224 139.433 225.872 140.594 227.399 141.055C228.956 141.436 230.568 141.546 232.163 141.381C234.293 141.267 236.473 141.069 238.312 140.02C239.922 139.025 241.209 137.586 242.018 135.876C242.815 134.172 243.445 132.395 243.899 130.57C243.899 130.57 227.122 131.661 223.934 138.016Z" fill="#D9B08C"/>
<g opacity="0.4">
<path d="M223.934 138.016C223.224 139.433 225.872 140.594 227.399 141.055C228.956 141.436 230.568 141.546 232.163 141.381C234.293 141.267 236.473 141.069 238.312 140.02C239.922 139.025 241.209 137.586 242.018 135.876C242.815 134.172 243.445 132.395 243.899 130.57C243.899 130.57 227.122 131.661 223.934 138.016Z" fill="black"/>
</g>
<path d="M271.319 133.485C274.085 135.442 277.4 136.478 280.791 136.446C282.416 136.536 284.019 136.032 285.299 135.029C285.846 134.526 286.258 133.888 286.819 133.407C287.202 133.081 287.649 132.833 288.011 132.486C288.203 132.322 288.35 132.113 288.44 131.878C288.531 131.643 288.562 131.389 288.53 131.14C288.39 130.524 288.044 129.975 287.55 129.581C285.626 128.49 283.325 128.533 281.11 128.582C278.893 128.678 276.703 129.106 274.614 129.85C272.896 130.431 271.099 131.267 270.226 132.826" fill="#D9B08C"/>
<g opacity="0.4">
<path d="M288.53 131.145C288.279 130.548 287.837 130.05 287.273 129.729C285.349 128.638 283.325 128.539 281.11 128.588C278.893 128.684 276.703 129.111 274.614 129.856C272.896 130.437 271.099 131.273 270.226 132.831L271.319 133.49C274.085 135.448 277.4 136.484 280.791 136.451C282.416 136.542 284.019 136.038 285.299 135.035C285.846 134.532 286.258 133.894 286.819 133.412C287.202 133.086 287.649 132.839 288.011 132.491C288.203 132.327 288.35 132.118 288.44 131.884C288.531 131.649 288.562 131.395 288.53 131.145Z" fill="black"/>
</g>
<path d="M238.56 158.914L273.954 159.381C274.026 159.381 274.097 159.364 274.161 159.332C274.225 159.299 274.281 159.252 274.324 159.194C274.366 159.137 274.395 159.069 274.407 158.999C274.419 158.928 274.415 158.855 274.394 158.786L270.24 145.865C270.24 145.865 270.851 139.404 271.696 131.64C272.981 119.845 274.692 105.018 274.713 105.061C272.292 98.2882 258.007 97.1406 258.007 97.1406L241.727 98.1041L241.159 97.1477L236.473 99.3225C235.451 99.7969 234.468 100.351 233.533 100.98C230.438 103.042 222.983 107.781 221.619 113.059C218.474 125.279 223.799 138.915 223.799 138.915L227.221 136.245C228.083 135.582 228.989 134.978 229.934 134.438L236.792 152.779C236.384 153.036 236.038 153.38 235.78 153.787C235.522 154.194 235.359 154.653 235.301 155.131C235.244 156.619 236.011 158.404 238.56 158.914Z" fill="#D9B08C"/>
<g opacity="0.3">
<path d="M253.747 137.29C254.869 131.268 254.279 125.077 253.676 118.984C251.716 123.943 251.787 129.61 249.707 134.527C249.452 135.046 249.266 135.596 249.153 136.163C249.099 136.448 249.113 136.742 249.195 137.02C249.276 137.298 249.422 137.553 249.622 137.764C250.19 138.281 251.042 137.998 251.794 137.913C252.468 137.785 253.124 137.575 253.747 137.29Z" fill="black"/>
</g>
<g opacity="0.4">
<path d="M240.69 151.227C243.53 152.211 246.555 150.377 249.558 150.051C251.546 149.838 253.534 150.292 255.508 150.61C259.499 151.255 263.559 151.355 267.578 150.908C268.194 150.874 268.798 150.717 269.353 150.447C269.639 150.252 269.874 149.99 270.036 149.684C270.198 149.378 270.283 149.037 270.283 148.691C263.595 147.982 256.913 147.6 250.225 146.912C248.561 146.629 246.855 146.684 245.213 147.075C243.196 147.699 241.663 149.279 240.243 150.844" fill="black"/>
</g>
<path d="M287.507 128.813C284.618 122.317 274.429 104.352 274.429 104.352L266.541 114.22L268.38 133.595C268.38 133.595 272.548 128.955 284.199 128.862C285.046 128.896 285.874 129.119 286.623 129.513C287.373 129.908 288.024 130.465 288.53 131.144L287.507 128.813Z" fill="#D9B08C"/>
<path d="M240.143 125.384C239.581 124.006 239.134 122.584 238.809 121.133C238.368 119.719 238.045 118.272 237.843 116.805C238.397 118.184 238.841 119.606 239.171 121.055C239.612 122.469 239.937 123.917 240.143 125.384Z" fill="#263238"/>
<path d="M265.945 112.914C266.202 113.095 266.439 113.302 266.655 113.53C267.282 114.135 267.87 114.778 268.415 115.457C270.251 117.696 271.542 120.33 272.186 123.151C272.52 124.71 272.594 126.313 272.406 127.897C272.228 129.349 271.951 130.624 271.767 131.701C271.582 132.778 271.468 133.656 271.412 134.265C271.41 134.582 271.377 134.898 271.312 135.208C271.262 134.891 271.248 134.571 271.27 134.251C271.301 133.383 271.382 132.518 271.511 131.659C271.66 130.575 271.909 129.285 272.072 127.861C272.236 126.314 272.152 124.75 271.824 123.228C271.188 120.46 269.954 117.864 268.21 115.62C266.91 113.877 265.888 112.971 265.945 112.914Z" fill="#263238"/>
<path d="M258.717 157.35C258.47 157.46 258.21 157.536 257.943 157.577C257.64 157.657 257.331 157.716 257.02 157.754C256.658 157.804 256.246 157.882 255.785 157.903C254.703 158.002 253.614 158.002 252.533 157.903C251.209 157.767 249.902 157.506 248.628 157.124C247.36 156.717 246.134 156.193 244.964 155.558C244.016 155.03 243.116 154.421 242.273 153.737C241.904 153.454 241.606 153.156 241.336 152.909C241.103 152.699 240.883 152.477 240.676 152.243C240.478 152.06 240.309 151.85 240.172 151.619C240.221 151.57 240.981 152.42 242.437 153.532C243.287 154.177 244.187 154.755 245.127 155.26C246.284 155.867 247.491 156.371 248.734 156.769C249.986 157.146 251.269 157.411 252.568 157.563C253.629 157.677 254.697 157.71 255.763 157.662C257.588 157.563 258.703 157.294 258.717 157.35Z" fill="#263238"/>
<path d="M269.644 153.328C269.811 153.648 269.905 154.002 269.921 154.362C270.034 155.226 269.969 156.104 269.729 156.941C269.485 157.798 268.991 158.562 268.309 159.137C267.791 159.569 267.393 159.704 267.372 159.668C267.35 159.633 267.684 159.399 268.131 158.96C268.706 158.362 269.123 157.632 269.346 156.835C269.914 154.965 269.509 153.335 269.644 153.328Z" fill="#263238"/>
<path d="M267.72 155.82C267.874 156.549 267.812 157.307 267.542 158.001C267.273 158.695 266.806 159.296 266.2 159.731C266.122 159.653 266.782 158.951 267.194 157.868C267.606 156.784 267.613 155.827 267.72 155.82Z" fill="#263238"/>
<path d="M261.386 132.516C261.01 133.15 260.588 133.756 260.123 134.329C259.756 134.969 259.34 135.58 258.88 136.157C259.017 135.409 259.339 134.708 259.817 134.117C260.196 133.459 260.736 132.908 261.386 132.516Z" fill="#263238"/>
<path d="M237.09 115.354C236.549 115.037 236.026 114.692 235.521 114.32C232.996 112.665 230.13 111.597 227.136 111.196C226.509 111.15 225.886 111.067 225.269 110.948C225.898 110.861 226.536 110.861 227.165 110.948C230.24 111.21 233.186 112.305 235.685 114.114C236.208 114.461 236.682 114.878 237.09 115.354Z" fill="#263238"/>
<path d="M274.429 104.125C273.158 105.146 271.971 106.266 270.879 107.476C269.874 108.766 268.974 110.136 268.188 111.57C268.272 111.088 268.438 110.623 268.678 110.196C269.192 109.134 269.836 108.139 270.595 107.235C271.356 106.332 272.23 105.53 273.194 104.848C273.561 104.538 273.979 104.293 274.429 104.125Z" fill="#263238"/>
<path d="M259.817 98.2812C259.882 98.3834 259.934 98.4928 259.974 98.6071C260.112 98.9279 260.224 99.2597 260.307 99.5989C260.607 100.861 260.607 102.176 260.307 103.438C259.865 105.323 258.854 107.027 257.411 108.319C255.588 109.86 253.266 110.686 250.879 110.643C248.489 110.651 246.16 109.888 244.24 108.468C242.71 107.303 241.469 105.803 240.612 104.083C240.035 102.932 239.628 101.703 239.405 100.435C239.34 100.093 239.297 99.7477 239.277 99.4005C239.257 99.2786 239.257 99.1541 239.277 99.0322C239.277 99.0322 239.355 99.528 239.554 100.406C239.83 101.639 240.267 102.83 240.853 103.949C241.719 105.616 242.95 107.069 244.453 108.199C246.303 109.566 248.541 110.31 250.843 110.324C253.145 110.366 255.385 109.582 257.155 108.114C258.55 106.869 259.539 105.235 259.995 103.424C260.311 102.202 260.354 100.925 260.123 99.6839C259.988 98.7488 259.775 98.2954 259.817 98.2812Z" fill="#263238"/>
<g opacity="0.3">
<path d="M262.302 133.767C262.302 133.413 262.246 132.995 261.933 132.818C261.834 132.768 261.725 132.742 261.614 132.742C261.503 132.742 261.393 132.768 261.294 132.818C261.096 132.925 260.92 133.069 260.776 133.243C259.941 134.11 259.296 135.14 258.88 136.268L262.359 135.963C262.338 135.248 262.324 134.497 262.302 133.767Z" fill="black"/>
</g>
<g opacity="0.3">
<path d="M273.854 126.462C273.504 124.476 272.632 122.618 271.326 121.078C272.832 125.98 272.328 128.75 271.483 132.108L271.667 131.64C272.64 129.678 274.117 128.446 273.854 126.462Z" fill="black"/>
</g>
<path d="M266.903 291.135L264.78 322.907L250.935 322.744L248.756 289.711L266.903 291.135Z" fill="#FFBE9D"/>
<path d="M265.171 318.731V319.652C265.171 319.652 280.791 325.915 280.94 328.862L249.92 328.692L250.403 318.398C255.025 320.559 259.86 320.828 265.171 318.731Z" fill="#D9B08C"/>
<path d="M253.548 321.699C253.254 321.788 253.002 321.981 252.84 322.242C252.678 322.502 252.616 322.813 252.668 323.116C252.744 323.418 252.934 323.679 253.199 323.844C253.464 324.009 253.782 324.066 254.088 324.001C254.404 323.907 254.673 323.699 254.844 323.417C255.014 323.136 255.074 322.801 255.011 322.478C254.898 322.172 254.671 321.922 254.377 321.781C254.082 321.639 253.744 321.617 253.434 321.72" fill="white"/>
<path d="M249.92 328.691L250.034 326.219L279.74 327.296C279.74 327.296 281.117 327.905 280.954 328.868L249.92 328.691Z" fill="#263238"/>
<path d="M265.284 319.738C265.284 319.887 264.518 319.951 263.772 320.447C263.027 320.943 262.622 321.559 262.487 321.502C262.352 321.445 262.579 320.567 263.495 320C264.411 319.434 265.32 319.575 265.284 319.738Z" fill="#263238"/>
<path d="M268.529 321.099C268.565 321.247 267.904 321.495 267.386 322.133C266.868 322.77 266.719 323.443 266.562 323.436C266.406 323.429 266.321 322.572 266.981 321.8C267.642 321.028 268.522 320.992 268.529 321.099Z" fill="#263238"/>
<path d="M270.354 324.994C270.212 324.994 270.006 324.286 270.403 323.443C270.801 322.6 271.504 322.295 271.568 322.416C271.632 322.536 271.192 322.983 270.858 323.67C270.524 324.357 270.51 324.98 270.354 324.994Z" fill="#263238"/>
<path d="M264.376 58.7756C265.178 56.7921 264.205 54.3906 262.48 53.1084C260.662 51.9141 258.444 51.4839 256.31 51.9112C254.204 52.3517 252.166 53.0662 250.247 54.0364C249.354 53.1384 248.229 52.5055 246.997 52.2085C245.765 51.9115 244.475 51.962 243.27 52.3544C242.065 52.7469 240.993 53.4657 240.174 54.4307C239.355 55.3957 238.821 56.5689 238.631 57.8193C237.863 57.6265 237.058 57.6459 236.3 57.8754C235.543 58.1049 234.862 58.5359 234.332 59.1221C233.801 59.7082 233.44 60.4275 233.289 61.2026C233.137 61.9778 233.199 62.7796 233.469 63.522L243.068 66.8869L253.548 85.3055C255.097 86.6239 257.073 87.335 259.109 87.3063C261.145 87.2775 263.1 86.5108 264.611 85.1491C266.122 83.7875 267.085 81.924 267.319 79.9062C267.554 77.8885 267.046 75.8544 265.888 74.1835C266.475 73.6625 266.974 73.0501 267.365 72.37C268.202 71.8759 268.933 71.2206 269.514 70.4423C270.096 69.664 270.516 68.7781 270.751 67.8362C271.681 63.7345 268.501 59.2574 264.376 58.7756Z" fill="#263238"/>
<path d="M258.021 97.1348C257.425 94.1382 257.013 92.0838 257.02 92.1051C257.027 92.1264 262.7 89.909 262.288 82.0245C262.089 78.0999 260.591 71.9155 259.2 66.8999C257.95 62.3803 253.726 57.4002 249.26 58.8383L235.72 65.4265C234.364 65.8657 234.13 67.1408 234.449 68.5222V69.2306L239.71 90.9504L241.932 100.656C242.406 102.648 243.611 104.392 245.308 105.543C247.006 106.694 249.074 107.17 251.106 106.875C252.215 106.72 253.281 106.339 254.238 105.758C255.195 105.176 256.022 104.406 256.67 103.494C257.317 102.582 257.771 101.547 258.004 100.454C258.236 99.3601 258.242 98.2307 258.021 97.1348Z" fill="#FFBE9D"/>
<path d="M259.15 72.1453C259.207 72.3966 259.165 72.6602 259.033 72.8817C258.901 73.1031 258.689 73.2655 258.44 73.3354C258.315 73.3704 258.183 73.3796 258.054 73.3626C257.925 73.3457 257.801 73.3028 257.689 73.2366C257.576 73.1704 257.479 73.0823 257.402 72.9775C257.325 72.8728 257.27 72.7535 257.24 72.627C257.183 72.3765 257.225 72.1139 257.358 71.8936C257.49 71.6733 257.702 71.5123 257.95 71.444C258.075 71.4079 258.206 71.3975 258.335 71.4136C258.464 71.4297 258.589 71.4718 258.701 71.5374C258.813 71.603 258.911 71.6908 258.988 71.7953C259.065 71.8998 259.12 72.0189 259.15 72.1453Z" fill="#263238"/>
<path d="M258.532 70.6357C258.433 70.7915 257.574 70.4019 256.523 70.6357C255.472 70.8694 254.805 71.5495 254.663 71.4433C254.521 71.337 254.663 71.1386 254.954 70.8269C255.345 70.4151 255.853 70.1332 256.409 70.0194C256.959 69.9012 257.531 69.9633 258.042 70.1965C258.44 70.3594 258.575 70.5719 258.532 70.6357Z" fill="#263238"/>
<path d="M248.841 74.4687C248.898 74.7191 248.855 74.9818 248.723 75.202C248.591 75.4223 248.379 75.5834 248.131 75.6517C248.008 75.6873 247.88 75.6983 247.753 75.6841C247.626 75.6698 247.503 75.6306 247.392 75.5686C247.28 75.5067 247.182 75.4233 247.103 75.3233C247.024 75.2232 246.965 75.1085 246.931 74.9858C246.874 74.7345 246.916 74.4709 247.048 74.2494C247.18 74.028 247.392 73.8656 247.641 73.7957C247.764 73.7602 247.893 73.7495 248.02 73.7642C248.147 73.7789 248.27 73.8188 248.382 73.8814C248.494 73.944 248.592 74.0282 248.671 74.129C248.749 74.2299 248.807 74.3453 248.841 74.4687Z" fill="#263238"/>
<path d="M248.322 73.1353C248.23 73.2912 247.364 72.8945 246.313 73.1353C245.262 73.3762 244.595 74.0421 244.453 73.9429C244.311 73.8437 244.453 73.6383 244.744 73.3195C245.136 72.9114 245.644 72.6321 246.2 72.519C246.748 72.4026 247.32 72.4621 247.833 72.689C248.209 72.859 248.372 73.0503 248.322 73.1353Z" fill="#263238"/>
<path d="M253.669 79.7911C254.189 79.5046 254.742 79.2811 255.316 79.1252C255.579 79.0402 255.827 78.934 255.834 78.7427C255.797 78.4609 255.676 78.1968 255.486 77.9847L254.258 76.1003C252.54 73.4155 251.234 71.1911 251.34 71.1415C251.447 71.0919 252.93 73.1959 254.649 75.8807L255.849 77.7793C256.084 78.0698 256.212 78.4327 256.211 78.8065C256.189 78.9084 256.146 79.0044 256.083 79.0876C256.021 79.1709 255.941 79.2394 255.849 79.2882C255.71 79.3615 255.562 79.4163 255.408 79.4511C254.847 79.643 254.261 79.7574 253.669 79.7911Z" fill="#263238"/>
<path d="M257.02 92.1043C253.429 92.9141 249.683 92.713 246.2 91.5234C246.2 91.5234 249.92 96.3689 257.425 94.0524L257.02 92.1043Z" fill="#EB996E"/>
<path d="M248.5 71.6296C248.429 71.9343 247.343 71.9272 246.107 72.2318C244.872 72.5364 243.892 72.9969 243.693 72.756C243.608 72.6427 243.75 72.3451 244.126 72.0476C244.627 71.6273 245.221 71.3333 245.859 71.1904C246.491 71.0407 247.15 71.0407 247.783 71.1904C248.287 71.2825 248.55 71.488 248.5 71.6296Z" fill="#263238"/>
<path d="M258.128 67.292C257.957 67.5753 257.048 67.5045 255.998 67.7099C254.947 67.9154 254.116 68.2696 253.868 68.0641C253.754 67.9579 253.868 67.6887 254.173 67.3557C254.642 66.9623 255.208 66.7028 255.813 66.6048C256.408 66.4853 257.024 66.5293 257.595 66.7323C258.028 66.9307 258.199 67.1503 258.128 67.292Z" fill="#263238"/>
<path d="M239.064 60.3498C239.221 61.1172 239.546 61.8407 240.015 62.4689C240.484 63.097 241.086 63.6144 241.777 63.9843C242.469 64.3542 243.235 64.5675 244.018 64.609C244.802 64.6506 245.586 64.5194 246.313 64.2248C247.435 63.7715 248.599 62.9214 249.735 63.3322C250.871 63.7431 251.34 65.3583 252.426 65.9604C254.024 66.853 255.976 65.3087 257.758 65.4645C259.178 65.585 260.251 66.6688 261.351 67.5898C262.452 68.5107 263.971 69.2049 265.213 68.539C264.929 67.356 264.507 66.2101 263.957 65.1245C263.401 64.0316 262.483 63.1652 261.358 62.6734C260.733 62.4255 260.059 62.3405 259.462 62.0358C258.177 61.3841 257.602 59.9106 256.672 58.7984C256.061 58.0975 255.292 57.552 254.427 57.2071C253.563 56.8621 252.629 56.7277 251.702 56.8149C250.169 56.9707 248.713 57.7429 247.165 57.6791C246.022 57.6295 244.929 57.1195 243.786 57.1408C241.563 57.1408 239.895 59.1243 238.659 60.9732" fill="#263238"/>
<path d="M246.547 61.9757C245.525 61.8978 243.438 61.6852 242.749 60.9627C242.049 60.1819 241.156 59.5981 240.16 59.2699C239.163 58.9417 238.097 58.8805 237.069 59.0925C236.049 59.3959 235.153 60.0181 234.514 60.8674C233.875 61.7168 233.526 62.7484 233.519 63.8105C232.277 64.1129 231.139 64.7445 230.227 65.6386C229.315 66.5326 228.661 67.6559 228.336 68.8897C228.006 70.1814 227.994 71.5339 228.304 72.8308C228.613 74.1277 229.233 75.3303 230.111 76.3351C230.538 76.8673 230.927 77.4282 231.275 78.014C230.794 78.6099 230.371 79.2504 230.012 79.9267C228.386 83.5113 232.795 84.8856 232.795 84.8856C232.795 87.2942 235.031 87.28 236.458 87.2729C237.885 87.2659 238.674 91.07 239.788 90.9212L238.659 79.1829C238.825 79.2471 239 79.2807 239.178 79.2821C241.869 79.3317 241.166 74.2453 240.3 72.9064C241.101 71.9106 241.778 70.8211 242.316 69.6619C242.803 67.8899 242.837 66.0241 242.415 64.2355C243.317 64.1222 246.988 62.004 246.547 61.9757Z" fill="#263238"/>
<path d="M239.014 79.8104C238.923 79.4374 238.738 79.0937 238.477 78.8113C238.216 78.5288 237.888 78.3169 237.523 78.1952C237.158 78.0736 236.768 78.0462 236.389 78.1155C236.011 78.1849 235.656 78.3488 235.358 78.592C234.648 79.2012 234.272 80.2213 234.698 81.9286C235.848 86.4907 240.2 84.4009 240.172 84.2734C240.143 84.1459 239.511 81.6948 239.014 79.8104Z" fill="#FFBE9D"/>
<path d="M238.34 82.887C238.34 82.887 238.276 82.9649 238.155 83.057C237.987 83.1854 237.776 83.2438 237.566 83.2199C237.041 83.1633 236.437 82.5115 236.21 81.6827C236.102 81.2954 236.08 80.8892 236.146 80.4926C236.153 80.3385 236.198 80.1885 236.276 80.0553C236.353 79.922 236.462 79.8096 236.593 79.7275C236.68 79.6811 236.779 79.6664 236.875 79.6858C236.971 79.7052 237.057 79.7576 237.119 79.8338C237.211 79.94 237.204 80.0392 237.232 80.0463C237.261 80.0534 237.31 79.94 237.232 79.7629C237.178 79.6579 237.091 79.5733 236.984 79.5221C236.834 79.4614 236.665 79.4614 236.515 79.5221C236.337 79.6065 236.183 79.7346 236.067 79.8944C235.952 80.0541 235.879 80.2404 235.855 80.4359C235.763 80.882 235.78 81.3437 235.905 81.7819C235.984 82.1932 236.183 82.5721 236.477 82.8708C236.772 83.1695 237.148 83.3748 237.559 83.4608C237.693 83.4662 237.826 83.4417 237.949 83.3889C238.071 83.3362 238.181 83.2567 238.269 83.1562C238.361 83.0003 238.361 82.8941 238.34 82.887Z" fill="#EB996E"/>
<path d="M263.531 73.4378C263.531 73.4378 263.95 73.119 264.532 72.4106C265.335 71.3899 265.828 70.1605 265.952 68.8686C266.046 67.9866 265.959 67.0948 265.696 66.2475C265.393 65.2755 264.831 64.4039 264.07 63.7255C263.192 62.9602 262.129 62.4373 260.985 62.2087C259.842 61.98 258.659 62.0536 257.552 62.4221C257.339 62.4929 257.141 62.5992 256.942 62.6842C256.743 62.7692 256.566 62.8967 256.381 63.003L256.097 63.1588V62.8471C256.091 62.2983 255.887 61.7702 255.522 61.3594C255.148 60.9608 254.69 60.651 254.18 60.4527C253.216 60.0517 252.147 59.9722 251.134 60.226C249.174 60.6723 247.513 61.5649 245.944 61.7491C244.714 61.9624 243.448 61.7098 242.394 61.0407C242.116 60.8498 241.875 60.6097 241.684 60.3323C241.57 60.141 241.514 60.0347 241.528 60.0276C241.785 60.3775 242.099 60.6816 242.458 60.9273C243.494 61.5243 244.712 61.7281 245.887 61.5011C246.705 61.3476 247.504 61.1102 248.273 60.7927C249.175 60.4328 250.1 60.1323 251.042 59.893C251.567 59.7663 252.107 59.7115 252.646 59.7301C253.216 59.7601 253.776 59.8896 254.301 60.1126C254.844 60.3441 255.329 60.6924 255.721 61.1328C256.141 61.6123 256.377 62.2246 256.388 62.8613L256.104 62.7054L256.693 62.3654C256.914 62.2804 257.119 62.167 257.347 62.0891C258.512 61.6908 259.763 61.6075 260.971 61.8476C262.18 62.0878 263.303 62.6428 264.226 63.4563C265.025 64.1776 265.61 65.1039 265.916 66.1341C266.235 67.226 266.278 68.3795 266.041 69.492C265.805 70.6044 265.296 71.6412 264.56 72.5098C264.326 72.776 264.062 73.0138 263.772 73.2182C263.701 73.3009 263.62 73.3746 263.531 73.4378Z" fill="#455A64"/>
<path d="M262.608 57.424C262.142 57.1879 261.644 57.0186 261.131 56.9211C260.544 56.841 259.946 56.8967 259.384 57.084C258.656 57.3061 258.024 57.765 257.588 58.3875L257.41 58.6354L257.304 58.352C256.933 57.4812 256.337 56.7248 255.575 56.1607C254.814 55.5966 253.916 55.2453 252.973 55.1429C251.492 55.0874 250.033 55.5097 248.812 56.3472C247.772 57.0238 246.666 57.5934 245.511 58.0474C244.715 58.348 243.857 58.4501 243.012 58.345C242.786 58.3035 242.566 58.2418 242.351 58.1608C242.209 58.097 242.131 58.0616 242.138 58.0474C242.146 58.0333 242.458 58.1395 243.033 58.1962C243.85 58.2471 244.668 58.1139 245.426 57.8066C246.548 57.3181 247.625 56.7302 248.642 56.0497C249.27 55.6604 249.936 55.3353 250.63 55.0792C251.393 54.8018 252.208 54.6977 253.016 54.7746C254.023 54.8843 254.981 55.2644 255.789 55.8744C256.596 56.4844 257.223 57.3015 257.602 58.2387H257.325C257.813 57.573 258.511 57.0892 259.306 56.8644C259.911 56.6895 260.548 56.658 261.166 56.7723C261.558 56.8465 261.933 56.9905 262.274 57.1973C262.395 57.2567 262.508 57.333 262.608 57.424Z" fill="#455A64"/>
<path d="M253.257 81.8954C253.091 81.7571 252.898 81.6552 252.69 81.5966C252.482 81.538 252.264 81.524 252.05 81.5554C251.8 81.6086 251.564 81.7137 251.357 81.8638C251.151 82.0139 250.978 82.2057 250.85 82.4267C250.85 82.4267 250.815 82.4621 250.807 82.4834C250.71 82.6452 250.665 82.8334 250.68 83.0218C250.711 83.227 250.791 83.4215 250.915 83.5882C251.039 83.7549 251.202 83.8888 251.39 83.9781C251.69 84.1299 252.03 84.1855 252.363 84.1373C252.695 84.0891 253.005 83.9395 253.25 83.7089C253.482 83.4642 253.612 83.1405 253.613 82.8036C253.615 82.4667 253.487 82.1419 253.257 81.8954Z" fill="#D9B08C"/>
<path d="M253.612 84.0961C253.555 84.0961 253.491 83.8836 253.3 83.5931C253.069 83.2038 252.724 82.8944 252.311 82.7069C251.898 82.5194 251.438 82.4628 250.992 82.5447C250.644 82.5943 250.431 82.6935 250.41 82.6439C250.389 82.5943 250.552 82.4243 250.935 82.2897C251.437 82.1285 251.981 82.1588 252.462 82.3747C252.947 82.5902 253.331 82.9832 253.534 83.4727C253.683 83.8411 253.662 84.089 253.612 84.0961Z" fill="#263238"/>
<path d="M239.121 84.9725C239.121 84.9725 239.327 85.3267 239.057 85.8651C238.904 86.1873 238.636 86.4402 238.304 86.5735C238.098 86.6473 237.877 86.6723 237.659 86.6465C237.44 86.6207 237.231 86.5448 237.048 86.4247C236.861 86.3114 236.703 86.1565 236.586 85.9722C236.469 85.7879 236.396 85.5791 236.373 85.3621C236.352 85.0122 236.455 84.666 236.664 84.3845C237.033 83.917 237.445 83.9028 237.445 83.9453C237.445 83.9878 237.133 84.1082 236.884 84.5333C236.741 84.7714 236.681 85.0507 236.714 85.3267C236.741 85.4884 236.802 85.6424 236.894 85.7781C236.986 85.9139 237.106 86.0282 237.247 86.113C237.385 86.2015 237.541 86.2598 237.704 86.2842C237.866 86.3086 238.032 86.2986 238.191 86.2547C238.453 86.1611 238.679 85.9876 238.837 85.7588C239.114 85.3196 239.064 84.9725 239.121 84.9725Z" fill="#D9B08C"/>
<path d="M236.728 84.7014C236.764 84.7014 236.728 84.9422 236.395 85.0981C236.231 85.166 236.051 85.1858 235.876 85.1549C235.701 85.1241 235.539 85.044 235.408 84.924C235.277 84.8041 235.184 84.6494 235.138 84.4781C235.093 84.3068 235.098 84.1262 235.152 83.9575C235.222 83.766 235.354 83.6036 235.528 83.4971C235.819 83.32 236.04 83.3908 236.032 83.4333C236.025 83.4758 235.862 83.5254 235.685 83.7025C235.597 83.8114 235.544 83.9435 235.532 84.0824C235.519 84.2214 235.548 84.3608 235.615 84.4834C235.682 84.6059 235.783 84.7061 235.907 84.7713C236.03 84.8366 236.17 84.864 236.309 84.8501C236.551 84.8005 236.679 84.673 236.728 84.7014Z" fill="#D9B08C"/>
<path d="M244.531 147.612C244.531 147.612 262.111 148.632 272.505 148.724C280.549 148.802 284.142 146.669 285.747 141.505C287.096 137.177 284.199 128.867 284.199 128.867C278.753 128.867 275.395 129.646 271.895 131.283L272.825 135.08L244.481 137.517L244.531 147.612Z" fill="#FFBE9D"/>
<path d="M278.732 139.132C277.969 138.143 277.079 137.259 276.084 136.504C275.016 135.852 273.865 135.347 272.661 135.002C273.04 134.947 273.427 134.981 273.79 135.101C274.684 135.312 275.531 135.684 276.289 136.199C277.05 136.716 277.707 137.369 278.228 138.126C278.625 138.707 278.774 139.111 278.732 139.132Z" fill="#EB996E"/>
<path d="M238.099 131.253C238.099 131.253 232.66 132.556 228.663 135.22L232.923 146.739C234.343 150.522 238.681 152.406 242.153 150.422C247.499 147.369 249.387 138.472 249.387 138.472L255.259 113.054L245.525 106.969L238.134 131.253" fill="#FFBE9D"/>
<path d="M245.49 106.967L245.887 98.608L243.708 90.1071C243.587 89.6395 243.53 89.0516 243.913 88.7682C244.104 88.6227 244.338 88.5475 244.578 88.5552C244.817 88.563 245.047 88.6533 245.227 88.8107C245.816 89.4199 248.656 96.8511 248.656 96.8511C248.656 96.8511 252.966 94.2725 253.733 94.145C254.5 94.0175 255.458 96.334 255.522 96.5111C255.55 97.0302 255.55 97.5505 255.522 98.0696C255.522 98.0696 258.184 98.1475 258.426 98.5088C258.619 99.2469 258.722 100.006 258.731 100.769C258.731 100.769 259.86 101.13 260.038 101.98C260.215 102.83 260.584 104.233 260.038 104.544C259.491 104.856 258.383 105.465 258.383 105.465C258.383 105.465 257.936 109.801 257.815 110.198C257.695 110.594 255.202 113.031 255.202 113.031L245.49 106.967Z" fill="#FFBE9D"/>
<path d="M236.43 150.594C236.43 150.594 236.693 150.75 237.246 150.927C238.056 151.18 238.913 151.248 239.753 151.125C241.102 150.933 242.365 150.352 243.388 149.453C244.739 148.23 245.881 146.794 246.768 145.203C247.29 144.268 247.729 143.289 248.081 142.277C248.45 141.164 248.756 140.031 248.997 138.884C249.551 136.497 250.154 133.925 250.793 131.191C252.071 125.729 253.506 119.622 255.053 113.041V112.992H255.089C255.579 112.51 256.069 112.021 256.559 111.511C256.8 111.256 257.041 111.001 257.269 110.739C257.382 110.604 257.503 110.47 257.595 110.335C257.667 110.202 257.708 110.054 257.716 109.903C257.908 108.486 258.057 107.02 258.213 105.539V105.447L258.298 105.405L259.654 104.647C259.753 104.583 259.91 104.512 259.974 104.455C260.041 104.394 260.087 104.312 260.101 104.222C260.134 103.987 260.134 103.748 260.101 103.513C260.033 102.994 259.926 102.48 259.782 101.976C259.54 101.535 259.135 101.207 258.653 101.062L258.532 101.02V100.899C258.532 100.488 258.49 100.063 258.44 99.6453C258.421 99.436 258.39 99.2279 258.348 99.0219C258.331 98.9312 258.302 98.843 258.262 98.7598C258.262 98.7102 258.263 98.7598 258.22 98.7173C258.181 98.6971 258.141 98.6805 258.099 98.6677C257.245 98.4821 256.374 98.3847 255.501 98.3773H255.316V98.1931C255.316 97.7539 255.316 97.2651 255.316 96.7763C255.287 96.6095 255.229 96.449 255.146 96.3016C255.075 96.1316 254.989 95.9687 254.904 95.7987C254.738 95.4705 254.543 95.1576 254.322 94.8636C254.222 94.7265 254.099 94.6069 253.96 94.5094C253.908 94.4659 253.845 94.4387 253.778 94.4312C253.711 94.4236 253.644 94.436 253.584 94.4669C253.24 94.5981 252.906 94.752 252.582 94.9273C251.262 95.6357 249.97 96.3441 248.706 97.1092L248.521 97.2226L248.443 97.0242C247.776 95.3453 247.108 93.6876 246.455 92.0653C246.129 91.2507 245.809 90.436 245.483 89.6355C245.432 89.4562 245.332 89.2946 245.194 89.1693C245.056 89.0441 244.885 88.9601 244.701 88.9271C244.532 88.8709 244.348 88.874 244.18 88.9358C244.013 88.9975 243.871 89.1144 243.779 89.2671C243.69 89.4191 243.653 89.5954 243.672 89.7701C243.672 89.926 243.771 90.1668 243.814 90.3581C243.928 90.769 244.034 91.1728 244.141 91.5765C244.354 92.3912 244.56 93.1917 244.773 93.9851C245.189 95.5814 245.598 97.1399 246.001 98.6606V98.7102C245.859 101.619 245.724 104.406 245.596 107.069V107.055L239.128 128.052L237.303 133.897C237.09 134.556 236.927 135.073 236.813 135.434C236.7 135.795 236.629 135.951 236.629 135.951C236.629 135.951 236.664 135.767 236.764 135.42L237.211 133.869C237.623 132.501 238.212 130.525 238.958 128.003C240.491 122.931 242.671 115.691 245.305 106.963V106.999C245.428 104.344 245.553 101.558 245.681 98.6394V98.689C245.277 97.1659 244.858 95.6074 244.439 94.0206L243.8 91.612C243.693 91.2082 243.587 90.7973 243.473 90.3935C243.412 90.1814 243.362 89.9662 243.324 89.7489C243.298 89.503 243.35 89.2551 243.473 89.0404C243.605 88.8195 243.807 88.6496 244.048 88.5587C244.287 88.4892 244.539 88.4813 244.781 88.5358C245.023 88.5903 245.248 88.7055 245.433 88.8704C245.611 89.0372 245.743 89.2471 245.816 89.4797L246.789 91.9095C247.449 93.5388 248.109 95.1965 248.784 96.8684L248.521 96.7763C249.792 96.0254 251.07 95.2744 252.419 94.5731C252.76 94.3953 253.111 94.2368 253.47 94.0985C253.582 94.0519 253.704 94.0349 253.825 94.0489C253.946 94.0664 254.063 94.1099 254.166 94.1764C254.337 94.2988 254.488 94.447 254.613 94.6156C254.85 94.9256 255.057 95.2577 255.231 95.6074C255.323 95.7845 255.408 95.9545 255.486 96.1316C255.587 96.3192 255.655 96.523 255.685 96.7338C255.685 97.2367 255.685 97.7043 255.685 98.1506L255.508 97.9593C256.42 97.9654 257.33 98.0699 258.22 98.271C258.281 98.2923 258.34 98.3184 258.397 98.3489C258.475 98.3913 258.54 98.4553 258.582 98.5331C258.637 98.6481 258.678 98.7694 258.703 98.8944C258.745 99.1211 258.774 99.3336 258.802 99.5532C258.845 99.9854 258.873 100.41 258.894 100.835L258.767 100.665C259.057 100.75 259.327 100.893 259.56 101.086C259.793 101.278 259.985 101.516 260.123 101.785C260.278 102.323 260.392 102.872 260.464 103.428C260.513 103.712 260.513 104.002 260.464 104.285C260.433 104.457 260.342 104.613 260.208 104.725C260.091 104.802 259.971 104.873 259.846 104.937L258.497 105.638L258.589 105.504C258.426 106.984 258.277 108.437 258.078 109.875L258.035 110.151C258.019 110.263 257.972 110.368 257.9 110.456C257.796 110.611 257.68 110.758 257.552 110.895C257.311 111.164 257.07 111.426 256.842 111.681C256.353 112.191 255.863 112.68 255.366 113.162L255.415 113.077C253.853 119.651 252.405 125.757 251.106 131.219C250.46 133.946 249.842 136.518 249.274 138.898C249.031 140.054 248.718 141.195 248.337 142.313C247.971 143.334 247.52 144.322 246.988 145.267C246.081 146.879 244.912 148.329 243.53 149.56C242.477 150.464 241.181 151.041 239.803 151.217C238.945 151.332 238.072 151.245 237.254 150.962C237.046 150.886 236.844 150.794 236.65 150.686L236.43 150.594Z" fill="#EB996E"/>
<path d="M255.529 98.0887C255.529 98.1383 255.288 98.1666 254.911 98.1808C254.433 98.1899 253.958 98.2468 253.491 98.3508C253.041 98.4612 252.626 98.6829 252.284 98.9955C252.029 99.2363 251.915 99.4418 251.858 99.4205C251.802 99.3993 251.858 99.1442 252.093 98.8184C252.423 98.4059 252.883 98.1164 253.399 97.9966C253.896 97.8744 254.412 97.8503 254.918 97.9258C255.302 97.9754 255.529 98.0391 255.529 98.0887Z" fill="#EB996E"/>
<path d="M253.47 98.1674C253.378 98.132 253.371 97.9124 253.47 97.6786C253.569 97.4449 253.711 97.2819 253.804 97.3173C253.896 97.3528 253.91 97.5724 253.804 97.8061C253.697 98.0399 253.541 98.2029 253.47 98.1674Z" fill="#EB996E"/>
<path d="M258.852 100.739C258.163 100.952 257.443 101.05 256.722 101.029C256.495 101.022 256.269 101.069 256.064 101.166C255.859 101.263 255.68 101.408 255.543 101.589C255.359 101.879 255.423 102.12 255.366 102.134C255.309 102.149 255.139 101.901 255.316 101.476C255.414 101.236 255.592 101.038 255.82 100.916C256.083 100.772 256.373 100.685 256.672 100.661C257.397 100.55 258.137 100.577 258.852 100.739Z" fill="#EB996E"/>
<path d="M258.383 103.289C258.483 103.289 258.539 103.813 258.511 104.458C258.483 105.103 258.376 105.613 258.277 105.613C258.177 105.613 258.113 105.081 258.142 104.437C258.17 103.792 258.277 103.282 258.383 103.289Z" fill="#EB996E"/>
<path d="M261.33 122.373L261.962 120.205C261.991 120.106 262.045 120.016 262.119 119.944C262.194 119.872 262.285 119.82 262.386 119.795C262.486 119.769 262.591 119.77 262.691 119.797C262.791 119.824 262.882 119.877 262.956 119.95L263.786 120.793L264.297 118.746C264.328 118.627 264.393 118.521 264.486 118.441C264.579 118.362 264.693 118.312 264.815 118.3C264.937 118.288 265.059 118.313 265.166 118.372C265.273 118.432 265.359 118.522 265.412 118.632L266.57 121.055L261.33 122.373Z" fill="white"/>
<path d="M266.584 121.984C265.789 122.367 264.946 122.639 264.077 122.792C263.237 123.066 262.362 123.218 261.479 123.245C263.113 122.59 264.832 122.166 266.584 121.984Z" fill="white"/>
<path d="M224.36 109.891C224.36 109.891 224.097 110.16 223.728 110.734C223.232 111.551 222.906 112.459 222.77 113.404C222.567 114.812 222.524 116.238 222.642 117.655C222.72 119.263 222.848 121.02 223.046 122.862C223.383 126.007 223.883 129.133 224.545 132.227C224.793 133.417 225.02 134.352 225.176 135.06C225.247 135.358 225.311 135.606 225.361 135.818C225.411 136.031 225.418 136.088 225.418 136.088C225.418 136.088 225.382 136.003 225.333 135.833C225.283 135.663 225.205 135.365 225.127 135.075C224.949 134.416 224.708 133.466 224.417 132.276C223.727 129.184 223.212 126.055 222.876 122.904C222.677 121.062 222.557 119.298 222.486 117.69C222.378 116.272 222.43 114.846 222.642 113.44C222.794 112.482 223.142 111.566 223.664 110.748C223.856 110.432 224.09 110.144 224.36 109.891Z" fill="white"/>
<path d="M239.305 100.236L239.142 100.321L238.674 100.547C238.269 100.739 237.68 101.022 236.977 101.412C235.144 102.431 233.365 103.543 231.645 104.741C229.614 106.158 227.818 107.447 226.504 108.382L224.949 109.48L224.516 109.771C224.468 109.809 224.415 109.843 224.36 109.87C224.4 109.822 224.448 109.782 224.502 109.75L224.914 109.438L226.44 108.297C227.74 107.341 229.529 106.009 231.559 104.621C233.283 103.417 235.075 102.315 236.927 101.32C237.637 100.944 238.233 100.675 238.652 100.498L239.128 100.299C239.27 100.25 239.27 100.229 239.305 100.236Z" fill="white"/>
<path d="M273.165 104.853C273.121 104.828 273.08 104.797 273.045 104.761L272.725 104.485C272.33 104.151 271.915 103.842 271.483 103.557C270.041 102.64 268.512 101.869 266.917 101.254C265.328 100.626 263.704 100.087 262.054 99.6392C261.415 99.4621 260.904 99.3346 260.542 99.2496L260.137 99.1433C260.088 99.1332 260.04 99.1165 259.995 99.0938H260.144L260.556 99.1717C260.918 99.2425 261.436 99.3559 262.075 99.5188C263.741 99.9384 265.377 100.466 266.974 101.099C268.578 101.713 270.109 102.501 271.54 103.45C272.135 103.853 272.681 104.323 273.165 104.853Z" fill="white"/>
<path d="M239.504 158.923C239.408 158.906 239.315 158.875 239.227 158.831C238.981 158.723 238.743 158.595 238.517 158.448C238.135 158.22 237.801 157.918 237.536 157.561C237.27 157.203 237.078 156.797 236.97 156.366C236.775 155.495 236.872 154.584 237.246 153.773C237.355 153.521 237.493 153.283 237.658 153.065C237.772 152.916 237.85 152.845 237.857 152.852C237.663 153.154 237.49 153.469 237.339 153.794C237.009 154.59 236.932 155.468 237.119 156.309C237.322 157.139 237.828 157.864 238.539 158.342C239.128 158.767 239.518 158.895 239.504 158.923Z" fill="white"/>
<path d="M237.246 151.25C237.398 151.531 237.51 151.831 237.58 152.143C237.691 152.441 237.758 152.753 237.779 153.071C237.618 152.796 237.503 152.497 237.438 152.185C237.322 151.886 237.257 151.57 237.246 151.25Z" fill="white"/>
<path d="M246.846 310.081L268.501 309.974L268.11 235.273L267.904 159.282L238.56 158.906L233.285 168.824C231.126 172.811 229.75 177.173 229.231 181.674C228.876 185.117 231.46 196.31 232.355 199.144L240.427 224.689L246.846 310.081Z" fill="#263238"/>
<path d="M274.259 159.377L298.058 224.104C299.468 228.275 299.936 232.705 299.429 237.077C298.922 241.449 297.453 245.655 295.126 249.394L267.492 303.233L251.958 283.837L275.075 235.665L254.698 202.689L258.128 159.476L267.727 159.32L274.259 159.377Z" fill="#263238"/>
<path d="M265.93 181.062C265.93 181.062 265.93 181.176 265.93 181.395C265.93 181.615 265.966 181.955 265.994 182.373C266.044 183.244 266.108 184.498 266.193 186.121C266.357 189.4 266.584 194.111 266.903 199.927C267.223 205.743 267.493 212.679 267.848 220.4C268.018 224.254 268.203 228.299 268.387 232.493C268.522 234.618 268.465 236.743 268.487 238.869C268.508 240.994 268.487 243.232 268.487 245.457C268.487 263.259 268.543 279.375 268.565 291.057C268.565 296.88 268.565 301.598 268.565 304.878C268.565 306.5 268.565 307.761 268.565 308.64C268.565 309.051 268.565 309.348 268.565 309.617C268.565 309.887 268.565 309.95 268.565 309.95C268.565 309.95 268.565 309.837 268.565 309.617V308.64C268.565 307.761 268.565 306.514 268.522 304.878C268.522 301.598 268.465 296.887 268.423 291.064C268.373 279.382 268.309 263.266 268.238 245.464C268.238 243.239 268.238 241.043 268.238 238.876C268.238 236.708 268.281 234.569 268.146 232.5C267.968 228.313 267.791 224.268 267.627 220.415C267.301 212.707 267.003 205.772 266.761 199.934C266.52 194.097 266.342 189.408 266.207 186.128C266.151 184.512 266.108 183.251 266.08 182.373C266.08 181.955 266.08 181.665 266.08 181.395C266.08 181.126 265.93 181.062 265.93 181.062Z" fill="#455A64"/>
<path d="M265.384 160.648C265.467 160.876 265.517 161.115 265.533 161.357C265.611 161.81 265.696 162.469 265.796 163.291C265.98 164.927 266.179 167.201 266.293 169.716C266.406 172.231 266.413 174.512 266.378 176.163C266.378 176.984 266.328 177.657 266.293 178.118C266.3 178.357 266.271 178.596 266.207 178.826C266.118 177.941 266.087 177.052 266.115 176.163C266.115 174.512 266.037 172.245 265.923 169.73C265.81 167.215 265.654 164.956 265.533 163.355C265.432 162.456 265.382 161.553 265.384 160.648Z" fill="#455A64"/>
<path d="M260.613 162.113C260.648 162.162 260.243 162.347 260.13 162.92C260.098 163.076 260.107 163.237 260.155 163.389C260.204 163.54 260.29 163.676 260.407 163.785C260.547 163.915 260.722 164.002 260.911 164.036C261.1 164.07 261.294 164.049 261.472 163.976C261.642 163.888 261.784 163.755 261.882 163.591C261.98 163.427 262.029 163.239 262.025 163.048C262.019 162.889 261.972 162.735 261.889 162.6C261.805 162.465 261.689 162.353 261.55 162.276C261.261 162.136 260.939 162.08 260.62 162.113C260.62 162.113 260.691 162.021 260.875 161.964C261.142 161.899 261.422 161.927 261.67 162.042C261.869 162.124 262.04 162.26 262.166 162.434C262.291 162.608 262.365 162.813 262.38 163.027C262.409 163.29 262.353 163.556 262.222 163.787C262.091 164.018 261.89 164.201 261.649 164.313C261.407 164.424 261.137 164.456 260.876 164.406C260.615 164.356 260.376 164.225 260.194 164.033C260.043 163.883 259.936 163.695 259.884 163.489C259.833 163.283 259.839 163.067 259.903 162.864C259.974 162.599 260.134 162.366 260.357 162.205C260.499 162.106 260.605 162.092 260.613 162.113Z" fill="#455A64"/>
<path d="M249.253 160.828C249.357 161.051 249.422 161.291 249.444 161.537C249.559 162.172 249.58 162.821 249.508 163.463C249.406 164.419 249.129 165.349 248.692 166.205C248.163 167.27 247.38 168.19 246.412 168.883C245.444 169.576 244.32 170.021 243.14 170.179C242.194 170.32 241.231 170.284 240.3 170.073C239.669 169.936 239.062 169.71 238.496 169.4C238.282 169.299 238.086 169.165 237.914 169.003C238.699 169.355 239.517 169.628 240.356 169.818C241.366 170.027 242.409 170.026 243.418 169.813C244.427 169.6 245.381 169.181 246.219 168.582C247.058 167.983 247.763 167.217 248.29 166.332C248.817 165.448 249.154 164.463 249.281 163.442C249.364 162.572 249.355 161.696 249.253 160.828Z" fill="#455A64"/>
<path d="M277.113 167.036C276.65 167.089 276.18 167.033 275.743 166.873C274.67 166.536 273.707 165.92 272.952 165.088C272.191 164.259 271.668 163.241 271.44 162.141C271.328 161.692 271.328 161.222 271.44 160.773C271.504 160.773 271.511 161.291 271.724 162.084C272.012 163.109 272.535 164.053 273.252 164.842C273.97 165.63 274.861 166.24 275.856 166.625C276.595 166.915 277.12 166.965 277.113 167.036Z" fill="#455A64"/>
<path d="M285.569 236.813C285.213 237.218 284.788 237.557 284.312 237.812C283.814 238.128 283.271 238.367 282.701 238.521C281.984 238.71 281.227 238.691 280.521 238.464C279.281 237.997 278.218 237.155 277.482 236.055C277.144 235.642 276.865 235.185 276.651 234.695C277.035 235.06 277.382 235.461 277.688 235.893C278.442 236.89 279.46 237.658 280.628 238.11C281.223 238.269 281.846 238.305 282.456 238.216C283.066 238.127 283.652 237.915 284.178 237.593C284.626 237.307 285.091 237.046 285.569 236.813Z" fill="#455A64"/>
<path d="M280.145 240.943C279.306 240.076 278.556 239.127 277.908 238.109C277.162 237.162 276.51 236.144 275.963 235.07C276.808 235.934 277.56 236.884 278.206 237.904C278.959 238.845 279.609 239.864 280.145 240.943Z" fill="#455A64"/>
<path d="M243.764 183.567C243.665 183.602 243.416 183.199 243.196 182.653C242.976 182.108 242.884 181.647 242.976 181.605C243.068 181.562 243.324 181.973 243.537 182.518C243.75 183.064 243.857 183.567 243.764 183.567Z" fill="#FAFAFA"/>
<path d="M257.51 185.534C257.403 185.534 257.325 185.187 257.325 184.755C257.325 184.323 257.403 183.969 257.51 183.969C257.616 183.969 257.695 184.323 257.695 184.755C257.695 185.187 257.609 185.534 257.51 185.534Z" fill="#FAFAFA"/>
<path d="M251.858 192.978C251.759 192.978 251.645 192.553 251.61 192.007C251.574 191.462 251.61 191.023 251.723 191.016C251.837 191.009 251.943 191.441 251.979 191.986C252.014 192.532 251.958 192.971 251.858 192.978Z" fill="#FAFAFA"/>
<path d="M241.535 198.437C241.45 198.501 241.159 198.239 240.775 197.97C240.392 197.701 240.065 197.495 240.065 197.396C240.065 197.297 240.534 197.354 240.967 197.665C241.4 197.977 241.62 198.437 241.535 198.437Z" fill="#FAFAFA"/>
<path d="M259.732 205.386C259.647 205.33 259.732 205.025 259.974 204.678C260.215 204.331 260.435 204.133 260.52 204.189C260.605 204.246 260.52 204.558 260.279 204.898C260.037 205.238 259.817 205.443 259.732 205.386Z" fill="#FAFAFA"/>
<path d="M248.5 207.348C248.401 207.348 248.315 206.76 248.315 206.045C248.315 205.329 248.401 204.734 248.5 204.734C248.599 204.734 248.685 205.322 248.685 206.045C248.685 206.767 248.578 207.348 248.5 207.348Z" fill="#FAFAFA"/>
<path d="M244.822 215.297C244.765 215.375 244.396 215.212 243.999 214.921C243.601 214.631 243.289 214.333 243.381 214.248C243.473 214.163 243.814 214.333 244.212 214.624C244.609 214.914 244.886 215.212 244.822 215.297Z" fill="#FAFAFA"/>
<path d="M256.196 218.058C256.239 218.15 256.012 218.342 255.685 218.491C255.359 218.639 255.06 218.675 255.018 218.583C254.975 218.491 255.209 218.299 255.536 218.15C255.863 218.002 256.161 217.966 256.196 218.058Z" fill="#FAFAFA"/>
<path d="M248.5 231.023C248.415 231.066 248.046 230.52 247.684 229.798C247.321 229.075 247.101 228.452 247.194 228.381C247.286 228.31 247.655 228.884 248.01 229.606C248.365 230.329 248.564 230.945 248.5 231.023Z" fill="#FAFAFA"/>
<path d="M261.046 229.826C260.953 229.776 261.117 229.302 261.401 228.756C261.685 228.211 262.004 227.814 262.111 227.864C262.217 227.913 262.04 228.388 261.749 228.933C261.458 229.479 261.131 229.875 261.046 229.826Z" fill="#FAFAFA"/>
<path d="M255.543 240.795C255.437 240.795 255.451 240.221 255.337 239.555C255.224 238.889 255.053 238.358 255.153 238.308C255.252 238.258 255.593 238.761 255.707 239.498C255.82 240.235 255.643 240.816 255.543 240.795Z" fill="#FAFAFA"/>
<path d="M249.65 247.067C249.579 247.137 249.224 246.868 248.862 246.472C248.5 246.075 248.266 245.699 248.344 245.629C248.422 245.558 248.77 245.827 249.132 246.224C249.494 246.62 249.728 246.996 249.65 247.067Z" fill="#FAFAFA"/>
<path d="M263.95 249.44C263.879 249.369 264.141 248.987 264.539 248.583C264.936 248.179 265.306 247.917 265.384 247.988C265.462 248.059 265.192 248.449 264.802 248.845C264.411 249.242 264.028 249.511 263.95 249.44Z" fill="#FAFAFA"/>
<path d="M255.728 258.828C255.628 258.828 255.628 258.268 255.728 257.617C255.827 256.965 255.983 256.455 256.09 256.469C256.196 256.483 256.189 257.022 256.09 257.673C255.99 258.325 255.827 258.842 255.728 258.828Z" fill="#FAFAFA"/>
<path d="M250.197 263.388C250.105 263.437 249.792 263.069 249.487 262.566C249.182 262.063 249.025 261.617 249.111 261.567C249.196 261.517 249.508 261.879 249.821 262.382C250.133 262.885 250.282 263.331 250.197 263.388Z" fill="#FAFAFA"/>
<path d="M263.524 269.133C263.588 269.218 263.225 269.579 262.714 269.94C262.203 270.302 261.756 270.528 261.692 270.443C261.628 270.358 261.997 269.997 262.501 269.636C263.005 269.275 263.467 269.055 263.524 269.133Z" fill="#FAFAFA"/>
<path d="M252.419 276.591C252.32 276.555 252.419 275.989 252.511 275.28C252.604 274.572 252.547 273.991 252.653 273.977C252.76 273.963 252.945 274.558 252.874 275.316C252.803 276.074 252.511 276.633 252.419 276.591Z" fill="#FAFAFA"/>
<path d="M256.857 287.297C256.772 287.361 256.473 287.12 256.182 286.759C255.891 286.398 255.728 286.051 255.806 285.987C255.884 285.923 256.182 286.164 256.473 286.525C256.764 286.886 256.935 287.234 256.857 287.297Z" fill="#FAFAFA"/>
<path d="M252.007 294.486C251.922 294.542 251.532 294.124 251.134 293.543C250.736 292.962 250.488 292.452 250.566 292.396C250.644 292.339 251.042 292.757 251.439 293.338C251.837 293.919 252.093 294.429 252.007 294.486Z" fill="#FAFAFA"/>
<path d="M265.363 285.467C265.27 285.432 265.277 285.17 265.363 284.886C265.448 284.603 265.639 284.39 265.739 284.426C265.838 284.461 265.824 284.723 265.739 285.014C265.654 285.304 265.462 285.51 265.363 285.467Z" fill="#FAFAFA"/>
<path d="M259.47 302.579C259.377 302.529 259.555 302.026 259.697 301.395C259.839 300.765 259.888 300.234 259.995 300.227C260.101 300.22 260.208 300.793 260.059 301.473C259.91 302.154 259.555 302.635 259.47 302.579Z" fill="#FAFAFA"/>
<path d="M263.304 193.099C263.211 193.142 262.984 192.858 262.799 192.462C262.615 192.065 262.537 191.711 262.629 191.668C262.721 191.626 262.948 191.909 263.133 192.306C263.318 192.703 263.41 193.057 263.304 193.099Z" fill="#FAFAFA"/>
<path d="M253.47 171.039C253.527 171.124 253.03 171.521 252.497 172.088C251.965 172.655 251.603 173.179 251.51 173.129C251.418 173.08 251.66 172.421 252.22 171.84C252.781 171.259 253.399 170.947 253.47 171.039Z" fill="#FAFAFA"/>
<path d="M262.224 170.806C262.118 170.806 261.955 170.402 261.706 169.92C261.458 169.438 261.23 169.042 261.308 168.971C261.387 168.9 261.77 169.212 262.018 169.75C262.267 170.289 262.317 170.749 262.224 170.806Z" fill="#FAFAFA"/>
<path d="M234.889 177.973C234.797 177.931 234.889 177.463 235.109 176.925C235.33 176.386 235.571 175.968 235.67 176.011C235.77 176.053 235.67 176.514 235.45 177.059C235.23 177.605 235.01 178.009 234.889 177.973Z" fill="#FAFAFA"/>
<path d="M235.777 188.673C235.706 188.75 235.301 188.524 234.868 188.162C234.435 187.801 234.158 187.454 234.201 187.369C234.243 187.284 234.676 187.518 235.109 187.879C235.543 188.24 235.841 188.595 235.777 188.673Z" fill="#FAFAFA"/>
<path d="M253.711 162.546C253.619 162.546 253.42 162.32 253.278 161.958C253.136 161.597 253.094 161.25 253.186 161.25C253.278 161.25 253.477 161.477 253.619 161.838C253.761 162.199 253.804 162.511 253.711 162.546Z" fill="#FAFAFA"/>
<path d="M270.886 167.774C270.787 167.774 270.794 167.328 270.886 166.825C270.979 166.322 271.163 165.925 271.263 165.946C271.362 165.967 271.355 166.4 271.263 166.902C271.17 167.405 270.986 167.795 270.886 167.774Z" fill="#FAFAFA"/>
<path d="M274.919 175.867C274.827 175.824 274.955 175.3 275.21 174.684C275.466 174.068 275.743 173.607 275.835 173.643C275.927 173.678 275.835 174.209 275.551 174.826C275.267 175.442 275.018 175.902 274.919 175.867Z" fill="#FAFAFA"/>
<path d="M272.044 182.401C271.951 182.444 271.61 181.955 271.284 181.31C270.957 180.666 270.773 180.092 270.865 180.049C270.957 180.007 271.291 180.496 271.618 181.14C271.944 181.785 272.136 182.352 272.044 182.401Z" fill="#FAFAFA"/>
<path d="M278.192 188.929C278.1 188.894 278.192 188.483 278.348 188.015C278.505 187.548 278.753 187.194 278.853 187.229C278.952 187.264 278.853 187.675 278.696 188.143C278.54 188.61 278.32 188.965 278.192 188.929Z" fill="#FAFAFA"/>
<path d="M272.697 195.333C272.612 195.389 272.391 195.198 272.214 194.915C272.036 194.631 271.951 194.348 272.044 194.291C272.136 194.235 272.342 194.426 272.526 194.716C272.711 195.007 272.782 195.283 272.697 195.333Z" fill="#FAFAFA"/>
<path d="M273.868 208.531C273.797 208.595 273.35 208.248 272.881 207.738C272.413 207.228 272.093 206.767 272.171 206.697C272.25 206.626 272.69 206.98 273.158 207.49C273.627 208 273.946 208.46 273.868 208.531Z" fill="#FAFAFA"/>
<path d="M281.075 200.944C280.997 201.008 280.606 200.654 280.209 200.144C279.811 199.634 279.555 199.18 279.633 199.117C279.712 199.053 280.102 199.414 280.5 199.917C280.897 200.42 281.16 200.888 281.075 200.944Z" fill="#FAFAFA"/>
<path d="M285.03 211.408C284.937 211.365 285.1 210.834 285.392 210.224C285.683 209.615 285.988 209.148 286.102 209.19C286.215 209.233 286.038 209.771 285.747 210.38C285.455 210.99 285.122 211.457 285.03 211.408Z" fill="#FAFAFA"/>
<path d="M276.623 220.023C276.531 220.073 276.204 219.683 275.75 219.265C275.295 218.847 274.876 218.557 274.919 218.451C274.962 218.344 275.501 218.536 275.998 218.996C276.495 219.456 276.708 219.974 276.623 220.023Z" fill="#FAFAFA"/>
<path d="M277.149 228.896C277.149 228.995 276.793 229.08 276.36 229.08C275.927 229.08 275.579 228.995 275.579 228.896C275.579 228.796 275.927 228.711 276.36 228.711C276.793 228.711 277.149 228.796 277.149 228.896Z" fill="#FAFAFA"/>
<path d="M285.789 226.418C285.697 226.368 285.881 225.922 286.016 225.37C286.151 224.817 286.208 224.335 286.315 224.328C286.421 224.321 286.535 224.838 286.378 225.455C286.222 226.071 285.867 226.475 285.789 226.418Z" fill="#FAFAFA"/>
<path d="M294.373 229.401C294.281 229.437 294.018 228.934 293.791 228.289C293.564 227.645 293.457 227.092 293.55 227.064C293.642 227.035 293.912 227.524 294.139 228.169C294.366 228.813 294.472 229.366 294.373 229.401Z" fill="#FAFAFA"/>
<path d="M293.003 241.584C292.918 241.534 293.138 240.939 293.493 240.252C293.848 239.565 294.203 239.047 294.309 239.097C294.416 239.147 294.181 239.742 293.819 240.422C293.457 241.102 293.095 241.647 293.003 241.584Z" fill="#FAFAFA"/>
<path d="M285.171 248.739C285.079 248.774 284.788 248.285 284.518 247.641C284.249 246.996 284.114 246.443 284.213 246.401C284.312 246.358 284.596 246.854 284.859 247.499C285.122 248.144 285.264 248.739 285.171 248.739Z" fill="#FAFAFA"/>
<path d="M276.495 251.505C276.495 251.604 276.197 251.69 275.835 251.69C275.473 251.69 275.182 251.604 275.182 251.505C275.182 251.406 275.48 251.32 275.835 251.32C276.19 251.32 276.495 251.406 276.495 251.505Z" fill="#FAFAFA"/>
<path d="M281.465 262.901C281.373 262.901 281.174 262.512 281.025 261.973C280.876 261.435 280.848 260.967 280.947 260.946C281.046 260.925 281.238 261.336 281.387 261.874C281.536 262.413 281.565 262.845 281.465 262.901Z" fill="#FAFAFA"/>
<path d="M275.182 259.075C275.097 259.026 275.182 258.693 275.416 258.332C275.65 257.97 275.885 257.722 275.97 257.772C276.055 257.822 275.97 258.162 275.736 258.523C275.501 258.884 275.274 259.132 275.182 259.075Z" fill="#FAFAFA"/>
<path d="M275.054 271.623C274.955 271.623 274.813 271.148 274.742 270.532C274.671 269.916 274.692 269.413 274.791 269.399C274.891 269.385 275.033 269.873 275.104 270.49C275.175 271.106 275.153 271.609 275.054 271.623Z" fill="#FAFAFA"/>
</svg>
