<svg width="380" height="384" viewBox="0 0 380 384" fill="none" xmlns="http://www.w3.org/2000/svg">
<path d="M213.267 227.816C180.804 228.277 132.804 253.091 112.82 221.872C96.0627 195.699 115.416 170.063 84.4044 150.724C61.8483 136.624 25.184 111.91 59.2294 86.3046C85.856 66.2752 127.459 60.7149 159.707 65.2768C185.051 68.8864 237.682 83.9085 244.049 110.481C251.206 140.349 204.804 165.009 254.417 176.26C284.269 183.027 320.273 200.353 299.176 236.08C290.858 250.173 278.993 247.723 266.42 242.17C247.904 233.999 235.616 227.501 213.267 227.816Z" fill="#D9B08C"/>
<path opacity="0.9" d="M213.267 227.816C180.804 228.277 132.804 253.091 112.82 221.872C96.0627 195.699 115.416 170.063 84.4044 150.724C61.8483 136.624 25.184 111.91 59.2294 86.3046C85.856 66.2752 127.459 60.7149 159.707 65.2768C185.051 68.8864 237.682 83.9085 244.049 110.481C251.206 140.349 204.804 165.009 254.417 176.26C284.269 183.027 320.273 200.353 299.176 236.08C290.858 250.173 278.993 247.723 266.42 242.17C247.904 233.999 235.616 227.501 213.267 227.816Z" fill="white"/>
<path d="M188 328.372C270.239 328.372 336.907 324.48 336.907 319.678C336.907 314.877 270.239 310.984 188 310.984C105.76 310.984 39.0923 314.877 39.0923 319.678C39.0923 324.48 105.76 328.372 188 328.372Z" fill="#F5F5F5"/>
<path d="M317.991 192.836H57.0635V202.198H317.991V192.836Z" fill="#D9B08C"/>
<path opacity="0.3" d="M126.898 192.836H57.0635V202.198H126.898V192.836Z" fill="white"/>
<path d="M128.011 202.195H121.937L125.116 319.53H128.011H130.907L134.094 202.195H128.011Z" fill="#D9B08C"/>
<path opacity="0.3" d="M125.116 319.535H128.011V204.719L122.036 205.809L125.116 319.535Z" fill="white"/>
<path d="M70.4343 202.195H64.3594L67.5389 319.53H70.4343H73.3296L76.5091 202.195H70.4343Z" fill="#D9B08C"/>
<path opacity="0.3" d="M67.539 319.535H70.4344V204.719L64.4517 205.809L67.539 319.535Z" fill="white"/>
<path d="M304.621 202.195H298.546L301.725 319.53H304.621H307.516L310.703 202.195H304.621Z" fill="#D9B08C"/>
<path opacity="0.3" d="M301.725 319.535H304.621V204.719L298.646 205.809L301.725 319.535Z" fill="white"/>
<path d="M247.044 202.195H240.969L244.148 319.53H247.044H249.939L253.119 202.195H247.044Z" fill="#D9B08C"/>
<path opacity="0.3" d="M244.149 319.535H247.044V204.719L241.069 205.809L244.149 319.535Z" fill="white"/>
<path d="M180.919 142.713H118.88C118.376 142.694 117.875 142.793 117.418 143.004C116.96 143.214 116.559 143.53 116.246 143.926C115.934 144.321 115.72 144.785 115.621 145.279C115.522 145.773 115.541 146.283 115.677 146.768L123.941 186.205C124.207 187.321 124.829 188.319 125.713 189.049C126.597 189.78 127.695 190.202 128.841 190.253H190.926C191.429 190.272 191.929 190.173 192.386 189.963C192.843 189.752 193.243 189.437 193.555 189.043C193.868 188.648 194.082 188.186 194.182 187.693C194.281 187.2 194.263 186.69 194.128 186.205L185.857 146.768C185.591 145.645 184.964 144.641 184.072 143.908C183.18 143.176 182.072 142.756 180.919 142.713Z" fill="#263238"/>
<path d="M129.379 188.003C128.605 187.951 127.867 187.656 127.271 187.159C126.675 186.662 126.252 185.99 126.061 185.238L117.797 145.802C117.726 145.541 117.715 145.267 117.764 145.001C117.814 144.735 117.922 144.484 118.081 144.266C118.247 144.079 118.452 143.931 118.682 143.834C118.912 143.737 119.161 143.693 119.41 143.705H181.495C182.269 143.757 183.007 144.053 183.602 144.549C184.198 145.046 184.622 145.718 184.813 146.47L193.077 185.907C193.147 186.168 193.158 186.441 193.109 186.707C193.06 186.973 192.952 187.224 192.792 187.443C192.628 187.631 192.423 187.779 192.193 187.876C191.963 187.974 191.713 188.017 191.464 188.003H129.379Z" fill="white"/>
<path opacity="0.4" d="M176.219 184.847L168.385 147.453C168.341 147.231 168.346 147.003 168.401 146.784C168.455 146.565 168.557 146.36 168.699 146.185C168.841 146.01 169.02 145.868 169.224 145.77C169.427 145.672 169.649 145.62 169.875 145.617H179.951C180.3 145.62 180.638 145.742 180.909 145.962C181.18 146.183 181.368 146.489 181.441 146.831L189.275 184.194C189.319 184.415 189.313 184.644 189.259 184.863C189.205 185.082 189.103 185.286 188.961 185.461C188.818 185.637 188.639 185.778 188.436 185.877C188.233 185.975 188.01 186.027 187.785 186.029H177.708C177.363 186.028 177.029 185.911 176.758 185.696C176.488 185.482 176.298 185.182 176.219 184.847Z" fill="#D9B08C"/>
<path d="M122.966 148.894L122.628 147.273H135.07L135.407 148.894H122.966Z" fill="#D9B08C"/>
<path d="M128.71 152.91L128.373 151.289H150.176L150.522 152.91H128.71Z" fill="#EBEBEB"/>
<path d="M129.862 156.933L129.517 155.312H153.962L154.3 156.933H129.862Z" fill="#EBEBEB"/>
<path d="M131.006 160.949L130.668 159.328H150.345L150.69 160.949H131.006Z" fill="#EBEBEB"/>
<path d="M126.752 167.472L126.406 165.852H134.278L134.616 167.472H126.752Z" fill="#D9B08C"/>
<path d="M132.489 171.495L132.151 169.875H141.736L142.081 171.495H132.489Z" fill="#EBEBEB"/>
<path d="M144.377 171.495L144.032 169.875H153.624L153.962 171.495H144.377Z" fill="#EBEBEB"/>
<path d="M133.641 175.511L133.303 173.891H165.712L166.05 175.511H133.641Z" fill="#EBEBEB"/>
<path d="M134.785 179.535L134.447 177.914H159.162L159.499 179.535H134.785Z" fill="#EBEBEB"/>
<path d="M209.903 190.016H128.219C125.991 190.016 124.548 191.283 125.016 192.834H214.803C214.342 191.283 212.13 190.016 209.903 190.016Z" fill="#263238"/>
<path opacity="0.1" d="M101.377 132.746L93.5358 95.3747C93.4931 95.1539 93.4993 94.9264 93.5542 94.7082C93.609 94.4901 93.7111 94.2866 93.8532 94.1123C93.9953 93.938 94.174 93.7969 94.3766 93.6992C94.5792 93.6015 94.8008 93.5495 95.0257 93.5469H158.463C158.811 93.5492 159.148 93.6698 159.419 93.8889C159.689 94.1079 159.878 94.4125 159.952 94.7526L167.794 132.093C167.838 132.314 167.832 132.543 167.778 132.762C167.724 132.981 167.622 133.185 167.48 133.36C167.338 133.536 167.158 133.677 166.955 133.776C166.752 133.874 166.53 133.926 166.304 133.928H102.867C102.522 133.927 102.187 133.81 101.917 133.595C101.647 133.381 101.456 133.081 101.377 132.746Z" fill="#D9B08C"/>
<path d="M123.926 94.7721H110.609L110.309 93.3359H123.626L123.926 94.7721Z" fill="#D9B08C"/>
<path opacity="0.4" d="M121.76 97.069H116.414L116.115 95.6328H121.46L121.76 97.069Z" fill="#D9B08C"/>
<path opacity="0.4" d="M130.653 97.069H122.42L122.121 95.6328H130.354L130.653 97.069Z" fill="#D9B08C"/>
<path opacity="0.4" d="M134.24 99.3424H116.891L116.591 97.9062H133.948L134.24 99.3424Z" fill="#D9B08C"/>
<path opacity="0.4" d="M132.036 101.631H117.367L117.067 100.195H131.736L132.036 101.631Z" fill="#D9B08C"/>
<path opacity="0.4" d="M141.766 125.914H132.427L132.727 127.343H142.066L141.766 125.914Z" fill="#D9B08C"/>
<path d="M130.123 122.772H116.445L116.146 121.336H129.824L130.123 122.772Z" fill="#D9B08C"/>
<path opacity="0.4" d="M135.622 128.195H122.904L123.204 129.631H135.922L135.622 128.195Z" fill="#D9B08C"/>
<path opacity="0.4" d="M131.767 125.914H122.428L122.728 127.343H132.067L131.767 125.914Z" fill="#D9B08C"/>
<path opacity="0.4" d="M140.629 123.617H121.952L122.251 125.053H140.929L140.629 123.617Z" fill="#D9B08C"/>
<path d="M123.457 84.116H108.389L108.089 82.6875H123.158L123.457 84.116Z" fill="#D9B08C"/>
<path opacity="0.4" d="M130.899 89.5391H114.279L114.579 90.9752H131.191L130.899 89.5391Z" fill="#D9B08C"/>
<path opacity="0.4" d="M127.573 87.2578H113.803L114.103 88.6863H127.873L127.573 87.2578Z" fill="#D9B08C"/>
<path opacity="0.4" d="M128.487 84.9688H113.327L113.627 86.4049H128.787L128.487 84.9688Z" fill="#D9B08C"/>
<path d="M123.288 105.35H112.813L112.513 103.914H122.989L123.288 105.35Z" fill="#D9B08C"/>
<path opacity="0.4" d="M139.739 110.766H119.271L119.571 112.202H140.031L139.739 110.766Z" fill="#D9B08C"/>
<path opacity="0.4" d="M127.274 108.484H118.795L119.095 109.921H127.574L127.274 108.484Z" fill="#D9B08C"/>
<path opacity="0.4" d="M136.475 108.484H127.996L128.296 109.921H136.774L136.475 108.484Z" fill="#D9B08C"/>
<path opacity="0.4" d="M136.997 106.195H118.319L118.619 107.631H137.289L136.997 106.195Z" fill="#D9B08C"/>
<path opacity="0.4" d="M136.959 117.625H120.7L121 119.053H137.258L136.959 117.625Z" fill="#D9B08C"/>
<path opacity="0.4" d="M124.955 115.336H120.224L120.523 116.772H125.246L124.955 115.336Z" fill="#D9B08C"/>
<path opacity="0.4" d="M132.35 115.336H125.6L125.899 116.772H132.65L132.35 115.336Z" fill="#D9B08C"/>
<path opacity="0.4" d="M138.425 113.055H119.748L120.047 114.483H138.725L138.425 113.055Z" fill="#D9B08C"/>
<path opacity="0.4" d="M153.132 112.671H146.443L146.144 111.234H152.841L153.132 112.671Z" fill="#D9B08C"/>
<path opacity="0.4" d="M164.269 112.671H153.962L153.663 111.234H163.969L164.269 112.671Z" fill="#D9B08C"/>
<path opacity="0.4" d="M168.646 114.96H146.92L146.62 113.523H168.347L168.646 114.96Z" fill="#D9B08C"/>
<path opacity="0.4" d="M165.759 117.241H147.396L147.096 115.805H165.459L165.759 117.241Z" fill="#D9B08C"/>
<path opacity="0.4" d="M173.984 103.586H153.179L153.478 105.014H174.283L173.984 103.586Z" fill="#D9B08C"/>
<path opacity="0.4" d="M169.944 101.297H152.703L153.002 102.733H170.236L169.944 101.297Z" fill="#D9B08C"/>
<path d="M166.826 99.0156H147.841L148.14 100.444H167.125L166.826 99.0156Z" fill="#D9B08C"/>
<path opacity="0.4" d="M174.921 126.383H149.3L149.6 127.819H175.22L174.921 126.383Z" fill="#D9B08C"/>
<path opacity="0.4" d="M159.438 124.102H148.824L149.124 125.53H159.737L159.438 124.102Z" fill="#D9B08C"/>
<path opacity="0.4" d="M170.958 124.102H160.344L160.644 125.53H171.258L170.958 124.102Z" fill="#D9B08C"/>
<path opacity="0.4" d="M171.726 121.805H148.348L148.648 123.241H172.026L171.726 121.805Z" fill="#D9B08C"/>
<path opacity="0.4" d="M171.081 133.234H150.729L151.028 134.671H171.38L171.081 133.234Z" fill="#D9B08C"/>
<path opacity="0.4" d="M156.174 130.953H150.252L150.552 132.389H156.473L156.174 130.953Z" fill="#D9B08C"/>
<path opacity="0.4" d="M165.436 130.953H156.988L157.287 132.389H165.735L165.436 130.953Z" fill="#D9B08C"/>
<path opacity="0.4" d="M173.162 128.656H149.776L150.076 130.092H173.454L173.162 128.656Z" fill="#D9B08C"/>
<path opacity="0.4" d="M110.893 135H94.9644L95.2639 136.436H111.192L110.893 135Z" fill="#D9B08C"/>
<path opacity="0.4" d="M106.185 132.719H94.4883L94.7878 134.147H106.477L106.185 132.719Z" fill="#D9B08C"/>
<path opacity="0.4" d="M118.695 132.719H107.006L107.306 134.147H119.003L118.695 132.719Z" fill="#D9B08C"/>
<path opacity="0.4" d="M117.397 130.438H94.0117L94.3112 131.874H117.689L117.397 130.438Z" fill="#D9B08C"/>
<path d="M296.249 177.914H286.388L287.54 192.836H295.097L296.249 177.914Z" fill="#D9B08C"/>
<path opacity="0.4" d="M296.249 177.914H286.388L287.54 192.836H295.097L296.249 177.914Z" fill="white"/>
<path d="M81.3477 167.555H95.525L90.6866 192.837H76.5093L81.3477 167.555Z" fill="#263238"/>
<path d="M99.4036 160.781H79.3818L84.9882 192.838H105.01L99.4036 160.781Z" fill="#D9B08C"/>
<path d="M78.1987 160.781H79.3815L84.9879 192.838H83.8051L78.1987 160.781Z" fill="#D9B08C"/>
<path opacity="0.3" d="M78.1987 160.781H79.3815L84.9879 192.838H83.8051L78.1987 160.781Z" fill="black"/>
<path d="M87.8683 189.401L83.46 164.203H96.5313L100.932 189.401H87.8683Z" fill="white"/>
<path opacity="0.6" d="M100.31 189.401L95.9092 164.203H96.5313L100.932 189.401H100.31Z" fill="#D9B08C"/>
<path d="M198.575 119.805C198.859 120.42 198.767 121.072 198.36 121.257C197.953 121.441 197.4 121.096 197.116 120.489C196.832 119.882 196.932 119.222 197.331 119.037C197.73 118.853 198.291 119.16 198.575 119.805Z" fill="#263238"/>
<path d="M198.821 121.016C198.821 121.016 199.067 125.209 198.314 127.636C199.85 128.15 201.509 126.868 201.509 126.868L198.821 121.016Z" fill="#FF5652"/>
<path d="M198.652 114.731C198.586 114.785 198.506 114.817 198.421 114.823C197.922 114.836 197.432 114.967 196.993 115.206C196.554 115.445 196.177 115.785 195.895 116.197C195.869 116.245 195.835 116.286 195.793 116.32C195.752 116.354 195.704 116.379 195.652 116.393C195.601 116.408 195.547 116.412 195.493 116.406C195.44 116.399 195.389 116.382 195.343 116.355C195.296 116.328 195.256 116.292 195.223 116.25C195.191 116.207 195.168 116.158 195.155 116.106C195.142 116.054 195.14 116 195.148 115.947C195.156 115.894 195.175 115.844 195.203 115.798C195.551 115.27 196.021 114.833 196.573 114.524C197.125 114.216 197.743 114.044 198.375 114.024C198.459 114.019 198.543 114.041 198.613 114.087C198.684 114.132 198.739 114.199 198.769 114.277C198.8 114.356 198.805 114.442 198.784 114.523C198.763 114.604 198.717 114.677 198.652 114.731Z" fill="#263238"/>
<path d="M221.193 118.852C223.566 127.069 226.216 133.444 229.449 137.084C229.449 137.084 229.51 143.543 218.505 146.615C206.401 149.994 211.04 142.222 211.04 142.222C217.184 138.804 216.6 133.643 211.977 131.677L221.193 118.852Z" fill="#FF8B7B"/>
<path d="M232.014 135.506C231.799 132.503 231.515 129.078 229.664 128.986C227.621 128.893 215.794 134.177 213.267 137.902C210.74 141.627 215.679 145.275 215.679 145.275L232.014 135.506Z" fill="#263238"/>
<path d="M207.807 182.01L197.592 181.672L197.777 190.227C197.777 190.227 206.685 189.306 207.077 186.963L207.807 182.01Z" fill="#FF8B7B"/>
<path d="M192.193 185.881L191.118 190.258L197.777 190.243L197.592 181.688L192.193 185.881Z" fill="#FF8B7B"/>
<path d="M248.802 146.456L248.587 148.653C248.518 149.359 248.426 150.051 248.334 150.75C248.157 152.14 247.934 153.53 247.696 154.912C247.236 157.685 246.636 160.442 245.945 163.214C245.243 166.04 244.392 168.826 243.395 171.562C242.866 172.968 242.313 174.373 241.652 175.802C240.986 177.3 240.216 178.75 239.348 180.141C239.141 180.502 238.88 180.909 238.626 181.247C238.373 181.585 238.127 182.015 237.858 182.368C237.589 182.721 237.305 183.136 236.952 183.497L236.453 184.065C236.274 184.275 236.084 184.475 235.884 184.664C234.345 186.172 232.541 187.383 230.562 188.236C227.527 189.538 224.305 190.354 221.016 190.655C219.518 190.831 218.036 190.901 216.585 190.939C215.133 190.977 213.682 190.939 212.253 190.862C210.825 190.785 209.411 190.662 208.006 190.494C206.601 190.325 205.234 190.102 203.744 189.802L203.989 181.777C208.893 180.919 213.741 179.765 218.505 178.321C219.564 177.976 220.605 177.576 221.623 177.123C222.489 176.757 223.318 176.307 224.096 175.779C224.548 175.506 224.932 175.133 225.217 174.688L225.44 174.335C225.543 174.184 225.638 174.028 225.724 173.866C225.833 173.69 225.933 173.508 226.023 173.321C226.123 173.121 226.231 172.937 226.331 172.714C227.233 170.745 227.975 168.705 228.55 166.616C229.18 164.358 229.771 162.008 230.247 159.574C230.723 157.139 231.184 154.682 231.607 152.201L232.19 148.469L232.72 144.836L248.802 146.456Z" fill="#D9B08C"/>
<path opacity="0.2" d="M248.802 146.456L248.587 148.653C248.518 149.359 248.426 150.051 248.334 150.75C248.157 152.14 247.934 153.53 247.696 154.912C247.236 157.685 246.636 160.442 245.945 163.214C245.243 166.04 244.392 168.826 243.395 171.562C242.866 172.968 242.313 174.373 241.652 175.802C240.986 177.3 240.216 178.75 239.348 180.141C239.141 180.502 238.88 180.909 238.626 181.247C238.373 181.585 238.127 182.015 237.858 182.368C237.589 182.721 237.305 183.136 236.952 183.497L236.453 184.065C236.274 184.275 236.084 184.475 235.884 184.664C234.345 186.172 232.541 187.383 230.562 188.236C227.527 189.538 224.305 190.354 221.016 190.655C219.518 190.831 218.036 190.901 216.585 190.939C215.133 190.977 213.682 190.939 212.253 190.862C210.825 190.785 209.411 190.662 208.006 190.494C206.601 190.325 205.234 190.102 203.744 189.802L203.989 181.777C208.893 180.919 213.741 179.765 218.505 178.321C219.564 177.976 220.605 177.576 221.623 177.123C222.489 176.757 223.318 176.307 224.096 175.779C224.548 175.506 224.932 175.133 225.217 174.688L225.44 174.335C225.543 174.184 225.638 174.028 225.724 173.866C225.833 173.69 225.933 173.508 226.023 173.321C226.123 173.121 226.231 172.937 226.331 172.714C227.233 170.745 227.975 168.705 228.55 166.616C229.18 164.358 229.771 162.008 230.247 159.574C230.723 157.139 231.184 154.682 231.607 152.201L232.19 148.469L232.72 144.836L248.802 146.456Z" fill="black"/>
<path d="M203.452 156.67C207.26 173.089 209.403 189.849 209.849 206.698H254.816C255.062 201.145 254.125 169.834 249.601 147.216C249.2 145.167 248.393 143.22 247.228 141.487C246.063 139.755 244.564 138.273 242.818 137.128C241.072 135.983 239.115 135.199 237.062 134.821C235.009 134.443 232.901 134.48 230.862 134.928L230.647 134.982C225.033 136.257 216.977 138.315 212.215 140.12L212.023 140.197C208.838 141.435 206.213 143.789 204.636 146.82C203.059 149.851 202.638 153.352 203.452 156.67Z" fill="#D9B08C"/>
<path opacity="0.2" d="M206.378 171.029C206.731 173.187 207.092 175.475 207.422 177.871C211.101 174.031 212.268 162.266 212.268 162.266L206.378 171.029Z" fill="black"/>
<path d="M169.023 182.57L158.816 181.617L158.478 190.165C160.165 190.631 161.947 190.626 163.631 190.15C165.315 189.675 166.837 188.748 168.032 187.469L169.023 182.57Z" fill="#FF8B7B"/>
<path d="M153.962 184.136L150.69 190.011L158.509 190.165L158.847 181.617L153.962 184.136Z" fill="#FF8B7B"/>
<path d="M220.325 152.727C219.618 154.071 218.988 155.261 218.282 156.49C217.575 157.719 216.899 158.917 216.17 160.107C214.726 162.504 213.228 164.854 211.646 167.181C208.47 171.946 204.951 176.474 201.117 180.728C199.064 183.018 196.832 185.142 194.443 187.08C194.144 187.333 193.79 187.579 193.46 187.848C193.13 188.116 192.838 188.331 192.347 188.616C191.855 188.9 191.44 189.184 190.995 189.43C190.549 189.675 190.089 189.898 189.636 190.098C187.941 190.833 186.169 191.372 184.352 191.703C181.174 192.239 177.935 192.311 174.736 191.918C173.238 191.746 171.751 191.49 170.282 191.15C169.55 190.981 168.828 190.789 168.116 190.574C167.348 190.359 166.726 190.121 165.904 189.806L167.172 181.88C171.995 181.227 177.209 180.39 180.804 178.762C181.601 178.434 182.353 178.003 183.038 177.48C183.314 177.29 183.572 177.074 183.806 176.834C183.86 176.765 184.098 176.558 184.275 176.389C184.451 176.22 184.659 176.059 184.851 175.859C186.495 174.23 188.034 172.499 189.459 170.675C192.551 166.686 195.44 162.544 198.114 158.264C199.497 156.091 200.841 153.879 202.185 151.659L204.166 148.326L206.078 145.047L220.325 152.727Z" fill="#D9B08C"/>
<path d="M207.983 313.039H199.581L195.35 293.57H203.759L207.983 313.039Z" fill="#FF8B7B"/>
<path d="M199.113 311.234H208.559C208.723 311.24 208.881 311.299 209.01 311.401C209.139 311.503 209.231 311.644 209.274 311.803L210.932 319.283C210.972 319.465 210.97 319.653 210.926 319.834C210.882 320.015 210.798 320.183 210.68 320.326C210.561 320.47 210.412 320.585 210.243 320.662C210.074 320.739 209.89 320.777 209.704 320.773C206.409 320.719 204.804 320.527 200.649 320.527C198.091 320.527 194.812 320.788 191.287 320.788C187.762 320.788 187.293 317.302 188.737 316.987C195.219 315.566 195.649 313.615 197.746 311.749C198.122 311.414 198.609 311.23 199.113 311.234Z" fill="#263238"/>
<g opacity="0.2">
<path d="M203.767 293.578H195.35L197.7 304.361L205.948 303.616L203.767 293.578Z" fill="black"/>
</g>
<path d="M218.497 108.973C221.569 116.746 223.704 121.146 221.677 126.791C218.605 135.278 207.707 136.138 202.407 129.425C197.646 123.381 193.483 111.685 199.497 105.256C200.814 103.831 202.473 102.767 204.318 102.164C206.162 101.561 208.13 101.441 210.034 101.813C211.938 102.186 213.716 103.039 215.197 104.293C216.678 105.546 217.814 107.157 218.497 108.973Z" fill="#FF8B7B"/>
<path d="M203.736 120.618C202.477 122.308 201.509 123.591 201.509 123.591C201.509 123.591 198.921 117.162 199.912 114.213C198.652 111.717 196.11 115.396 195.15 110.535C194.19 105.673 198.345 100.451 199.912 99.3678C200.073 99.9343 200.146 100.522 200.127 101.111C204.36 97.6756 209.741 95.9764 215.18 96.3573C214.725 97.0333 214.436 97.8068 214.335 98.6152C214.335 98.6152 223.451 100.151 225.524 105.312C224.791 104.962 224.017 104.704 223.22 104.544C224.892 106.94 225.554 109.897 225.064 112.777C224.402 116.977 224.058 121.221 224.035 125.472C224.119 127.653 218.136 131.824 214.488 127.369C210.84 122.915 203.736 120.618 203.736 120.618Z" fill="#263238"/>
<path d="M207.538 118.943C208.013 120.753 207.878 122.67 207.154 124.396C206.178 126.7 204.174 126.147 203.183 124.135C202.285 122.33 201.709 118.982 203.298 117.376C204.888 115.771 206.939 116.77 207.538 118.943Z" fill="#FF8B7B"/>
<path d="M223.328 206.664C223.328 206.664 184.283 220.826 183.138 239.557C181.019 274.064 195.127 301.381 195.127 301.381L208.06 299.999C208.06 299.999 205.756 288.894 204.043 257.636C201.885 218.353 268.555 258.558 254.824 206.664H223.328Z" fill="#D9B08C"/>
<path opacity="0.5" d="M223.328 206.664C223.328 206.664 184.283 220.826 183.138 239.557C181.019 274.064 195.127 301.381 195.127 301.381L208.06 299.999C208.06 299.999 205.756 288.894 204.043 257.636C201.885 218.353 268.555 258.558 254.824 206.664H223.328Z" fill="white"/>
<path d="M191.548 296.622C191.487 296.622 193.606 302.367 193.606 302.367L209.734 300.785L208.928 295.562L191.548 296.622Z" fill="#D9B08C"/>
<path d="M171.665 313.992H163.255L160.797 294.516H169.207L171.665 313.992Z" fill="#FF8B7B"/>
<path d="M163.193 311.234H172.409C172.576 311.232 172.738 311.288 172.868 311.391C172.998 311.495 173.088 311.64 173.124 311.803L174.798 319.275C174.847 319.458 174.852 319.65 174.814 319.836C174.776 320.021 174.696 320.196 174.579 320.345C174.462 320.494 174.312 320.613 174.14 320.694C173.969 320.775 173.782 320.815 173.592 320.811C170.282 320.758 165.49 320.573 161.304 320.581C156.435 320.581 155.506 320.85 149.784 320.857C146.328 320.857 145.368 317.378 146.812 317.017C153.386 315.574 155.49 315.412 161.166 311.903C161.765 311.493 162.468 311.261 163.193 311.234Z" fill="#263238"/>
<path opacity="0.2" d="M160.805 294.523L162.141 305.13L170.482 304.561L169.215 294.523H160.805Z" fill="black"/>
<path d="M209.849 206.664C209.849 206.664 145.875 212.34 146.566 244.473C147.28 277.896 159.768 300.437 159.768 300.437H172.256C172.256 300.437 169.89 283.095 170.313 250.194C170.436 240.341 190.357 237.085 209.803 235.933C226.607 234.934 242.336 225.357 248.864 209.821L250.208 206.664H209.849Z" fill="#D9B08C"/>
<path opacity="0.5" d="M209.849 206.664C209.849 206.664 145.875 212.34 146.566 244.473C147.28 277.896 159.768 300.437 159.768 300.437H172.256C172.256 300.437 169.89 283.095 170.313 250.194C170.436 240.341 190.357 237.085 209.803 235.933C226.607 234.934 242.336 225.357 248.864 209.821L250.208 206.664H209.849Z" fill="white"/>
<path d="M156.842 297.085C156.788 297.085 158.985 302.86 158.985 302.86L174.068 301.777L173.185 296.555L156.842 297.085Z" fill="#D9B08C"/>
<path d="M226.646 170.55L218.528 201.83C216.452 209.844 215.404 218.09 215.41 226.368V240.906C215.41 244.577 218.113 247.557 221.454 247.557H263.064C266.405 247.557 269.108 244.577 269.108 240.906V226.368C269.105 218.089 270.156 209.844 272.234 201.83L279.399 174.182C280.505 169.935 277.602 165.734 273.586 165.734H232.452C231.086 165.777 229.774 166.274 228.723 167.146C227.671 168.018 226.94 169.216 226.646 170.55Z" fill="#263238"/>
<path d="M174.89 232.417L176.249 240.174C176.971 244.252 180.558 247.562 184.267 247.562H230.524C234.233 247.562 236.668 244.252 235.946 240.174L234.587 232.417C233.765 227.771 229.687 224.008 225.463 224.008H181.088C176.833 224.008 174.076 227.771 174.89 232.417Z" fill="#263238"/>
<path d="M234.978 255.35H210.748L208.382 247.562H237.344L234.978 255.35Z" fill="#D9B08C"/>
<path d="M227.191 255.344H218.536V313.259H227.191V255.344Z" fill="#D9B08C"/>
<path opacity="0.7" d="M227.191 313.267H218.536V256.742L227.191 257.625V313.267Z" fill="white"/>
<path opacity="0.7" d="M225.079 313.267H223.013V257.195L225.079 257.41V313.267Z" fill="white"/>
<path d="M242.766 322.218H202.953C202.721 322.215 202.495 322.14 202.308 322.003C202.121 321.865 201.982 321.673 201.91 321.452C201.839 321.231 201.839 320.993 201.91 320.772C201.982 320.551 202.121 320.358 202.308 320.221L208.621 315.613C211.656 313.39 215.319 312.19 219.081 312.188H226.646C230.405 312.191 234.065 313.391 237.098 315.613L243.419 320.221C243.606 320.359 243.745 320.552 243.817 320.774C243.888 320.996 243.887 321.234 243.815 321.455C243.742 321.677 243.602 321.869 243.414 322.006C243.225 322.143 242.999 322.217 242.766 322.218Z" fill="#D9B08C"/>
</svg>
