<svg width="284" height="284" viewBox="0 0 284 284" fill="none" xmlns="http://www.w3.org/2000/svg">
<path d="M54.3575 170.708C55.4935 211.172 130.021 206.725 165.146 189.605C209.592 167.948 227.768 134.174 214.602 95.2379C201.538 56.6594 150.741 48.3439 123 75.1818C109.329 88.4162 102.087 106.819 88.5624 120.366C72.5051 136.452 53.6361 145.415 54.3575 170.708Z" fill="#D9B08C"/>
<path opacity="0.9" d="M54.3575 170.708C55.4935 211.172 130.021 206.725 165.146 189.605C209.592 167.948 227.768 134.174 214.602 95.2379C201.538 56.6594 150.741 48.3439 123 75.1818C109.329 88.4162 102.087 106.819 88.5624 120.366C72.5051 136.452 53.6361 145.415 54.3575 170.708Z" fill="white"/>
<path d="M142 242.844C202.823 242.844 252.129 239.965 252.129 236.414C252.129 232.863 202.823 229.984 142 229.984C81.177 229.984 31.8704 232.863 31.8704 236.414C31.8704 239.965 81.177 242.844 142 242.844Z" fill="#F5F5F5"/>
<path d="M144.221 230.289L139.478 230.823L137.729 220.065L142.471 219.531L144.221 230.289Z" fill="#FFC3BD"/>
<path d="M165.453 231.32H160.716L159.54 220.352H164.277L165.453 231.32Z" fill="#FFC3BD"/>
<path d="M160.329 230.766H166.1C166.194 230.766 166.285 230.798 166.358 230.857C166.432 230.916 166.483 230.998 166.503 231.089L167.441 235.298C167.463 235.401 167.462 235.507 167.437 235.609C167.413 235.711 167.365 235.806 167.298 235.887C167.232 235.968 167.147 236.033 167.052 236.076C166.957 236.12 166.853 236.141 166.748 236.139C164.89 236.111 163.533 236.003 161.193 236.003C159.756 236.003 155.416 236.15 153.428 236.15C151.44 236.15 151.156 234.185 151.997 234.009C155.643 233.208 158.392 232.106 159.562 231.055C159.773 230.867 160.047 230.763 160.329 230.766Z" fill="#263238"/>
<path d="M139.404 230.008L144.516 229.44C144.61 229.429 144.705 229.451 144.785 229.501C144.864 229.552 144.924 229.629 144.954 229.719L146.357 233.791C146.391 233.889 146.404 233.993 146.393 234.096C146.382 234.199 146.348 234.298 146.293 234.386C146.239 234.474 146.165 234.548 146.078 234.603C145.99 234.659 145.891 234.694 145.789 234.706C143.931 234.888 141.245 235.081 138.91 235.348C136.184 235.654 135.729 236.387 132.52 236.308C130.572 236.262 130.078 234.285 130.896 234.126C134.622 233.405 135.337 232.843 138.28 230.52C138.597 230.244 138.988 230.066 139.404 230.008Z" fill="#263238"/>
<path d="M143.584 92.1602C141.994 93.4722 140.426 94.6139 138.808 95.784C137.189 96.9541 135.536 98.056 133.832 99.0954C132.128 100.135 130.384 101.152 128.549 102.066C126.678 103.042 124.729 103.86 122.722 104.514C122.194 104.679 121.677 104.821 121.08 104.963C120.497 105.091 119.907 105.186 119.314 105.247C118.246 105.366 117.246 105.412 116.247 105.463C114.253 105.554 112.271 105.548 110.339 105.537C106.432 105.491 102.558 105.304 98.6613 104.969L98.6045 101.413C102.427 100.924 106.267 100.498 110.067 100.072C111.964 99.8622 113.861 99.635 115.707 99.3908C116.633 99.2658 117.547 99.1182 118.388 98.9591C118.752 98.8942 119.112 98.8108 119.467 98.7092C119.797 98.5956 120.206 98.465 120.603 98.3116C122.227 97.6506 123.804 96.8801 125.323 96.0055C126.897 95.1024 128.464 94.1311 130.009 93.103C131.554 92.075 133.093 91.0071 134.621 89.9222C136.149 88.8374 137.666 87.6843 139.097 86.5938L143.584 92.1602Z" fill="#FFC3BD"/>
<path d="M148.214 88.1227C147.532 92.5986 138.109 99.443 138.109 99.443L131.344 91.0536C134.306 87.8906 137.448 84.9017 140.756 82.1019C143.795 79.6141 148.952 83.2493 148.214 88.1227Z" fill="#D9B08C"/>
<path d="M99.911 101.781L97.2243 99.8672L96.929 105.916C96.929 105.916 98.4171 105.916 98.9908 104.826L99.911 101.781Z" fill="#FFC3BD"/>
<path d="M94.7931 98.1016L94.2422 104.026L96.9288 105.912L97.2242 99.8624L94.7931 98.1016Z" fill="#FFC3BD"/>
<path opacity="0.2" d="M137.734 220.065L138.631 225.609L143.374 225.075L142.477 219.531L137.734 220.065Z" fill="black"/>
<path opacity="0.2" d="M164.277 220.352H159.54L160.148 226.009H164.885L164.277 220.352Z" fill="black"/>
<path d="M164.345 82.2402C164.698 82.3188 165.031 82.4673 165.325 82.677C165.62 82.8866 165.869 83.1532 166.058 83.4608C166.248 83.7685 166.374 84.111 166.429 84.4682C166.484 84.8253 166.467 85.1899 166.378 85.5403C165.351 89.8057 164.577 94.1282 164.061 98.485C163.612 102.154 163.345 105.659 163.18 108.834C162.783 116.275 162.948 121.949 162.726 123.875L137.456 122.125C134.888 102.018 137.893 89.1812 139.586 83.9726C139.846 83.1614 140.331 82.4406 140.985 81.8938C141.638 81.3469 142.433 80.9964 143.278 80.8827C144.249 80.7577 145.408 80.6328 146.635 80.5589C147.061 80.5589 147.498 80.5192 147.935 80.5078C151.53 80.5424 155.12 80.7832 158.688 81.2292C159.363 81.3087 160.045 81.4109 160.71 81.5132C162.033 81.7461 163.3 82.0073 164.345 82.2402Z" fill="#263238"/>
<path d="M158.472 69.0703C157.552 72.4783 156.433 78.7604 158.688 81.2369C152.832 85.1788 149.094 90.7225 148.015 89.5183C147.447 88.8878 147.208 81.5663 147.947 80.4871C151.866 79.8339 151.968 76.9712 151.485 74.2391L158.472 69.0703Z" fill="#FFC3BD"/>
<path d="M158.233 79.8281C158.233 79.8281 148.685 84.0541 147.441 93.4942C150.065 90.4497 155.876 87.1383 155.876 87.1383L153.314 86.4056C154.942 85.7867 156.628 85.3319 158.347 85.048C158.063 83.7416 159.579 81.1402 159.579 81.1402L158.233 79.8281Z" fill="#D9B08C"/>
<path d="M149.622 79.6797C149.622 79.6797 150.889 85.0757 147.424 93.4991C146.885 90.2842 144.618 84.9053 144.618 84.9053L146.959 85.5358C146.959 85.5358 146.839 84.4509 144.948 83.0025C145.652 81.6506 147.856 80.0546 147.856 80.0546L149.622 79.6797Z" fill="#D9B08C"/>
<path opacity="0.2" d="M155.632 71.1875L151.497 74.2433C151.621 74.8798 151.688 75.5261 151.696 76.1745C153.184 76.0666 155.319 74.5898 155.581 73.0562C155.711 72.4416 155.729 71.8083 155.632 71.1875Z" fill="black"/>
<path d="M146.339 59.2043C144.028 59.3009 142.755 63.2825 145.095 66.5883C147.436 69.8941 149.446 59.0737 146.339 59.2043Z" fill="#263238"/>
<path d="M157.728 62.7148C158 67.4065 158.398 70.1386 156.336 72.8082C153.229 76.8296 147.22 75.3926 145.544 70.877C144.044 66.8101 143.84 59.818 148.185 57.4211C149.139 56.8862 150.214 56.6041 151.307 56.6016C152.401 56.5991 153.477 56.8762 154.433 57.4067C155.389 57.9371 156.194 58.7033 156.77 59.6324C157.347 60.5614 157.676 61.6225 157.728 62.7148Z" fill="#FFC3BD"/>
<path d="M158.415 66.312C154.859 64.04 153.604 61.0466 153.332 59.5414C151.951 59.8652 145.101 63.0176 142.994 59.5414C140.887 56.0653 143.562 54.0205 147.481 56.1618C145.737 53.0833 147.322 51.5781 152.803 51.4418C158.284 51.3054 157.546 54.4862 157.546 54.4862C157.546 54.4862 161.692 52.68 163.164 55.8608C164.862 59.5187 161.727 65.761 158.415 66.312Z" fill="#263238"/>
<path d="M156.609 53.6464C156.66 53.6464 158.682 54.1349 161.016 51.7891C160.602 53.7884 156.978 55.1232 156.978 55.1232L156.609 53.6464Z" fill="#263238"/>
<path d="M159.329 60.5086C157.148 59.7532 154.501 62.9908 155.478 66.8986C156.455 70.8065 162.277 61.5253 159.329 60.5086Z" fill="#263238"/>
<path d="M160.568 66.6145C160.47 67.1915 160.259 67.7434 159.947 68.2386C159.635 68.7338 159.228 69.1624 158.75 69.4999C157.466 70.3974 156.308 69.375 156.234 67.8925C156.166 66.5577 156.756 64.4845 158.25 64.1778C159.744 63.871 160.8 65.1831 160.568 66.6145Z" fill="#FFC3BD"/>
<path d="M144.584 175.466C145.72 161.618 154.07 123.272 154.07 123.272L137.456 122.125C137.456 122.125 131.049 160.181 130.56 174.631C130.049 189.655 136.093 223.036 136.093 223.036L144.045 222.127C144.045 222.127 143.437 189.376 144.584 175.466Z" fill="#D9B08C"/>
<path opacity="0.5" d="M144.584 175.466C145.72 161.618 154.07 123.272 154.07 123.272L137.456 122.125C137.456 122.125 131.049 160.181 130.56 174.631C130.049 189.655 136.093 223.036 136.093 223.036L144.045 222.127C144.045 222.127 143.437 189.376 144.584 175.466Z" fill="white"/>
<path opacity="0.2" d="M147.81 136.258C144.459 140.541 144.402 155.57 145.697 166.691C146.93 158.671 148.872 148.515 150.582 139.995L147.81 136.258Z" fill="black"/>
<path d="M146.419 122.734C146.419 122.734 148.214 163.278 150.213 177.007C152.4 192.042 157.961 224.929 157.961 224.929H166.634C166.634 224.929 165.208 193.979 164.061 179.205C162.76 162.381 162.726 123.893 162.726 123.893L146.419 122.734Z" fill="#D9B08C"/>
<path opacity="0.5" d="M146.419 122.734C146.419 122.734 148.214 163.278 150.213 177.007C152.4 192.042 157.961 224.929 157.961 224.929H166.634C166.634 224.929 165.208 193.979 164.061 179.205C162.76 162.381 162.726 123.893 162.726 123.893L146.419 122.734Z" fill="white"/>
<path d="M156.921 225.093H167.134V222.043L155.717 221.844L156.921 225.093Z" fill="#D9B08C"/>
<path d="M135.741 223.92L145.237 222.841L144.891 219.773L134.258 220.813L135.741 223.92Z" fill="#D9B08C"/>
<path d="M150.821 64.859C150.866 65.2396 150.702 65.5747 150.452 65.6031C150.202 65.6315 149.969 65.3475 149.918 64.9669C149.867 64.5864 150.037 64.2569 150.287 64.2285C150.537 64.2001 150.775 64.4841 150.821 64.859Z" fill="#263238"/>
<path d="M146.544 65.3747C146.589 65.7552 146.424 66.0847 146.174 66.1187C145.925 66.1528 145.692 65.8631 145.646 65.4826C145.601 65.102 145.765 64.7726 146.01 64.7442C146.254 64.7158 146.487 64.9941 146.544 65.3747Z" fill="#263238"/>
<path d="M147.918 65.4062C147.604 66.6191 147.124 67.783 146.493 68.8654C146.775 69.0192 147.087 69.1095 147.408 69.1301C147.729 69.1507 148.05 69.1011 148.35 68.9847L147.918 65.4062Z" fill="#ED847E"/>
<path d="M151.985 63.3128C151.946 63.3255 151.904 63.3269 151.864 63.3169C151.823 63.3068 151.787 63.2857 151.758 63.256C151.567 63.0491 151.331 62.8899 151.067 62.7912C150.804 62.6926 150.521 62.6572 150.241 62.688C150.209 62.6974 150.174 62.6994 150.141 62.6937C150.107 62.688 150.075 62.6749 150.048 62.6553C150.02 62.6357 149.997 62.61 149.98 62.5803C149.964 62.5506 149.954 62.5175 149.952 62.4835C149.945 62.4543 149.945 62.4241 149.951 62.3947C149.956 62.3653 149.968 62.3375 149.985 62.3129C150.002 62.2883 150.024 62.2676 150.05 62.252C150.075 62.2363 150.104 62.2262 150.134 62.2222C150.486 62.1756 150.845 62.2147 151.179 62.3363C151.513 62.458 151.813 62.6585 152.053 62.9209C152.075 62.9415 152.092 62.9662 152.103 62.9936C152.115 63.0209 152.121 63.0502 152.121 63.0799C152.121 63.1096 152.115 63.1389 152.103 63.1663C152.092 63.1936 152.075 63.2183 152.053 63.239C152.036 63.2677 152.013 63.2928 151.985 63.3128Z" fill="#263238"/>
<path d="M150.338 70.4974C150.879 70.383 151.384 70.1401 151.811 69.7891C152.238 69.4381 152.575 68.9894 152.792 68.4809C152.803 68.4516 152.802 68.419 152.789 68.3903C152.776 68.3615 152.753 68.339 152.724 68.3276C152.693 68.3166 152.659 68.3181 152.629 68.3319C152.599 68.3457 152.576 68.3707 152.565 68.4014C152.358 68.8673 152.044 69.2781 151.65 69.6007C151.255 69.9233 150.79 70.1487 150.293 70.2588C150.262 70.268 150.236 70.2882 150.219 70.3154C150.202 70.3426 150.196 70.375 150.202 70.4065C150.211 70.4349 150.229 70.4594 150.254 70.4759C150.279 70.4925 150.308 70.5 150.338 70.4974Z" fill="#263238"/>
<path d="M144.516 64.1226C144.472 64.1397 144.423 64.1397 144.38 64.1226C144.324 64.1032 144.277 64.0626 144.251 64.0095C144.224 63.9564 144.22 63.8951 144.238 63.8386C144.346 63.4993 144.534 63.1909 144.786 62.939C145.038 62.687 145.347 62.4989 145.686 62.3902C145.715 62.3826 145.745 62.3808 145.774 62.3851C145.804 62.3893 145.832 62.3994 145.857 62.4147C145.883 62.4301 145.905 62.4504 145.922 62.4745C145.94 62.4986 145.952 62.5259 145.959 62.5549C145.966 62.5829 145.968 62.6121 145.964 62.6409C145.96 62.6696 145.951 62.6973 145.936 62.7222C145.921 62.7471 145.901 62.7688 145.878 62.7859C145.854 62.803 145.828 62.8153 145.8 62.8219C145.535 62.9092 145.294 63.0574 145.096 63.2547C144.899 63.452 144.751 63.6929 144.664 63.9579C144.657 63.9966 144.64 64.0327 144.614 64.0619C144.588 64.0911 144.554 64.1122 144.516 64.1226Z" fill="#263238"/>
<path d="M158.761 231.594C158.44 231.617 158.119 231.531 157.853 231.349C157.771 231.28 157.708 231.192 157.667 231.094C157.627 230.995 157.61 230.888 157.62 230.781C157.618 230.716 157.636 230.651 157.67 230.594C157.704 230.538 157.754 230.492 157.813 230.463C158.335 230.191 159.863 231.134 160.034 231.241C160.054 231.252 160.069 231.269 160.079 231.29C160.088 231.31 160.09 231.333 160.085 231.355C160.082 231.377 160.072 231.398 160.057 231.414C160.041 231.43 160.021 231.441 160 231.446C159.594 231.542 159.178 231.591 158.761 231.594ZM158.057 230.611C158.008 230.61 157.96 230.62 157.915 230.639C157.891 230.652 157.872 230.67 157.859 230.694C157.845 230.717 157.839 230.743 157.841 230.77C157.831 230.846 157.84 230.923 157.866 230.994C157.893 231.065 157.937 231.129 157.995 231.179C158.256 231.395 158.875 231.429 159.699 231.264C159.199 230.942 158.641 230.72 158.057 230.611Z" fill="#D9B08C"/>
<path d="M159.977 231.419C159.959 231.424 159.939 231.424 159.92 231.419C159.432 231.152 158.483 230.113 158.586 229.59C158.602 229.507 158.647 229.433 158.712 229.379C158.777 229.325 158.859 229.296 158.943 229.295C159.028 229.283 159.115 229.29 159.197 229.314C159.28 229.339 159.356 229.38 159.42 229.437C159.988 229.885 160.085 231.254 160.085 231.311C160.089 231.331 160.085 231.352 160.076 231.371C160.067 231.389 160.052 231.404 160.034 231.413C160.016 231.421 159.996 231.423 159.977 231.419ZM159.04 229.499H158.994C158.847 229.499 158.835 229.584 158.83 229.613C158.767 229.925 159.398 230.709 159.858 231.078C159.824 230.538 159.626 230.021 159.29 229.596C159.22 229.535 159.132 229.501 159.04 229.499Z" fill="#D9B08C"/>
<path d="M139.018 230.71C138.279 230.948 136.95 231.278 136.382 230.886C136.298 230.828 136.23 230.751 136.184 230.661C136.137 230.571 136.114 230.47 136.115 230.369C136.111 230.308 136.122 230.246 136.148 230.19C136.173 230.135 136.213 230.087 136.263 230.051C136.797 229.676 138.802 230.414 139.023 230.5C139.045 230.508 139.063 230.523 139.077 230.542C139.09 230.562 139.097 230.584 139.097 230.607C139.097 230.631 139.089 230.653 139.075 230.672C139.06 230.69 139.04 230.704 139.018 230.71ZM136.399 230.221C136.38 230.236 136.364 230.256 136.354 230.279C136.344 230.302 136.34 230.327 136.343 230.352C136.341 230.419 136.357 230.485 136.387 230.545C136.418 230.604 136.463 230.655 136.519 230.693C136.837 230.92 137.615 230.874 138.637 230.585C137.814 230.329 136.729 230.051 136.399 230.221Z" fill="#D9B08C"/>
<path d="M139.018 230.702C138.989 230.713 138.956 230.713 138.927 230.702C138.331 230.514 137.092 229.622 137.121 229.083C137.121 228.952 137.195 228.787 137.496 228.725C137.605 228.699 137.719 228.696 137.829 228.717C137.94 228.737 138.045 228.781 138.138 228.844C138.791 229.27 139.063 230.548 139.075 230.548C139.078 230.568 139.077 230.587 139.071 230.606C139.065 230.625 139.054 230.642 139.041 230.656L139.018 230.702ZM137.422 228.998C137.348 229.037 137.342 229.083 137.342 229.105C137.342 229.429 138.183 230.139 138.802 230.423C138.688 229.893 138.412 229.41 138.013 229.043C137.946 228.995 137.87 228.962 137.79 228.947C137.709 228.931 137.626 228.933 137.547 228.952C137.503 228.958 137.461 228.972 137.422 228.992V228.998Z" fill="#D9B08C"/>
<path d="M168.332 89.068C168.213 90.9197 167.997 92.6407 167.764 94.4186C167.532 96.1964 167.236 97.9402 166.901 99.701C166.242 103.298 165.267 106.829 163.987 110.254L163.419 111.578L163.277 111.907L163.243 111.993L163.186 112.117L163.016 112.47C162.801 112.878 162.538 113.26 162.232 113.606C161.743 114.163 161.168 114.639 160.528 115.014C160.009 115.325 159.464 115.59 158.898 115.804C157.022 116.481 155.06 116.893 153.07 117.025C149.454 117.293 145.819 117.158 142.233 116.622L142.364 113.066L144.868 112.782C145.709 112.685 146.544 112.555 147.373 112.441C149.032 112.197 150.673 111.924 152.241 111.561C153.687 111.267 155.092 110.802 156.427 110.175C156.786 110.023 157.1 109.782 157.342 109.476C157.342 109.391 157.177 109.749 157.387 109.181L157.762 108.085C158.681 104.944 159.383 101.745 159.864 98.5082C160.136 96.861 160.363 95.1967 160.591 93.5268C160.818 91.8569 160.994 90.1586 161.159 88.5625L168.332 89.068Z" fill="#FFC3BD"/>
<path d="M168.753 85.6328C171.07 89.5179 169.093 101.741 169.093 101.741L156.938 99.4693C156.938 99.4693 156.279 92.4715 158.597 87.0982C161.113 81.2705 165.947 80.9184 168.753 85.6328Z" fill="#D9B08C"/>
<path d="M138.978 123.998L132.531 94.0077C132.223 92.7266 131.505 91.5807 130.488 90.7435C129.47 89.9062 128.208 89.4231 126.891 89.3672H102.194C103.51 89.4249 104.772 89.9087 105.789 90.7457C106.807 91.5827 107.524 92.7275 107.835 94.0077L114.276 123.998C114.586 125.278 115.304 126.423 116.321 127.26C117.338 128.097 118.6 128.581 119.916 128.639H144.618C143.302 128.582 142.04 128.098 141.022 127.261C140.005 126.424 139.287 125.279 138.978 123.998Z" fill="#263238"/>
<path opacity="0.7" d="M138.978 123.998L132.531 94.0077C132.223 92.7266 131.505 91.5807 130.488 90.7435C129.47 89.9062 128.208 89.4231 126.891 89.3672H102.194C103.51 89.4249 104.772 89.9087 105.789 90.7457C106.807 91.5827 107.524 92.7275 107.835 94.0077L114.276 123.998C114.586 125.278 115.304 126.423 116.321 127.26C117.338 128.097 118.6 128.581 119.916 128.639H144.618C143.302 128.582 142.04 128.098 141.022 127.261C140.005 126.424 139.287 125.279 138.978 123.998Z" fill="#D9B08C"/>
<path d="M92.5594 125.486L91.926 132.523L92.494 132.575L93.1274 125.537L92.5594 125.486Z" fill="#D9B08C"/>
<path d="M91.2845 135.936L91.0127 138.883L91.5783 138.935L91.8501 135.988L91.2845 135.936Z" fill="#D9B08C"/>
<path d="M102.194 89.3672H126.891C125.627 89.3907 124.414 89.8753 123.482 90.7299C122.55 91.5845 121.963 92.7502 121.83 94.0077L115.423 163.69C115.289 164.948 114.7 166.114 113.767 166.968C112.834 167.823 111.621 168.307 110.356 168.331H94.9409C94.3471 168.342 93.7578 168.226 93.2124 167.991C92.667 167.756 92.1782 167.407 91.7786 166.967C91.379 166.528 91.0779 166.008 90.8954 165.443C90.713 164.878 90.6534 164.28 90.7207 163.69L97.1277 94.0077C97.2618 92.7497 97.8506 91.584 98.7835 90.7294C99.7165 89.8749 100.929 89.3905 102.194 89.3672Z" fill="#D9B08C"/>
<path d="M106.136 163.695C106.069 164.285 106.129 164.883 106.311 165.448C106.493 166.013 106.795 166.533 107.194 166.973C107.594 167.412 108.083 167.761 108.628 167.996C109.173 168.231 109.763 168.347 110.356 168.336H85.6542C85.0606 168.347 84.4715 168.231 83.9263 167.996C83.3812 167.761 82.8926 167.412 82.4935 166.972C82.0943 166.533 81.7938 166.013 81.612 165.448C81.4303 164.883 81.3715 164.285 81.4396 163.695H106.136Z" fill="#263238"/>
<path opacity="0.7" d="M106.136 163.695C106.069 164.285 106.129 164.883 106.311 165.448C106.493 166.013 106.795 166.533 107.194 166.973C107.594 167.412 108.083 167.761 108.628 167.996C109.173 168.231 109.763 168.347 110.356 168.336H85.6542C85.0606 168.347 84.4715 168.231 83.9263 167.996C83.3812 167.761 82.8926 167.412 82.4935 166.972C82.0943 166.533 81.7938 166.013 81.612 165.448C81.4303 164.883 81.3715 164.285 81.4396 163.695H106.136Z" fill="#D9B08C"/>
<g opacity="0.5">
<path d="M117.576 97.1784H100.831C100.702 97.18 100.574 97.1542 100.456 97.1026C100.338 97.0511 100.232 96.9749 100.146 96.8793C100.059 96.7837 99.994 96.6707 99.9546 96.548C99.9151 96.4252 99.9022 96.2955 99.9167 96.1674C99.9468 95.894 100.075 95.6409 100.278 95.4549C100.48 95.269 100.744 95.1629 101.019 95.1563H117.735C117.864 95.1547 117.992 95.1805 118.11 95.2321C118.228 95.2837 118.334 95.3598 118.42 95.4554C118.507 95.551 118.572 95.664 118.611 95.7867C118.651 95.9095 118.664 96.0392 118.649 96.1674C118.62 96.436 118.496 96.6854 118.299 96.8707C118.102 97.0561 117.846 97.1651 117.576 97.1784Z" fill="white"/>
<path d="M117.053 102.639H100.337C100.207 102.642 100.079 102.617 99.9601 102.565C99.8413 102.514 99.7347 102.438 99.6476 102.342C99.5605 102.247 99.4948 102.134 99.455 102.01C99.4151 101.887 99.4021 101.757 99.4167 101.628C99.4468 101.355 99.5752 101.102 99.7778 100.916C99.9804 100.73 100.244 100.624 100.519 100.617H117.235C117.364 100.615 117.493 100.64 117.612 100.691C117.73 100.743 117.837 100.819 117.924 100.914C118.011 101.01 118.077 101.123 118.117 101.246C118.157 101.37 118.17 101.5 118.155 101.628C118.125 101.902 117.997 102.155 117.794 102.341C117.591 102.527 117.328 102.633 117.053 102.639Z" fill="white"/>
<path d="M112.464 108.116H99.8373C99.7083 108.118 99.5805 108.092 99.4623 108.04C99.3441 107.989 99.2383 107.913 99.1518 107.817C99.0653 107.721 99.0001 107.608 98.9607 107.486C98.9212 107.363 98.9083 107.233 98.9228 107.105C98.9529 106.832 99.0813 106.578 99.2839 106.393C99.4865 106.207 99.7498 106.101 100.025 106.094H112.64C112.769 106.091 112.898 106.117 113.017 106.168C113.136 106.219 113.242 106.295 113.329 106.391C113.416 106.487 113.482 106.6 113.522 106.723C113.562 106.846 113.575 106.976 113.56 107.105C113.53 107.377 113.403 107.63 113.201 107.816C113 108.001 112.738 108.108 112.464 108.116Z" fill="white"/>
<path d="M103.62 113.602H99.343C99.2142 113.605 99.0863 113.58 98.9678 113.529C98.8494 113.478 98.7432 113.402 98.6561 113.307C98.5691 113.212 98.5033 113.1 98.4631 112.977C98.4229 112.855 98.4092 112.725 98.4229 112.597C98.4531 112.324 98.5814 112.071 98.784 111.885C98.9867 111.699 99.2499 111.593 99.5248 111.586H103.808C103.936 111.584 104.064 111.61 104.182 111.662C104.301 111.713 104.406 111.789 104.493 111.885C104.579 111.981 104.645 112.094 104.684 112.216C104.724 112.339 104.737 112.469 104.722 112.597C104.691 112.869 104.562 113.121 104.359 113.306C104.157 113.491 103.894 113.596 103.62 113.602Z" fill="white"/>
<path d="M115.559 119.046H98.8316C98.7027 119.047 98.5749 119.021 98.4567 118.97C98.3385 118.918 98.2327 118.842 98.1462 118.747C98.0597 118.651 97.9945 118.538 97.955 118.415C97.9156 118.293 97.9026 118.163 97.9172 118.035C97.9473 117.761 98.0756 117.508 98.2783 117.322C98.4809 117.136 98.7441 117.03 99.0191 117.024H115.73C115.859 117.021 115.987 117.046 116.106 117.098C116.225 117.149 116.332 117.225 116.419 117.321C116.506 117.416 116.572 117.529 116.612 117.653C116.651 117.776 116.664 117.906 116.65 118.035C116.62 118.306 116.493 118.558 116.293 118.743C116.093 118.929 115.832 119.036 115.559 119.046Z" fill="white"/>
<path d="M108.488 124.522H98.3488C98.2194 124.525 98.091 124.499 97.9721 124.448C97.8532 124.397 97.7467 124.321 97.6595 124.225C97.5724 124.129 97.5068 124.016 97.4669 123.893C97.4271 123.77 97.4141 123.64 97.4286 123.511C97.4588 123.238 97.5871 122.985 97.7898 122.799C97.9924 122.613 98.2556 122.507 98.5306 122.5H108.664C108.793 122.499 108.921 122.524 109.039 122.576C109.158 122.627 109.264 122.703 109.351 122.799C109.438 122.894 109.503 123.007 109.544 123.13C109.584 123.253 109.597 123.383 109.584 123.511C109.554 123.784 109.426 124.036 109.225 124.222C109.023 124.407 108.762 124.514 108.488 124.522Z" fill="white"/>
<path d="M114.565 129.983H97.849C97.72 129.985 97.5922 129.959 97.474 129.907C97.3559 129.856 97.25 129.78 97.1635 129.684C97.077 129.588 97.0119 129.475 96.9724 129.353C96.9329 129.23 96.92 129.1 96.9345 128.972C96.9647 128.699 97.093 128.446 97.2956 128.26C97.4983 128.074 97.7615 127.968 98.0364 127.961H114.736C114.865 127.959 114.993 127.985 115.111 128.037C115.23 128.088 115.336 128.164 115.423 128.26C115.51 128.355 115.575 128.468 115.616 128.591C115.656 128.714 115.669 128.844 115.656 128.972C115.626 129.244 115.499 129.495 115.299 129.681C115.099 129.866 114.838 129.974 114.565 129.983Z" fill="white"/>
<path d="M109.97 135.46H97.3547C97.2252 135.462 97.0968 135.437 96.9779 135.386C96.8591 135.335 96.7525 135.259 96.6654 135.163C96.5783 135.067 96.5126 134.954 96.4728 134.831C96.433 134.708 96.4199 134.577 96.4345 134.449C96.4647 134.175 96.593 133.922 96.7956 133.736C96.9983 133.55 97.2615 133.444 97.5364 133.438H110.152C110.281 133.435 110.41 133.46 110.528 133.512C110.647 133.563 110.754 133.639 110.841 133.735C110.928 133.83 110.994 133.944 111.034 134.067C111.073 134.19 111.086 134.32 111.072 134.449C111.042 134.722 110.913 134.975 110.711 135.161C110.508 135.347 110.245 135.453 109.97 135.46Z" fill="white"/>
<path d="M101.138 140.921H96.855C96.7258 140.922 96.5978 140.896 96.4794 140.845C96.361 140.793 96.2548 140.717 96.1679 140.622C96.0809 140.526 96.0152 140.413 95.975 140.291C95.9349 140.168 95.9212 140.038 95.9348 139.91C95.9651 139.635 96.0942 139.381 96.2981 139.195C96.5019 139.009 96.7665 138.904 97.0424 138.899H101.319C101.449 138.896 101.577 138.921 101.696 138.973C101.815 139.024 101.922 139.1 102.009 139.196C102.096 139.291 102.161 139.404 102.201 139.528C102.241 139.651 102.254 139.781 102.24 139.91C102.209 140.183 102.081 140.436 101.878 140.622C101.676 140.808 101.413 140.914 101.138 140.921Z" fill="white"/>
<path d="M113.071 146.382H96.3608C96.2314 146.384 96.1029 146.359 95.984 146.308C95.8652 146.256 95.7586 146.18 95.6715 146.085C95.5844 145.989 95.5187 145.876 95.4789 145.752C95.4391 145.629 95.426 145.499 95.4406 145.37C95.4708 145.097 95.5991 144.844 95.8017 144.658C96.0044 144.472 96.2676 144.366 96.5425 144.359H113.259C113.388 144.358 113.516 144.384 113.634 144.435C113.752 144.487 113.858 144.563 113.944 144.659C114.031 144.754 114.096 144.867 114.135 144.99C114.175 145.113 114.188 145.242 114.173 145.37C114.143 145.644 114.015 145.897 113.812 146.083C113.609 146.269 113.346 146.375 113.071 146.382Z" fill="white"/>
<path d="M105.994 151.85H95.861C95.7316 151.853 95.6032 151.828 95.4843 151.776C95.3654 151.725 95.2589 151.649 95.1717 151.553C95.0846 151.458 95.019 151.344 94.9791 151.221C94.9393 151.098 94.9263 150.968 94.9408 150.839C94.971 150.566 95.0993 150.313 95.302 150.127C95.5046 149.941 95.7678 149.835 96.0428 149.828H106.176C106.305 149.826 106.434 149.851 106.553 149.902C106.671 149.953 106.778 150.029 106.865 150.125C106.952 150.221 107.018 150.334 107.058 150.457C107.098 150.58 107.111 150.711 107.096 150.839C107.066 151.113 106.938 151.366 106.735 151.552C106.532 151.738 106.269 151.844 105.994 151.85Z" fill="white"/>
<path d="M112.077 157.345H95.3669C95.2375 157.347 95.109 157.322 94.9902 157.271C94.8713 157.219 94.7647 157.143 94.6776 157.048C94.5905 156.952 94.5248 156.839 94.485 156.716C94.4452 156.592 94.4321 156.462 94.4467 156.334C94.4782 156.061 94.607 155.809 94.8095 155.625C95.0121 155.44 95.2746 155.335 95.5486 155.328H112.265C112.393 155.327 112.521 155.352 112.638 155.404C112.756 155.455 112.862 155.53 112.948 155.625C113.034 155.72 113.1 155.833 113.14 155.955C113.179 156.077 113.193 156.206 113.179 156.334C113.149 156.607 113.021 156.86 112.818 157.046C112.616 157.232 112.352 157.338 112.077 157.345Z" fill="white"/>
</g>
<path d="M143.834 113.387L140.205 110.234L138.501 116.039C138.501 116.039 142.187 118.039 143.46 116.204L143.834 113.387Z" fill="#FFC3BD"/>
<path d="M136.257 110.008L135.076 114.876L138.507 116.04L140.205 110.235L136.257 110.008Z" fill="#FFC3BD"/>
</svg>
