<svg width="402" height="402" viewBox="0 0 402 402" fill="none" xmlns="http://www.w3.org/2000/svg">
<path d="M370.154 185.348C365.732 196.95 356.445 204.813 353.149 228.659C352.522 233.21 353.085 240.341 353.149 244.016H343.308C341.443 232.848 340.148 216.028 342.697 200.865C345.72 183.073 355.191 173.352 361.8 171.39C369.124 169.195 374.801 173.127 370.154 185.348Z" fill="#E0E0E0"/>
<path d="M364.027 177.368C363.983 177.323 363.93 177.288 363.872 177.263C363.814 177.239 363.752 177.227 363.689 177.227C363.627 177.227 363.564 177.239 363.506 177.263C363.448 177.288 363.396 177.323 363.352 177.368C353.438 187.892 343.396 214.4 348.687 243.995H349.74C344.249 214.48 354.218 188.471 364.059 178.027C364.141 177.934 364.183 177.814 364.177 177.691C364.171 177.568 364.117 177.452 364.027 177.368Z" fill="white"/>
<path d="M366.954 224.241C362.789 230.56 359.436 234.412 356.172 244.019H349.949C349.949 222.311 358.295 209.825 362.331 205.291C366.737 200.338 373.136 195.747 378.041 200.081C381.128 202.806 379.568 207.317 377.494 210.878C375.146 214.923 370.741 218.484 366.954 224.241Z" fill="#F0F0F0"/>
<path d="M372.903 204.838C372.87 204.783 372.825 204.735 372.773 204.697C372.72 204.66 372.66 204.633 372.597 204.62C372.534 204.606 372.468 204.606 372.405 204.619C372.341 204.631 372.281 204.657 372.228 204.693C365.281 209.188 354.339 228.122 352.224 244.025H353.205C355.296 228.484 366.118 209.815 372.759 205.513C372.867 205.443 372.943 205.332 372.97 205.206C372.997 205.079 372.973 204.947 372.903 204.838Z" fill="white"/>
<path d="M52.6943 243.869L60.485 239.366C60.485 239.366 65.1241 220.07 63.2749 202.752C60.678 178.375 44.6301 169.201 38.5278 171.308C32.4254 173.414 30.6566 180.505 40.7549 195.026C46.7125 203.588 54.0289 221.429 52.6943 243.869Z" fill="#F0F0F0"/>
<path d="M55.9182 234.394H55.8459C55.7761 234.381 55.7096 234.354 55.6503 234.314C55.5911 234.275 55.5401 234.225 55.5005 234.166C55.4609 234.107 55.4334 234.04 55.4195 233.97C55.4057 233.901 55.4057 233.829 55.4198 233.759C59.689 211.247 51.8339 186.01 42.1055 175.501C42.0144 175.394 41.9685 175.255 41.9773 175.114C41.9861 174.973 42.0489 174.841 42.1528 174.746C42.2566 174.65 42.3933 174.599 42.5343 174.602C42.6753 174.605 42.8098 174.662 42.9095 174.762C52.8068 185.463 60.8146 211.143 56.481 233.968C56.4527 234.094 56.3807 234.206 56.2776 234.284C56.1746 234.362 56.0473 234.401 55.9182 234.394Z" fill="white"/>
<path d="M33.0847 255.185C31.9189 255.772 28.8235 253.127 27.9632 252.484C26.4844 251.364 25.3188 249.883 24.5783 248.182C23.753 246.25 23.5452 244.11 23.9834 242.056C24.2181 240.963 24.5297 239.888 24.916 238.84L25.9773 235.752C26.3912 234.756 26.6017 233.687 26.5964 232.609C26.4275 230.454 24.6025 228.854 22.9382 227.471C21.097 225.944 19.1996 223.95 19.3363 221.369C19.5804 219.371 20.4761 217.508 21.8849 216.071C23.1955 214.575 24.7311 213.265 25.9049 211.673C26.8418 210.567 27.3723 209.174 27.4084 207.725C27.3367 206.833 27.0822 205.966 26.6607 205.176C25.8567 203.448 24.707 201.848 24.1763 200.007C23.6457 198.165 23.8387 195.93 25.31 194.708C26.524 193.703 28.2526 193.639 29.8124 193.824C31.257 194.081 32.6285 194.649 33.8324 195.488C37.8524 197.972 39.9106 202.949 44.1718 204.919C45.7798 205.683 47.6451 205.924 49.3737 206.471C51.1023 207.017 52.8389 208.006 53.5625 209.687C55.0017 212.959 51.842 216.738 52.7585 220.179C53.6027 223.226 56.4569 224.521 57.9524 227.302C58.5596 228.529 58.7596 229.918 58.5232 231.266C58.2654 233.551 57.5895 235.77 56.5293 237.811C55.3425 239.906 54.0296 241.928 52.5977 243.865L33.0847 255.185Z" fill="#E0E0E0"/>
<path d="M44.3648 249.304C44.2275 249.292 44.1006 249.226 44.0117 249.121C43.9229 249.015 43.8793 248.879 43.8904 248.742C45.7557 228.521 37.3378 205.663 30.7209 198.813C30.6659 198.766 30.6214 198.709 30.5902 198.644C30.5589 198.579 30.5417 198.508 30.5395 198.436C30.5374 198.364 30.5504 198.292 30.5777 198.226C30.6051 198.159 30.6461 198.099 30.6982 198.049C30.7503 197.999 30.8122 197.961 30.8801 197.936C30.9479 197.912 31.0201 197.902 31.092 197.908C31.1639 197.913 31.2338 197.933 31.2973 197.967C31.3608 198.002 31.4164 198.049 31.4606 198.106C38.2061 205.092 46.8009 228.328 44.9115 248.838C44.8992 248.972 44.8352 249.095 44.733 249.182C44.6309 249.269 44.4987 249.313 44.3648 249.304Z" fill="white"/>
<path d="M42.3548 224.371C42.3046 224.383 42.2523 224.383 42.2021 224.371C35.7701 222.031 27.7301 221.268 27.6175 221.26C27.4823 221.247 27.3575 221.182 27.2701 221.078C27.1828 220.974 27.14 220.84 27.1512 220.705C27.155 220.637 27.1727 220.571 27.2033 220.511C27.2338 220.451 27.2764 220.398 27.3285 220.355C27.3806 220.311 27.441 220.28 27.5059 220.261C27.5709 220.243 27.639 220.238 27.7059 220.247C27.7944 220.247 36.0193 221.051 42.5558 223.414C42.6773 223.45 42.7808 223.531 42.846 223.639C42.9112 223.748 42.9334 223.877 42.9082 224.001C42.883 224.125 42.8122 224.235 42.7097 224.31C42.6073 224.384 42.4807 224.417 42.3548 224.403V224.371Z" fill="white"/>
<path d="M76.1951 211.228C7.27626 251.026 7.27626 315.539 76.2032 355.369C145.13 395.199 256.878 395.159 325.805 355.369C394.732 315.579 394.724 251.058 325.805 211.26C256.886 171.462 145.122 171.438 76.1951 211.228Z" fill="#FAFAFA"/>
<path d="M108.114 355.999C138.743 355.999 163.574 341.666 163.574 323.984C163.574 306.302 138.743 291.969 108.114 291.969C77.4842 291.969 52.6539 306.302 52.6539 323.984C52.6539 341.666 77.4842 355.999 108.114 355.999Z" fill="#E0E0E0"/>
<path d="M293.886 355.538C324.516 355.538 349.346 341.205 349.346 323.523C349.346 305.842 324.516 291.508 293.886 291.508C263.256 291.508 238.426 305.842 238.426 323.523C238.426 341.205 263.256 355.538 293.886 355.538Z" fill="#E0E0E0"/>
<path d="M46.1415 91.5814C29.1127 91.5814 15.2598 80.3254 15.2598 66.5368C15.2598 52.7482 29.1127 41.4922 46.1415 41.4922C63.1702 41.4922 77.0231 52.7482 77.0231 66.5368C77.0231 73.3065 73.5981 79.8269 67.6163 84.5303C69.3047 86.1383 72.175 86.6609 75.2945 85.9775L76.7578 85.6639L75.9538 86.9101C74.4262 89.1613 71.3469 90.8256 67.6967 91.3563C64.3803 91.9374 60.9652 91.3341 58.0487 89.6518C54.2117 90.941 50.1893 91.5928 46.1415 91.5814ZM46.1415 42.6982C29.7801 42.6982 16.4658 53.3914 16.4658 66.5368C16.4658 79.6822 29.7479 90.3754 46.1415 90.3754C50.1379 90.3926 54.1088 89.7376 57.8879 88.4377L58.1773 88.3413L58.4266 88.5101C61.1376 90.1341 64.3427 90.7277 67.4555 90.1824C69.822 89.9191 72.0588 88.9656 73.8875 87.4408C70.6715 87.7383 67.8656 86.8056 66.2495 84.868L65.8475 84.3775L66.354 83.9997C72.3599 79.4731 75.8171 73.1617 75.8171 66.5368C75.8171 53.3914 62.5029 42.6982 46.1415 42.6982Z" fill="#EBEBEB"/>
<path d="M356.976 91.5815C339.947 91.5815 326.094 80.3255 326.094 66.5369C326.094 59.7672 329.519 53.2468 335.509 48.5434C333.813 46.9354 330.942 46.4128 327.831 47.0882L326.36 47.4098L327.164 46.1636C328.691 43.9124 331.778 42.2481 335.421 41.7174C338.737 41.1356 342.152 41.739 345.069 43.4219C348.903 42.1336 352.923 41.4817 356.968 41.4923C373.997 41.4923 387.849 52.7483 387.849 66.5369C387.849 80.3255 374.013 91.5815 356.976 91.5815ZM330.363 45.6008C333.081 45.6008 335.445 46.5254 336.868 48.2298L337.27 48.7122L336.763 49.0982C330.749 53.5925 327.3 59.9522 327.3 66.5369C327.3 79.6823 340.614 90.3755 356.976 90.3755C373.337 90.3755 386.651 79.6823 386.651 66.5369C386.651 53.3915 373.353 42.6983 356.976 42.6983C352.967 42.6852 348.985 43.3484 345.197 44.6601L344.908 44.7566L344.659 44.5877C342.375 43.044 339.031 42.4169 335.63 42.9074C333.277 43.1816 331.055 44.1373 329.238 45.657C329.614 45.6182 329.993 45.5994 330.371 45.6008H330.363Z" fill="#EBEBEB"/>
<path d="M196.98 29.5234H250.928C252.078 29.5234 253.18 29.98 253.993 30.7927C254.805 31.6054 255.262 32.7077 255.262 33.857V60.0111C255.253 61.1549 254.793 62.2489 253.981 63.0546C253.17 63.8604 252.072 64.3125 250.928 64.3125H243.612V72.1194C243.614 72.3225 243.553 72.5214 243.439 72.6892C243.324 72.857 243.161 72.9859 242.971 73.0585C242.781 73.131 242.574 73.1439 242.377 73.0953C242.179 73.0468 242.002 72.9391 241.867 72.7867L234.318 64.3125H196.98C195.831 64.3125 194.728 63.8559 193.916 63.0432C193.103 62.2305 192.646 61.1283 192.646 59.979V33.857C192.646 32.7077 193.103 31.6054 193.916 30.7927C194.728 29.98 195.831 29.5234 196.98 29.5234Z" fill="#D9B08C"/>
<path d="M208.461 47.4376H161.025C159.876 47.4376 158.774 47.8941 157.961 48.7068C157.148 49.5195 156.692 50.6218 156.692 51.7711V77.9172C156.692 79.0665 157.148 80.1688 157.961 80.9815C158.774 81.7942 159.876 82.2508 161.025 82.2508H168.333V90.0496C168.332 90.2527 168.392 90.4516 168.507 90.6194C168.621 90.7872 168.784 90.9161 168.974 90.9887C169.164 91.0612 169.371 91.0741 169.569 91.0255C169.766 90.977 169.944 90.8693 170.078 90.7169L177.684 82.2508H208.485C209.635 82.2508 210.737 81.7942 211.55 80.9815C212.362 80.1688 212.819 79.0665 212.819 77.9172V51.755C212.817 51.1853 212.702 50.6215 212.482 50.096C212.262 49.5705 211.94 49.0936 211.535 48.6926C211.131 48.2916 210.651 47.9743 210.123 47.759C209.596 47.5436 209.031 47.4344 208.461 47.4376Z" fill="#D9B08C"/>
<g opacity="0.5">
<path d="M208.461 47.4376H161.025C159.876 47.4376 158.774 47.8941 157.961 48.7068C157.148 49.5195 156.692 50.6218 156.692 51.7711V77.9172C156.692 79.0665 157.148 80.1688 157.961 80.9815C158.774 81.7942 159.876 82.2508 161.025 82.2508H168.333V90.0496C168.332 90.2527 168.392 90.4516 168.507 90.6194C168.621 90.7872 168.784 90.9161 168.974 90.9887C169.164 91.0612 169.371 91.0741 169.569 91.0255C169.766 90.977 169.944 90.8693 170.078 90.7169L177.684 82.2508H208.485C209.635 82.2508 210.737 81.7942 211.55 80.9815C212.362 80.1688 212.819 79.0665 212.819 77.9172V51.755C212.817 51.1853 212.702 50.6215 212.482 50.096C212.262 49.5705 211.94 49.0936 211.535 48.6926C211.131 48.2916 210.651 47.9743 210.123 47.759C209.596 47.5436 209.031 47.4344 208.461 47.4376Z" fill="white"/>
</g>
<path d="M255.262 173.183C255.576 173.107 255.907 173.134 256.204 173.262C256.501 173.389 256.749 173.61 256.91 173.89C257.135 173.721 257.264 173.416 257.529 173.327C257.795 173.239 258.181 173.504 258.39 173.77C259.198 174.843 259.646 176.144 259.669 177.487C259.692 178.831 259.289 180.147 258.518 181.247C258.43 181.387 258.308 181.502 258.164 181.584C257.989 181.658 257.799 181.689 257.61 181.673C256.605 181.641 255.607 181.496 254.635 181.239C254.138 181.163 253.665 180.974 253.254 180.685C252.842 180.396 252.503 180.016 252.263 179.574C252.068 178.869 252.09 178.121 252.327 177.428C252.487 176.481 252.888 175.592 253.493 174.847C253.935 174.34 254.627 173.351 255.262 173.183Z" fill="#AF6152"/>
<path d="M271.125 99.7812C265.015 101.389 261.204 102.338 255.97 111.278C249.851 121.73 241.634 134.088 240.404 137.006C238.153 142.393 238.169 144.363 245.92 153.577C250.744 159.317 256.002 166.256 257.706 168.314C258.51 169.271 257.706 171.249 257.288 172.423C256.613 174.256 257.457 176.25 256.967 179.763C255.707 179.178 254.377 178.757 253.011 178.509C253.011 178.509 255.624 175.703 254.49 173.83C254.449 173.758 254.393 173.695 254.325 173.647C254.258 173.598 254.181 173.564 254.1 173.548C254.019 173.531 253.935 173.532 253.854 173.55C253.773 173.568 253.696 173.603 253.63 173.653C253.003 174.135 252.022 175.261 250.888 176.346C248.878 178.292 249.409 178.71 250.374 182.03C250.76 183.357 251.797 183.735 255.809 184.515C259.821 185.295 261.019 184.764 265.923 180.607C270.828 176.451 269.766 165.886 267.314 161.874C264.862 157.862 257.361 143.125 257.361 143.125L271.077 123.507L271.125 99.7812Z" fill="#C8856A"/>
<path d="M271.599 98.9531C265.039 100.432 261.662 102 258.197 106.881C254.731 111.761 240.171 135.696 239.946 137.818C242.125 141.147 252.207 144.25 257.361 143.141L257.578 143.543L271.599 124.102V98.9531Z" fill="#D9B08C"/>
<path opacity="0.3" d="M271.599 98.9531C265.039 100.432 261.662 102 258.197 106.881C254.731 111.761 240.171 135.696 239.946 137.818C242.125 141.147 252.207 144.25 257.361 143.141L257.578 143.543L271.599 124.102V98.9531Z" fill="black"/>
<path d="M258.703 141.855L258.084 142.804C258.084 142.804 252.126 143.029 247.254 140.858C245.822 140.197 244.577 139.189 243.632 137.926C242.687 136.662 242.072 135.183 241.843 133.622L242.406 132.545C242.301 132.503 242.194 132.468 242.085 132.44C241.822 132.364 241.543 132.364 241.281 132.44C240.625 132.752 240.109 133.297 239.833 133.968C239.582 134.549 239.417 135.164 239.343 135.793C239.257 136.358 239.114 136.913 238.917 137.449C238.769 137.75 238.605 138.043 238.426 138.326C237.974 139.191 237.721 140.147 237.687 141.124C237.63 141.694 237.696 142.269 237.88 142.812C238.065 143.287 238.337 143.724 238.684 144.098C240.838 146.51 244.231 147.387 247.439 147.435C250.929 147.499 255.326 147.435 258.229 145.473C258.391 145.393 258.534 145.28 258.651 145.142C258.767 145.003 258.853 144.843 258.904 144.669C258.944 144.299 258.687 143.954 258.703 143.592C258.752 143.339 258.833 143.093 258.944 142.86C258.999 142.507 258.912 142.146 258.703 141.855Z" fill="#D9B08C"/>
<path opacity="0.6" d="M258.703 141.855L258.084 142.804C258.084 142.804 252.126 143.029 247.254 140.858C245.822 140.197 244.577 139.189 243.632 137.926C242.687 136.662 242.072 135.183 241.843 133.622L242.406 132.545C242.301 132.503 242.194 132.468 242.085 132.44C241.822 132.364 241.543 132.364 241.281 132.44C240.625 132.752 240.109 133.297 239.833 133.968C239.582 134.549 239.417 135.164 239.343 135.793C239.257 136.358 239.114 136.913 238.917 137.449C238.769 137.75 238.605 138.043 238.426 138.326C237.974 139.191 237.721 140.147 237.687 141.124C237.63 141.694 237.696 142.269 237.88 142.812C238.065 143.287 238.337 143.724 238.684 144.098C240.838 146.51 244.231 147.387 247.439 147.435C250.929 147.499 255.326 147.435 258.229 145.473C258.391 145.393 258.534 145.28 258.651 145.142C258.767 145.003 258.853 144.843 258.904 144.669C258.944 144.299 258.687 143.954 258.703 143.592C258.752 143.339 258.833 143.093 258.944 142.86C258.999 142.507 258.912 142.146 258.703 141.855Z" fill="black"/>
<path d="M310.738 333.852C311.052 338.266 311.775 341.176 313.359 343.741C314.943 346.306 317.845 346.917 320.836 346.282C322.673 345.905 324.387 345.075 325.822 343.868C327.257 342.66 328.368 341.113 329.053 339.367C330.106 336.449 329.64 332.935 328.908 328.867L310.738 333.852Z" fill="#263238"/>
<path d="M322.782 301.531C324.004 301.612 324.446 307.529 325.194 313.447C326.038 319.798 328.016 323.32 328.699 327.597C329.656 333.53 329.286 336.208 327.268 339.842C325.25 343.476 317.283 347.319 313.6 342.214C310.601 338.049 310.384 333.37 310.601 327.436C310.786 321.286 310.971 316.984 310.658 312.297C310.36 307.843 309.99 303.525 311.043 303.019C311.14 303.67 311.228 304.498 311.325 305.141C311.397 305.632 311.55 308.044 312.233 308.06C312.286 307.501 312.286 306.938 312.233 306.379C312.15 305.875 312.262 305.357 312.547 304.932C312.915 304.579 313.39 304.358 313.898 304.305C315.092 304.035 316.3 303.828 317.516 303.686C318.124 303.619 318.736 303.584 319.349 303.581C320.097 303.497 320.852 303.497 321.6 303.581C321.747 303.628 321.882 303.705 321.997 303.808C322.112 303.91 322.204 304.036 322.267 304.176C322.332 304.395 322.356 304.624 322.34 304.852C322.347 305.264 322.403 305.675 322.509 306.074C322.557 306.251 322.677 306.46 322.854 306.42C323.031 306.379 323.047 306.202 323.047 306.058C323.047 305.334 322.943 304.812 322.902 303.983C322.902 303.598 322.806 303.067 322.798 302.681C322.79 302.295 322.814 301.917 322.782 301.531Z" fill="#37474F"/>
<path opacity="0.15" d="M324.285 329.146C324.297 329.259 324.264 329.373 324.194 329.463C324.123 329.553 324.021 329.612 323.908 329.628C323.798 329.632 323.692 329.594 323.609 329.523C323.526 329.451 323.474 329.351 323.461 329.243C323.449 329.134 323.479 329.025 323.543 328.937C323.608 328.849 323.704 328.788 323.811 328.768C323.924 328.756 324.036 328.79 324.125 328.86C324.214 328.931 324.271 329.033 324.285 329.146Z" fill="black"/>
<path opacity="0.15" d="M323.819 325.045C323.83 325.158 323.797 325.27 323.727 325.359C323.656 325.448 323.554 325.505 323.441 325.519C323.385 325.526 323.328 325.522 323.274 325.506C323.22 325.491 323.169 325.465 323.125 325.43C323.081 325.394 323.044 325.351 323.017 325.301C322.99 325.252 322.973 325.198 322.967 325.141C322.956 325.029 322.989 324.916 323.059 324.827C323.13 324.739 323.232 324.681 323.345 324.667C323.401 324.66 323.458 324.665 323.512 324.68C323.566 324.696 323.617 324.722 323.661 324.757C323.705 324.792 323.742 324.836 323.769 324.885C323.796 324.935 323.813 324.989 323.819 325.045Z" fill="black"/>
<path opacity="0.15" d="M323.377 321.161C323.39 321.275 323.358 321.39 323.288 321.481C323.217 321.571 323.113 321.63 322.999 321.644C322.89 321.647 322.783 321.61 322.7 321.538C322.618 321.467 322.565 321.367 322.553 321.258C322.541 321.15 322.57 321.04 322.635 320.952C322.7 320.864 322.795 320.804 322.902 320.783C323.015 320.772 323.128 320.805 323.217 320.876C323.305 320.946 323.363 321.049 323.377 321.161Z" fill="black"/>
<path opacity="0.15" d="M322.943 317.333C322.956 317.447 322.924 317.562 322.853 317.652C322.783 317.743 322.679 317.802 322.565 317.816C322.456 317.819 322.349 317.782 322.266 317.71C322.184 317.639 322.131 317.539 322.119 317.43C322.107 317.321 322.136 317.212 322.201 317.124C322.265 317.036 322.361 316.976 322.468 316.955C322.581 316.944 322.694 316.977 322.782 317.048C322.871 317.118 322.929 317.221 322.943 317.333Z" fill="black"/>
<path opacity="0.15" d="M314.243 318.192C314.252 318.275 314.236 318.36 314.197 318.434C314.159 318.509 314.098 318.57 314.025 318.611C313.951 318.651 313.867 318.669 313.783 318.662C313.7 318.655 313.62 318.623 313.554 318.57C313.488 318.518 313.44 318.447 313.414 318.367C313.388 318.287 313.387 318.202 313.41 318.121C313.433 318.04 313.479 317.968 313.543 317.913C313.607 317.858 313.686 317.824 313.769 317.814C313.881 317.805 313.993 317.839 314.081 317.909C314.169 317.979 314.227 318.08 314.243 318.192Z" fill="black"/>
<path opacity="0.15" d="M314.678 322.046C314.686 322.13 314.67 322.214 314.632 322.288C314.593 322.363 314.533 322.424 314.459 322.465C314.385 322.505 314.301 322.523 314.218 322.516C314.134 322.509 314.054 322.477 313.988 322.424C313.923 322.372 313.874 322.301 313.848 322.221C313.822 322.141 313.821 322.056 313.844 321.975C313.867 321.894 313.913 321.822 313.977 321.767C314.041 321.713 314.12 321.678 314.203 321.668C314.259 321.66 314.317 321.664 314.371 321.679C314.426 321.694 314.477 321.72 314.522 321.755C314.566 321.79 314.603 321.834 314.629 321.884C314.656 321.934 314.673 321.989 314.678 322.046Z" fill="black"/>
<path opacity="0.15" d="M315.12 325.919C315.131 326.032 315.098 326.145 315.027 326.233C314.957 326.322 314.854 326.38 314.742 326.394C314.633 326.397 314.526 326.36 314.443 326.288C314.361 326.217 314.308 326.117 314.296 326.008C314.284 325.899 314.313 325.79 314.378 325.702C314.442 325.614 314.538 325.554 314.645 325.533C314.759 325.522 314.873 325.556 314.962 325.629C315.051 325.701 315.108 325.805 315.12 325.919Z" fill="black"/>
<path opacity="0.15" d="M315.586 330.021C315.6 330.135 315.568 330.25 315.497 330.34C315.426 330.43 315.322 330.489 315.208 330.503C315.099 330.507 314.992 330.469 314.91 330.398C314.827 330.326 314.774 330.226 314.762 330.118C314.75 330.009 314.779 329.9 314.844 329.812C314.909 329.724 315.004 329.663 315.112 329.643C315.224 329.631 315.337 329.665 315.426 329.735C315.514 329.806 315.572 329.908 315.586 330.021Z" fill="black"/>
<path opacity="0.15" d="M319.204 331.913L315.522 303.283L317.098 303.227L319.204 331.913Z" fill="black"/>
<path d="M323.883 329.409H323.819C320.989 328.822 317.13 329.28 315.256 330.213C315.205 330.238 315.146 330.242 315.092 330.224C315.038 330.206 314.993 330.167 314.967 330.116C314.953 330.091 314.945 330.063 314.943 330.035C314.94 330.006 314.943 329.978 314.952 329.95C314.962 329.923 314.976 329.898 314.995 329.877C315.014 329.856 315.037 329.839 315.063 329.827C317.049 328.806 320.941 328.339 323.907 328.958C323.935 328.964 323.962 328.975 323.986 328.991C324.009 329.007 324.03 329.028 324.045 329.052C324.061 329.076 324.072 329.103 324.077 329.131C324.082 329.159 324.082 329.188 324.076 329.216C324.067 329.263 324.044 329.308 324.01 329.342C323.975 329.376 323.931 329.4 323.883 329.409Z" fill="#263238"/>
<path d="M323.417 325.301C323.38 325.313 323.341 325.313 323.305 325.301C321.134 324.304 316.929 325.052 314.79 326.145C314.764 326.158 314.736 326.166 314.707 326.167C314.679 326.169 314.65 326.165 314.623 326.156C314.595 326.147 314.57 326.132 314.549 326.113C314.527 326.094 314.509 326.071 314.497 326.045C314.484 326.019 314.477 325.991 314.475 325.962C314.473 325.934 314.477 325.905 314.486 325.877C314.495 325.85 314.51 325.825 314.529 325.803C314.548 325.782 314.571 325.764 314.597 325.752C316.824 324.61 321.198 323.846 323.441 324.899C323.487 324.917 323.525 324.951 323.549 324.993C323.574 325.036 323.583 325.085 323.575 325.134C323.568 325.182 323.544 325.227 323.508 325.26C323.472 325.294 323.426 325.314 323.377 325.317L323.417 325.301Z" fill="#263238"/>
<path d="M322.975 321.429C322.938 321.441 322.899 321.441 322.862 321.429C320.7 320.432 316.487 321.18 314.348 322.233C314.297 322.259 314.238 322.263 314.183 322.245C314.129 322.226 314.084 322.188 314.059 322.137C314.033 322.084 314.029 322.024 314.047 321.969C314.065 321.913 314.104 321.867 314.155 321.839C316.382 320.698 320.756 319.942 323.039 320.995C323.066 321.006 323.09 321.023 323.11 321.044C323.13 321.065 323.146 321.089 323.156 321.116C323.167 321.143 323.172 321.172 323.171 321.201C323.17 321.23 323.164 321.258 323.152 321.285C323.14 321.324 323.118 321.359 323.086 321.385C323.054 321.41 323.016 321.426 322.975 321.429Z" fill="#263238"/>
<path d="M322.541 317.615C322.504 317.627 322.465 317.627 322.428 317.615C320.257 316.618 316.052 317.366 313.914 318.419C313.862 318.444 313.803 318.448 313.749 318.43C313.695 318.412 313.65 318.373 313.624 318.323C313.61 318.297 313.602 318.269 313.599 318.239C313.597 318.21 313.6 318.181 313.609 318.153C313.618 318.126 313.633 318.1 313.652 318.078C313.671 318.056 313.694 318.038 313.721 318.025C315.948 316.891 320.322 316.128 322.605 317.181C322.632 317.192 322.656 317.209 322.676 317.23C322.696 317.25 322.712 317.275 322.722 317.302C322.733 317.329 322.738 317.358 322.737 317.387C322.736 317.415 322.729 317.444 322.717 317.47C322.706 317.51 322.683 317.544 322.652 317.57C322.62 317.596 322.581 317.612 322.541 317.615Z" fill="#263238"/>
<path d="M283.748 316.206L278.546 314.421L280.122 310.852L283.378 313.73L283.748 316.206Z" fill="black"/>
<path d="M288.781 306.688C288.781 306.688 289.086 310.064 289.167 311.126C289.247 312.187 284.849 315.636 283.748 316.223L283.378 313.739C282.445 314.744 281.907 315.998 280.966 317.847C280.162 319.391 279.133 322.301 276.809 324.327C273.368 327.342 267.909 328.99 262.297 329.368C256.685 329.746 253.453 328.46 251.789 327.278C250.124 326.096 249.61 324.681 249.964 323.258C250.317 321.835 288.781 306.688 288.781 306.688Z" fill="#263238"/>
<path d="M273.408 295.626L273.28 293.672C272.242 293.672 272.202 296.518 270.771 299.051C268.694 302.844 266.141 306.357 263.173 309.503C257.642 314.914 252.657 318.347 250.189 320.759C246.884 324.047 253.011 328.871 262.16 328.067C266.703 327.665 274.719 325.108 276.906 322.326C279.093 319.545 280.363 315.267 282.116 313.241C283.868 311.215 287.744 309.101 288.781 306.673C289.368 305.338 288.942 302.283 288.491 299.686C288.073 297.274 287.896 293.64 286.57 293.977L286.505 295.216C285.991 296.277 284.785 298.046 281.135 298.785C279.31 299.163 273.85 299.501 273.408 295.626Z" fill="#37474F"/>
<path opacity="0.15" d="M278.184 298.978C276.423 298.881 274.526 298.35 273.738 296.783V296.734C273.86 297.408 273.828 298.1 273.643 298.759C273.457 299.418 273.124 300.026 272.669 300.537C271.061 302.523 261.155 316.497 261.155 316.497C261.155 316.497 270.45 304.935 272.226 302.756C274.872 299.54 275.724 299.146 278.224 298.986L278.184 298.978Z" fill="black"/>
<path opacity="0.15" d="M276.013 302.667C276.023 302.741 276.047 302.812 276.085 302.876C276.122 302.94 276.172 302.996 276.231 303.041C276.29 303.085 276.357 303.118 276.429 303.137C276.5 303.156 276.575 303.16 276.648 303.15C276.787 303.117 276.908 303.034 276.989 302.916C277.069 302.798 277.102 302.655 277.082 302.514C277.062 302.372 276.99 302.244 276.88 302.154C276.77 302.063 276.63 302.017 276.488 302.024C276.414 302.035 276.343 302.06 276.28 302.098C276.216 302.137 276.161 302.187 276.116 302.247C276.072 302.307 276.041 302.375 276.023 302.447C276.005 302.519 276.002 302.594 276.013 302.667Z" fill="black"/>
<path opacity="0.15" d="M273.4 305.779C273.42 305.926 273.497 306.059 273.615 306.149C273.732 306.239 273.88 306.28 274.027 306.261C274.176 306.239 274.311 306.159 274.401 306.039C274.491 305.918 274.53 305.767 274.51 305.618C274.505 305.54 274.485 305.464 274.45 305.394C274.414 305.324 274.365 305.263 274.304 305.213C274.244 305.164 274.174 305.127 274.098 305.106C274.023 305.086 273.944 305.081 273.867 305.092C273.79 305.103 273.716 305.13 273.649 305.172C273.583 305.213 273.526 305.268 273.482 305.332C273.438 305.397 273.408 305.47 273.394 305.547C273.38 305.624 273.382 305.703 273.4 305.779Z" fill="black"/>
<path opacity="0.15" d="M270.787 308.873C270.796 308.946 270.819 309.017 270.856 309.08C270.893 309.144 270.942 309.199 271 309.244C271.059 309.288 271.125 309.32 271.197 309.338C271.268 309.356 271.342 309.359 271.414 309.348C271.525 309.334 271.63 309.287 271.714 309.213C271.798 309.14 271.859 309.043 271.887 308.935C271.916 308.826 271.912 308.712 271.876 308.606C271.839 308.501 271.772 308.408 271.683 308.341C271.594 308.273 271.487 308.234 271.375 308.227C271.263 308.221 271.152 308.248 271.056 308.306C270.96 308.363 270.883 308.447 270.835 308.549C270.787 308.65 270.77 308.763 270.787 308.873Z" fill="black"/>
<path opacity="0.15" d="M268.174 311.976C268.182 312.05 268.205 312.121 268.241 312.186C268.277 312.25 268.326 312.307 268.384 312.352C268.443 312.397 268.51 312.43 268.582 312.448C268.654 312.466 268.728 312.47 268.801 312.459C268.875 312.449 268.945 312.424 269.009 312.387C269.073 312.35 269.129 312.3 269.174 312.241C269.219 312.182 269.252 312.115 269.27 312.043C269.289 311.972 269.294 311.897 269.284 311.824C269.274 311.75 269.249 311.679 269.212 311.616C269.175 311.552 269.125 311.496 269.066 311.451C269.007 311.406 268.94 311.373 268.868 311.354C268.797 311.336 268.722 311.331 268.649 311.341C268.575 311.351 268.505 311.375 268.441 311.413C268.378 311.45 268.322 311.5 268.278 311.559C268.234 311.618 268.202 311.686 268.184 311.757C268.166 311.829 268.163 311.903 268.174 311.976Z" fill="black"/>
<path opacity="0.15" d="M265.561 315.086C265.57 315.159 265.593 315.229 265.63 315.293C265.666 315.357 265.715 315.413 265.774 315.458C265.832 315.503 265.899 315.536 265.97 315.555C266.041 315.574 266.115 315.578 266.188 315.568C266.336 315.548 266.471 315.47 266.561 315.35C266.652 315.231 266.691 315.081 266.671 314.933C266.65 314.785 266.572 314.651 266.453 314.56C266.334 314.47 266.184 314.43 266.036 314.451C265.962 314.46 265.892 314.485 265.828 314.522C265.765 314.559 265.709 314.609 265.665 314.668C265.621 314.728 265.589 314.795 265.571 314.867C265.553 314.938 265.55 315.013 265.561 315.086Z" fill="black"/>
<path d="M276.576 302.815C276.618 302.808 276.658 302.79 276.69 302.762C276.723 302.734 276.747 302.698 276.76 302.657C276.774 302.616 276.775 302.573 276.766 302.531C276.756 302.49 276.735 302.451 276.705 302.421C276.584 302.316 273.81 299.776 270.273 300.089C270.214 300.097 270.16 300.128 270.123 300.174C270.085 300.22 270.067 300.279 270.072 300.339C270.075 300.368 270.083 300.397 270.098 300.423C270.112 300.449 270.131 300.472 270.154 300.491C270.177 300.51 270.204 300.524 270.233 300.532C270.261 300.54 270.291 300.543 270.321 300.54C273.641 300.242 276.359 302.734 276.391 302.759C276.415 302.782 276.444 302.8 276.477 302.809C276.509 302.819 276.543 302.821 276.576 302.815Z" fill="#263238"/>
<path d="M273.979 305.909C274.031 305.899 274.079 305.874 274.116 305.836C274.137 305.816 274.154 305.79 274.166 305.763C274.177 305.735 274.183 305.706 274.183 305.676C274.183 305.646 274.177 305.616 274.166 305.588C274.154 305.561 274.137 305.536 274.116 305.515C273.995 305.402 271.221 302.862 267.684 303.175C267.625 303.181 267.572 303.21 267.534 303.255C267.497 303.3 267.478 303.358 267.483 303.416C267.489 303.477 267.518 303.533 267.565 303.572C267.612 303.611 267.671 303.63 267.732 303.625C271.045 303.328 273.77 305.812 273.794 305.836C273.818 305.861 273.847 305.88 273.879 305.893C273.911 305.905 273.945 305.911 273.979 305.909Z" fill="#263238"/>
<path d="M271.366 309.027C271.408 309.02 271.448 309.002 271.48 308.974C271.513 308.946 271.537 308.91 271.55 308.869C271.564 308.829 271.566 308.785 271.556 308.743C271.546 308.702 271.525 308.664 271.495 308.633C271.374 308.521 268.6 305.98 265.063 306.302C265.004 306.308 264.951 306.336 264.913 306.381C264.876 306.426 264.857 306.484 264.862 306.543C264.868 306.603 264.897 306.659 264.944 306.698C264.99 306.737 265.05 306.756 265.111 306.752C268.431 306.454 271.149 308.939 271.181 308.963C271.205 308.987 271.234 309.006 271.266 309.017C271.298 309.028 271.332 309.032 271.366 309.027Z" fill="#263238"/>
<path d="M268.753 312.135C268.795 312.129 268.835 312.11 268.867 312.082C268.9 312.055 268.924 312.018 268.938 311.978C268.951 311.937 268.953 311.893 268.943 311.852C268.933 311.81 268.912 311.772 268.882 311.741C268.761 311.629 265.987 309.088 262.45 309.402C262.392 309.412 262.339 309.442 262.302 309.488C262.265 309.534 262.246 309.592 262.249 309.651C262.255 309.711 262.284 309.767 262.331 309.806C262.378 309.845 262.437 309.865 262.498 309.86C265.819 309.563 268.536 312.047 268.568 312.071C268.592 312.096 268.621 312.114 268.653 312.125C268.685 312.136 268.719 312.14 268.753 312.135Z" fill="#263238"/>
<path d="M266.124 315.198C266.151 315.197 266.177 315.19 266.201 315.177C266.224 315.165 266.245 315.147 266.261 315.125C266.282 315.104 266.299 315.079 266.311 315.052C266.322 315.024 266.328 314.994 266.328 314.965C266.328 314.935 266.322 314.905 266.311 314.877C266.299 314.85 266.282 314.825 266.261 314.804C266.14 314.699 263.366 312.159 259.829 312.472C259.775 312.486 259.728 312.519 259.696 312.565C259.665 312.611 259.651 312.667 259.656 312.722C259.662 312.777 259.688 312.829 259.728 312.867C259.769 312.905 259.821 312.928 259.877 312.93C263.189 312.633 265.915 315.117 265.947 315.141C265.97 315.164 265.998 315.18 266.029 315.19C266.06 315.2 266.092 315.203 266.124 315.198Z" fill="#263238"/>
<path d="M322.726 169.297C325.202 204.882 325.339 243.402 325.339 243.402C326.459 251.889 327.09 260.433 327.228 268.993C327.349 281.937 325.805 309.619 325.805 309.619C325.805 309.619 317.652 315.456 308.857 311.058C308.857 311.058 302.328 276.02 299.394 257.238C297.046 242.22 294.481 226.558 294.481 226.558L292.527 242.517C293.478 249.172 293.793 255.902 293.468 262.617C292.97 270.175 289.52 301.209 289.52 301.209C289.52 301.209 277.01 307.641 268.737 299.263C268.737 299.263 266.14 250.437 265.609 241.375C264.564 223.551 264.331 192.251 264.757 169.627L322.726 169.297Z" fill="#455A64"/>
<path d="M294.473 226.567L289.287 192.091C289.287 192.091 280.701 191.126 276.174 187.211C276.174 187.211 279.189 192.493 287.325 194.302L291.619 222.273L292.519 242.526L294.473 226.567Z" fill="#263238"/>
<path d="M302.457 95.4871C305.89 96.1383 310.039 96.9745 310.039 96.9745C310.039 96.9745 315.916 99.0327 317.749 99.7965C317.749 99.7965 327.566 113.038 325.025 129.882C324.495 133.396 323.104 145.512 323.152 152.861C323.208 162.782 323.457 173.531 323.457 173.531C323.457 173.531 312.201 180.486 288.041 179.055C269.043 177.929 264.46 172.856 264.46 172.856C264.46 172.856 264.677 147.241 264.95 133.243C265.304 114.855 267.555 102.241 271.599 98.9684L285.026 94.5625L302.457 95.4871Z" fill="#D9B08C"/>
<path opacity="0.6" d="M302.457 95.4871C305.89 96.1383 310.039 96.9745 310.039 96.9745C310.039 96.9745 315.916 99.0327 317.749 99.7965C317.749 99.7965 327.566 113.038 325.025 129.882C324.495 133.396 323.104 145.512 323.152 152.861C323.208 162.782 323.457 173.531 323.457 173.531C323.457 173.531 312.201 180.486 288.041 179.055C269.043 177.929 264.46 172.856 264.46 172.856C264.46 172.856 264.677 147.241 264.95 133.243C265.304 114.855 267.555 102.241 271.599 98.9684L285.026 94.5625L302.457 95.4871Z" fill="black"/>
<path d="M310.714 59.9557C309.907 58.3333 308.517 57.0756 306.823 56.4342C305.898 51.8433 299.868 48.6032 296.145 47.4053C291.08 45.7973 285.894 46.9631 281.119 48.9248C279.456 49.7289 277.617 50.1021 275.772 50.0102C274.968 49.9137 274.068 49.5278 273.931 48.7399C273.637 48.9337 273.385 49.1856 273.192 49.48C272.998 49.7745 272.867 50.1054 272.805 50.4524C272.377 52.0665 272.551 53.7816 273.296 55.2764C272.947 55.3621 272.62 55.5202 272.336 55.7405C272.052 55.9607 271.817 56.2381 271.648 56.5548C271.059 57.512 270.715 58.5986 270.643 59.7198C270.572 60.841 270.776 61.9626 271.238 62.9868C273.175 67.2882 277.846 67.3123 281.77 68.5424L293.46 72.1443L303.261 75.1995L303.108 80.3371V87.6696C304.261 87.2862 305.222 86.4745 305.793 85.4023C307.522 82.1365 308.796 78.6497 309.58 75.0387C311.952 65.4309 311.719 61.7647 310.714 59.9557Z" fill="#263238"/>
<path d="M309.91 81.5341C306.139 83.4959 304.322 80.5211 304.322 80.5211L304.161 95.7167C300.141 100.991 292.061 100.806 286.578 106.587C284.431 103.057 284.013 98.0885 285.283 95.1459L285.203 91.6806C284.095 91.6854 282.987 91.6074 281.891 91.4475C278.506 91.0053 275.603 88.738 274.502 84.2115C273.167 78.7603 273.336 68.2681 274.703 61.0482C275.225 58.2664 276.102 57.4785 277.71 56.6343C281.73 54.5197 293.581 53.8363 296.893 58.6925C296.507 61.6834 297.456 64.9637 300.222 65.8803C300.439 70.6078 301.171 72.8751 303.044 73.6067C304.571 74.2017 305.247 71.8459 306.26 70.7284C306.753 70.2918 307.341 69.9757 307.977 69.805C308.613 69.6342 309.28 69.6135 309.925 69.7445C310.57 69.8754 311.177 70.1544 311.696 70.5596C312.215 70.9647 312.633 71.4849 312.917 72.0791C313.353 72.8947 313.621 73.7894 313.706 74.7104C313.791 75.6314 313.69 76.56 313.409 77.4414C313.129 78.3227 312.675 79.139 312.074 79.842C311.473 80.5449 310.737 81.1203 309.91 81.5341Z" fill="#C8856A"/>
<path d="M285.203 91.689C289.633 91.5442 293.549 90.885 296.137 89.7192C298.726 88.5534 300.961 84.9434 301.613 81.4219C301.685 84.2439 300.584 89.285 296.676 91.4638C292.769 93.6427 288.154 93.8758 285.259 94.0286L285.203 91.689Z" fill="#AF6152"/>
<path d="M289.44 64.562L292.865 66.7569C293.152 66.2873 293.245 65.7248 293.125 65.1878C293.005 64.6508 292.681 64.1814 292.222 63.8786C291.996 63.7354 291.743 63.6394 291.479 63.5963C291.215 63.5532 290.945 63.5638 290.685 63.6277C290.426 63.6915 290.181 63.8071 289.967 63.9677C289.753 64.1283 289.574 64.3304 289.44 64.562Z" fill="#263238"/>
<path d="M275.619 65.5286L279.382 63.9206C279.289 63.6705 279.147 63.442 278.963 63.249C278.779 63.0559 278.557 62.9024 278.312 62.7978C278.067 62.6932 277.803 62.6397 277.536 62.6406C277.269 62.6415 277.006 62.6968 276.761 62.803C276.258 63.0247 275.859 63.431 275.647 63.9381C275.434 64.4452 275.424 65.0145 275.619 65.5286Z" fill="#263238"/>
<path d="M291.611 69.7902C291.608 70.1191 291.506 70.4396 291.32 70.7107C291.134 70.9819 290.871 71.1915 290.566 71.3128C290.26 71.4342 289.925 71.4618 289.604 71.392C289.282 71.3223 288.989 71.1585 288.761 70.9214C288.533 70.6843 288.381 70.3847 288.324 70.0608C288.267 69.7369 288.307 69.4033 288.44 69.1026C288.574 68.8018 288.793 68.5476 289.072 68.3722C289.35 68.1969 289.674 68.1083 290.003 68.1179C290.437 68.1305 290.848 68.3128 291.149 68.6255C291.449 68.9382 291.615 69.3564 291.611 69.7902Z" fill="#263238"/>
<path d="M280.041 69.2744C280.04 69.6036 279.94 69.9249 279.755 70.1971C279.569 70.4694 279.307 70.6802 279.002 70.8028C278.696 70.9254 278.361 70.9541 278.039 70.8853C277.717 70.8165 277.423 70.6532 277.194 70.4164C276.965 70.1797 276.812 69.88 276.755 69.5559C276.697 69.2317 276.737 68.8977 276.87 68.5965C277.003 68.2953 277.223 68.0406 277.501 67.8649C277.78 67.6892 278.104 67.6005 278.433 67.6101C278.865 67.6247 279.274 67.8064 279.574 68.117C279.874 68.4275 280.042 68.8425 280.041 69.2744Z" fill="#263238"/>
<path d="M284.769 66.9844L283.683 77.557L278.055 75.6515C279.615 72.2953 281.909 69.3331 284.769 66.9844Z" fill="#AF6152"/>
<path d="M289.287 79.0078L283.708 81.0178C283.824 81.3926 284.014 81.7401 284.268 82.0395C284.522 82.339 284.833 82.5842 285.183 82.7606C285.534 82.937 285.916 83.0409 286.308 83.0661C286.699 83.0913 287.092 83.0372 287.462 82.9072C288.212 82.6195 288.821 82.0526 289.161 81.3255C289.501 80.5983 289.547 79.7676 289.287 79.0078Z" fill="#AF6152"/>
<path d="M288.725 80.0338C288.959 79.9766 289.199 79.947 289.44 79.9453C289.457 80.5825 289.276 81.2094 288.922 81.7393C288.568 82.2693 288.058 82.6762 287.462 82.904C287.16 83.0095 286.842 83.0612 286.522 83.0568C286.43 82.3663 286.608 81.6671 287.018 81.1041C287.428 80.5412 288.039 80.1579 288.725 80.0338Z" fill="#F28F8F"/>
<path d="M286.578 106.57C286.578 106.57 289.392 103.974 291.201 103.974C293.291 103.974 295.221 107.809 295.792 109.151C296.363 110.494 296.242 110.478 298.083 109.312C301.32 107.295 304.386 105.015 307.249 102.494C310.826 99.1656 311.068 96.9627 311.068 96.9627C311.068 96.9627 305.44 91.3347 304.21 91.4874V93.4653C303.96 95.3064 292.64 99.5274 291.643 100.452C289.787 102.347 288.093 104.393 286.578 106.57Z" fill="#D9B08C"/>
<path d="M279.897 107.544C280.17 108.299 282.084 101.843 283.249 101.988C283.812 102.044 285.05 104.255 286.578 106.571C286.128 104.762 285.042 102.639 284.97 100.267C284.956 98.5499 285.058 96.8334 285.275 95.1298L285.227 93.3047C284.841 93.3047 283.619 94.0122 282.333 95.4755C281.163 96.7672 280.371 98.3552 280.041 100.066C279.589 102.534 279.54 105.06 279.897 107.544Z" fill="#D9B08C"/>
<g opacity="0.3">
<path d="M286.578 106.57C286.578 106.57 289.392 103.974 291.201 103.974C293.291 103.974 295.221 107.809 295.792 109.151C296.363 110.494 296.242 110.478 298.083 109.312C301.32 107.295 304.386 105.015 307.249 102.494C310.826 99.1656 311.068 96.9627 311.068 96.9627C311.068 96.9627 305.44 91.3347 304.21 91.4874V93.4653C303.96 95.3064 292.64 99.5274 291.643 100.452C289.787 102.347 288.093 104.393 286.578 106.57Z" fill="black"/>
<path d="M279.897 107.544C280.17 108.299 282.084 101.843 283.249 101.988C283.812 102.044 285.05 104.255 286.578 106.571C286.128 104.762 285.042 102.639 284.97 100.267C284.956 98.5499 285.058 96.8334 285.275 95.1298L285.227 93.3047C284.841 93.3047 283.619 94.0122 282.333 95.4755C281.163 96.7672 280.371 98.3552 280.041 100.066C279.589 102.534 279.54 105.06 279.897 107.544Z" fill="black"/>
</g>
<path d="M317.749 99.7891C328.908 102.7 330.436 105.522 335.051 115.113C337.423 120.042 343.34 131.563 345.085 135.446C350.48 147.506 350.834 154.236 347.272 157.05C343.196 160.266 320.306 131.716 320.306 131.716C320.306 131.716 308.865 108.183 317.749 99.7891Z" fill="#D9B08C"/>
<path opacity="0.3" d="M317.749 99.7891C328.908 102.7 330.436 105.522 335.051 115.113C337.423 120.042 343.34 131.563 345.085 135.446C350.48 147.506 350.834 154.236 347.272 157.05C343.196 160.266 320.306 131.716 320.306 131.716C320.306 131.716 308.865 108.183 317.749 99.7891Z" fill="black"/>
<path opacity="0.3" d="M339.417 151.87C338.452 150.881 337.358 149.707 336.201 148.437C330.573 141.659 320.306 131.721 320.306 131.721C319.26 129.531 318.328 127.287 317.516 125C321.27 127.01 336.233 134.415 340.591 137.864C345.318 141.595 345.841 144.963 347.119 148.831L339.417 151.87Z" fill="black"/>
<path d="M331.505 133.944C336.555 133.325 346.822 138.182 349.025 141.494C351.228 144.807 350.134 147.564 350.793 149.663C351.453 151.761 351.734 155.62 349.612 157.703C347.489 159.785 341.17 162.068 335.14 157.18L331.505 133.944Z" fill="#D9B08C"/>
<path opacity="0.6" d="M331.505 133.944C336.555 133.325 346.822 138.182 349.025 141.494C351.228 144.807 350.134 147.564 350.793 149.663C351.453 151.761 351.734 155.62 349.612 157.703C347.489 159.785 341.17 162.068 335.14 157.18L331.505 133.944Z" fill="black"/>
<path d="M320.973 128.9C316.43 126.592 314.847 125.941 311.55 122.653C308.254 119.364 305.343 117.684 303.004 116.076C300.664 114.468 299.152 111.718 297.882 110.561C296.998 109.757 295.88 111.212 296.202 113.326C296.427 114.79 297.544 116.478 299.088 118.15C300.632 119.823 299.82 119.63 297.906 119.364C294.409 119.091 290.895 119.091 287.398 119.364C285.476 119.646 283.611 120.345 283.917 121.567C283.917 121.567 280.829 121.278 280.701 122.91C280.572 124.542 282.879 125.708 282.879 125.708C282.879 125.708 282.767 127.059 285.155 127.871C286.497 128.329 290.574 128.924 292.029 129.302C293.685 129.728 295.462 130.371 295.462 130.371C293.092 130.251 290.717 130.251 288.347 130.371C286.393 130.628 286.658 131.979 288.918 132.912C291.177 133.844 297.705 133.812 299.643 134.6C301.581 135.388 303.293 135.734 307.056 136.152C309.074 136.329 310.945 137.283 312.274 138.813C314.557 141.225 324.728 149.563 327.333 152.296C330.044 155.05 333.482 156.976 337.246 157.852C342.271 159.211 346.508 157.892 347.441 156.959C348.373 156.027 348.88 152.875 346.781 148.027C344.016 141.635 342.633 140.421 338.082 137.535C333.017 134.335 323.409 130.13 320.973 128.9Z" fill="#C8856A"/>
<path d="M299.088 118.135C300.029 119.148 300.093 119.478 299.579 119.518C300.318 119.518 301.806 119.832 301.991 119.237C302.175 118.642 300.696 117.805 299.241 116.825C297.978 115.919 296.943 114.733 296.218 113.359C296.427 114.79 297.544 116.479 299.088 118.135Z" fill="#AF6152"/>
<path d="M283.917 121.548C286.907 121.303 289.911 121.278 292.905 121.475C294.143 121.558 295.374 121.727 296.588 121.982C297.805 122.211 299.01 122.504 300.198 122.858C298.968 122.858 297.745 122.754 296.531 122.633C295.317 122.513 294.119 122.368 292.921 122.328C291.723 122.287 288.789 122.094 287.567 121.966C286.345 121.837 285.139 121.692 283.917 121.548Z" fill="#AF6152"/>
<path d="M282.847 125.685C282.832 125.517 282.863 125.347 282.936 125.195C283.031 125.045 283.164 124.924 283.322 124.841C283.636 124.693 283.973 124.598 284.319 124.56C284.994 124.486 285.675 124.473 286.353 124.52C287.687 124.576 290.71 124.753 292.045 124.897C292.712 124.986 293.388 125.066 294.063 125.195C294.738 125.324 295.398 125.525 296.041 125.693C297.335 126.039 298.638 126.409 299.932 126.835C298.59 126.731 297.255 126.57 295.912 126.345C295.237 126.24 294.586 126.063 293.951 125.991C293.315 125.918 292.64 125.814 291.981 125.75C290.654 125.589 287.639 125.372 286.313 125.187C285.663 125.081 285.008 125.014 284.351 124.986C283.756 124.954 283.008 124.97 282.847 125.685Z" fill="#AF6152"/>
<path d="M299.361 130.559C299.361 130.559 297.175 130.093 295.928 129.755C294.682 129.417 290.59 129.023 290.59 129.023C290.927 129.08 291.715 129.192 291.997 129.265C293.653 129.691 295.43 130.334 295.43 130.334C296.743 130.341 298.056 130.417 299.361 130.559Z" fill="#AF6152"/>
<path d="M119.225 295.861L117.786 281.47L135.675 279.781C135.675 279.781 134.871 291.158 134.911 296.376C134.911 298.836 136.632 303.483 136.632 303.483C136.632 303.483 129.557 307.069 125.923 305.541C122.288 304.014 119.917 298.233 120.013 297.18L119.225 295.861Z" fill="#FFBDA7"/>
<path d="M156.933 321.103C157.182 321.103 157.271 323.419 155.856 324.488C154.248 325.726 149.086 328.01 143.088 326.9C137.09 325.791 133.922 323.773 131.615 321.642C129.307 319.511 126.091 316.512 123.39 315.773C120.969 314.969 118.727 313.702 116.789 312.042C115.985 311.238 116.331 307.789 116.331 307.789L156.933 321.103Z" fill="#263238"/>
<path d="M119.097 294.523C119.097 294.523 118.759 294.668 118.558 295.456C118.317 296.397 117.955 299.138 117.464 300.674C116.781 302.805 116.146 307.211 116.379 308.987C116.612 310.764 121.308 313.152 123.896 314.294C126.929 315.803 129.716 317.763 132.162 320.107C134.863 322.567 140.7 325.301 144.648 325.494C149.311 325.719 154.649 324.521 155.976 322.462C157.584 319.914 158.879 316.915 152.157 313.377C150.879 312.702 146.441 309.767 144.921 308.714C140.837 305.852 137.999 303.271 136.318 298.511C136.194 297.931 135.873 297.411 135.41 297.04C134.996 296.839 134.529 296.772 134.075 296.847C132.909 296.935 128.278 297.305 127.201 297.739C126.244 298.125 124.901 298.543 124.853 299.725C124.853 300.135 124.918 300.542 125.046 300.931C125.111 301.173 125.159 301.494 124.942 301.623C124.725 301.751 124.475 301.583 124.298 301.414C123.661 300.692 123.083 299.92 122.57 299.106C122.062 298.373 121.506 297.675 120.906 297.016C120.509 296.771 120.128 296.502 119.764 296.212C119.349 295.745 119.113 295.147 119.097 294.523Z" fill="#455A64"/>
<path d="M132.162 320.111C131.011 319.055 129.806 318.059 128.552 317.128C128.552 317.128 136.399 322.442 139.808 320.424C142.003 319.114 141.102 317.329 141.078 316.774C141.054 316.219 148.764 312.754 150.831 312.609C151.385 312.955 151.844 313.245 152.149 313.413C157.423 315.825 157.978 318.615 156.877 322.008C155.55 324.074 150.742 326.028 144.712 325.674C140.781 325.417 134.863 322.571 132.162 320.111Z" fill="#37474F"/>
<path d="M140.612 315.161C144.817 317.091 142.935 317.782 141.721 317.879C140.507 317.975 133.512 313.424 129.299 309.742C124.91 305.899 121.605 300.898 119.973 299.475C119.362 298.944 118.711 298.301 118.14 297.706C118.301 296.782 118.445 295.937 118.558 295.495C118.759 294.691 119.097 294.562 119.097 294.562C119.221 295.156 119.45 295.722 119.772 296.235C120.136 296.525 120.517 296.794 120.914 297.039C121.514 297.698 122.07 298.396 122.578 299.129C123.091 299.943 123.669 300.715 124.307 301.437C127.788 306.317 136.415 313.191 140.612 315.161Z" fill="#37474F"/>
<path d="M141.448 317.209C141.37 317.202 141.295 317.174 141.232 317.128C141.169 317.082 141.12 317.019 141.09 316.947C141.06 316.875 141.051 316.796 141.063 316.719C141.075 316.641 141.108 316.569 141.158 316.509C142.461 315.11 148.394 311.959 151.562 312.489C151.617 312.498 151.669 312.518 151.716 312.547C151.763 312.576 151.803 312.614 151.836 312.658C151.868 312.703 151.891 312.754 151.903 312.808C151.915 312.862 151.917 312.917 151.908 312.972C151.899 313.027 151.879 313.08 151.85 313.127C151.82 313.175 151.782 313.216 151.736 313.248C151.69 313.28 151.638 313.303 151.584 313.315C151.529 313.327 151.472 313.328 151.417 313.317C148.483 312.835 142.823 315.979 141.769 317.08C141.728 317.123 141.678 317.157 141.623 317.179C141.567 317.201 141.508 317.212 141.448 317.209Z" fill="#263238"/>
<path d="M137.838 314.723C137.74 314.721 137.646 314.684 137.573 314.618C137.532 314.58 137.5 314.534 137.478 314.483C137.456 314.431 137.445 314.376 137.445 314.321C137.445 314.265 137.456 314.21 137.478 314.159C137.5 314.108 137.532 314.061 137.573 314.023C138.867 312.632 144.809 309.481 147.968 310.003C148.023 310.012 148.075 310.031 148.122 310.06C148.169 310.09 148.209 310.128 148.242 310.172C148.274 310.217 148.297 310.268 148.309 310.322C148.321 310.376 148.323 310.431 148.314 310.486C148.306 310.541 148.287 310.595 148.258 310.643C148.229 310.691 148.19 310.733 148.144 310.765C148.098 310.798 148.046 310.82 147.991 310.832C147.936 310.843 147.879 310.843 147.824 310.831C144.889 310.357 139.229 313.493 138.176 314.602C138.132 314.646 138.079 314.68 138.02 314.7C137.962 314.721 137.9 314.729 137.838 314.723Z" fill="#263238"/>
<path d="M134.212 312.363C134.132 312.358 134.056 312.33 133.992 312.284C133.927 312.237 133.877 312.173 133.847 312.1C133.817 312.026 133.808 311.946 133.821 311.867C133.835 311.789 133.87 311.716 133.922 311.656C135.217 310.265 141.158 307.113 144.318 307.636C144.373 307.644 144.426 307.663 144.473 307.691C144.521 307.72 144.562 307.758 144.594 307.803C144.627 307.848 144.649 307.899 144.661 307.954C144.673 308.008 144.674 308.064 144.664 308.118C144.655 308.174 144.635 308.227 144.606 308.274C144.576 308.322 144.537 308.363 144.492 308.395C144.446 308.427 144.394 308.45 144.34 308.462C144.285 308.474 144.228 308.474 144.173 308.464C141.239 307.982 135.579 311.117 134.525 312.227C134.485 312.27 134.437 312.304 134.383 312.328C134.329 312.352 134.271 312.364 134.212 312.363Z" fill="#263238"/>
<path d="M130.875 309.707C130.797 309.701 130.723 309.673 130.66 309.626C130.597 309.58 130.547 309.518 130.518 309.446C130.488 309.373 130.478 309.294 130.49 309.217C130.502 309.14 130.535 309.067 130.586 309.008C131.888 307.609 137.822 304.465 140.981 304.988C141.092 305.006 141.191 305.066 141.257 305.156C141.323 305.247 141.351 305.359 141.335 305.47C141.316 305.581 141.253 305.679 141.161 305.744C141.069 305.809 140.956 305.835 140.845 305.816C137.91 305.341 132.25 308.477 131.197 309.579C131.155 309.622 131.105 309.656 131.05 309.678C130.994 309.7 130.935 309.71 130.875 309.707Z" fill="#263238"/>
<path d="M127.619 307.062C127.524 307.056 127.434 307.019 127.362 306.957C127.322 306.918 127.291 306.872 127.27 306.821C127.248 306.77 127.237 306.715 127.237 306.66C127.237 306.604 127.248 306.55 127.27 306.498C127.291 306.447 127.322 306.401 127.362 306.362C129.155 304.384 135.345 301.82 138.489 302.342C138.544 302.351 138.596 302.37 138.643 302.399C138.69 302.429 138.73 302.467 138.762 302.511C138.795 302.556 138.817 302.607 138.83 302.661C138.842 302.715 138.844 302.77 138.835 302.825C138.815 302.935 138.753 303.034 138.661 303.098C138.569 303.163 138.455 303.189 138.344 303.17C135.522 302.704 129.589 305.172 127.997 306.925C127.951 306.978 127.892 307.019 127.826 307.043C127.76 307.067 127.688 307.073 127.619 307.062Z" fill="#263238"/>
<path d="M86.3577 303.57L91.4712 286.115L74.1852 282.336L72.7942 299.791C72.7942 299.791 71.1862 304.406 72.0465 306.078C72.9068 307.75 83.3025 310.098 84.3397 309.077C85.3768 308.056 86.3577 303.57 86.3577 303.57Z" fill="#FFBDA7"/>
<path d="M82.8121 331.358C82.1046 335.298 81.1076 337.79 79.2504 339.865C77.3931 341.939 74.3138 342.092 71.3471 340.845C68.3803 339.599 64.698 337.051 64.2156 333.449C63.7332 329.847 64.2156 327.523 65.2849 323.945L82.8121 331.358Z" fill="#263238"/>
<path d="M72.7943 299.786C71.532 299.641 71.6767 302.785 70.7441 308.099C69.731 313.856 66.8286 318.238 65.6065 322.821C64.2076 328.063 64.2558 330.523 66.0085 334.173C67.7612 337.823 74.9088 342.398 79.1298 338.418C82.579 335.202 83.1498 330.981 83.5116 325.554C83.6696 320.954 84.0911 316.366 84.7739 311.814C85.4734 307.794 87.3949 304.216 86.3819 303.565C86.2291 304.144 84.8945 308.148 84.195 308.035C84.1936 307.525 84.2448 307.015 84.3478 306.516C84.4122 306.287 84.4283 306.047 84.3951 305.812C84.3619 305.576 84.28 305.351 84.1548 305.149C83.5794 304.639 82.9104 304.246 82.185 303.991C80.979 303.549 78.8082 302.954 77.562 302.624C76.9429 302.455 76.3238 302.319 75.6967 302.206C75.1681 302.097 74.6261 302.067 74.0887 302.118C73.942 302.127 73.7993 302.17 73.6713 302.242C73.5432 302.315 73.4331 302.415 73.349 302.536C73.2631 302.725 73.2166 302.931 73.2124 303.139C73.173 303.51 73.0781 303.873 72.931 304.216C72.8666 304.369 72.7219 304.538 72.545 304.465C72.4837 304.429 72.4348 304.375 72.4047 304.311C72.3746 304.246 72.3646 304.174 72.3762 304.104C72.4244 303.452 72.73 300.124 72.7943 299.786Z" fill="#455A64"/>
<path d="M66.0648 321.352C65.8477 322.107 64.5292 327.116 66.0005 328.33C67.4718 329.544 68.9833 325.782 68.9833 325.782C68.9833 325.782 73.0998 325.428 78.6313 328.764C78.2374 329.568 78.8243 332.463 80.4886 332.173C82.1529 331.884 83.4312 326.103 83.4473 326.031C83.1096 331.233 82.4423 335.277 79.0977 338.429C74.8767 342.408 67.7291 337.834 65.9764 334.183C64.2237 330.533 64.1754 328.073 65.5744 322.831C65.7432 322.308 65.9281 321.818 66.0648 321.352Z" fill="#37474F"/>
<path d="M69.4014 326.204C69.1521 328.15 67.0698 327.088 67.2869 324.323C67.5039 321.557 69.3853 314.924 70.2215 310.43C71.0255 303.933 71.532 299.648 72.7943 299.793C72.7943 299.857 72.7943 299.921 72.7943 299.986C72.7943 300.05 72.4325 303.692 72.3842 304.11C71.9099 308.074 71.3631 315.808 70.5752 319.386C70.0418 321.632 69.6497 323.909 69.4014 326.204Z" fill="#37474F"/>
<path d="M77.9881 328.591C78.7797 326.428 79.4349 324.218 79.9498 321.974C80.7538 318.46 83.3749 311.465 84.6693 307.703C85.0472 307.092 86.3497 303.578 86.3497 303.578C87.2099 303.884 86.1165 307.236 85.61 308.812C85.1035 310.388 84.4844 312.028 83.8251 314.328C82.2171 318.758 81.6784 325.527 80.6654 328.076C79.6523 330.625 77.369 330.44 77.9881 328.591Z" fill="#37474F"/>
<path d="M78.7921 328.95C78.7351 328.934 78.6809 328.91 78.6313 328.877C75.7756 327.076 72.4557 326.148 69.0798 326.208C68.9584 326.213 68.839 326.176 68.7422 326.103C68.6453 326.029 68.5771 325.924 68.5492 325.806C68.5396 325.751 68.5424 325.694 68.5576 325.64C68.5728 325.586 68.5998 325.535 68.6368 325.493C68.6738 325.451 68.7197 325.417 68.7713 325.395C68.8229 325.372 68.8789 325.362 68.9351 325.364C72.5474 325.283 76.102 326.279 79.1459 328.226C79.1947 328.256 79.237 328.295 79.2702 328.341C79.3033 328.387 79.3266 328.44 79.3387 328.496C79.3507 328.552 79.3513 328.609 79.3402 328.665C79.3292 328.721 79.3068 328.774 79.2745 328.821C79.2164 328.889 79.1393 328.937 79.0532 328.96C78.9671 328.983 78.8761 328.979 78.7921 328.95Z" fill="#263238"/>
<path d="M80.2956 324.915C80.2411 324.9 80.1896 324.875 80.1428 324.843C76.9001 322.932 73.2134 321.903 69.4496 321.86C69.3285 321.863 69.2101 321.824 69.1148 321.749C69.0195 321.674 68.9531 321.569 68.927 321.45C68.9212 321.394 68.9276 321.337 68.9458 321.283C68.964 321.229 68.9935 321.18 69.0325 321.139C69.0714 321.098 69.1188 321.066 69.1713 321.044C69.2239 321.023 69.2804 321.013 69.3371 321.016C73.3042 321.043 77.1913 322.135 80.5931 324.176C80.6434 324.202 80.6877 324.239 80.7233 324.284C80.759 324.328 80.7851 324.38 80.8002 324.435C80.8152 324.489 80.8189 324.547 80.8109 324.603C80.803 324.66 80.7835 324.714 80.7539 324.763C80.6999 324.829 80.6281 324.879 80.5469 324.906C80.4658 324.933 80.3786 324.936 80.2956 324.915Z" fill="#263238"/>
<path d="M70.2053 317.901C70.1203 317.877 70.0427 317.832 69.9795 317.77C69.9164 317.709 69.8696 317.632 69.8435 317.548C69.8304 317.493 69.8295 317.436 69.841 317.382C69.8524 317.327 69.8759 317.275 69.9098 317.231C69.9437 317.186 69.987 317.149 70.0367 317.124C70.0865 317.098 70.1413 317.083 70.1973 317.081C76.0022 316.422 81.2603 319.984 81.4533 320.137C81.503 320.165 81.5462 320.204 81.5801 320.25C81.6139 320.296 81.6377 320.349 81.6498 320.405C81.6619 320.461 81.6622 320.519 81.6505 320.576C81.6388 320.632 81.6154 320.685 81.5819 320.731C81.5006 320.819 81.3899 320.873 81.2711 320.883C81.1524 320.893 81.0339 320.86 80.9387 320.788C80.8905 320.788 75.777 317.298 70.3742 317.917C70.3174 317.921 70.2605 317.915 70.2053 317.901Z" fill="#263238"/>
<path d="M70.9611 314.175C70.8753 314.155 70.7965 314.113 70.7328 314.052C70.6692 313.991 70.623 313.914 70.5993 313.829C70.5834 313.775 70.5799 313.719 70.5892 313.663C70.5984 313.608 70.6201 313.556 70.6527 313.51C70.6852 313.464 70.7277 313.426 70.777 313.4C70.8262 313.373 70.881 313.357 70.937 313.355C75.0229 312.932 79.122 314.022 82.4583 316.418C82.5068 316.449 82.5481 316.49 82.5796 316.539C82.6111 316.587 82.6321 316.641 82.6412 316.698C82.6503 316.755 82.6473 316.813 82.6324 316.869C82.6175 316.924 82.5911 316.976 82.5548 317.021C82.4638 317.101 82.3465 317.146 82.2252 317.146C82.1038 317.146 81.9866 317.101 81.8955 317.021C81.8955 317.021 77.1198 313.403 71.1621 314.175C71.0957 314.187 71.0276 314.187 70.9611 314.175Z" fill="#263238"/>
<path d="M71.8214 309.993C71.7369 309.973 71.6591 309.931 71.5956 309.872C71.5322 309.813 71.4853 309.738 71.4596 309.655C71.4438 309.602 71.4402 309.546 71.449 309.491C71.4577 309.436 71.4787 309.384 71.5104 309.339C71.5421 309.293 71.5836 309.255 71.6318 309.228C71.6801 309.201 71.7339 309.184 71.7892 309.181C77.7951 308.312 83.1578 312.212 83.3829 312.397C83.4318 312.426 83.4737 312.466 83.5059 312.513C83.5381 312.561 83.5599 312.614 83.5698 312.67C83.5797 312.727 83.5775 312.785 83.5633 312.84C83.5491 312.895 83.5232 312.947 83.4874 312.992C83.3977 313.071 83.2818 313.115 83.1618 313.115C83.0418 313.115 82.9259 313.071 82.8362 312.992C82.788 312.951 77.6102 309.197 72.0304 309.993C71.9617 310.009 71.8901 310.009 71.8214 309.993Z" fill="#263238"/>
<path d="M83.1739 164.602C82.796 164.602 81.4051 181.212 81.2764 182.852C80.6493 190.611 79.781 198.265 79.6684 206.04C79.6041 210.06 78.8644 217.465 78.6956 221.517C78.3405 231.534 77.3469 241.519 75.7208 251.409C75.0132 255.207 74.53 259.044 74.2736 262.899C74.0565 266.878 74.2736 270.939 73.2766 274.806C72.7426 276.511 72.2944 278.242 71.934 279.992C71.6043 282.243 72.1028 283.489 73.4374 285.266C73.5741 287.766 73.2445 288.57 73.9359 289.173C77.4011 292.188 84.3316 292.719 88.9868 292.711C89.7184 292.711 90.4018 291.047 90.7636 290.395C91.1254 289.744 90.9727 289.398 91.6319 288.98C92.2912 288.562 93.5053 288.176 94.1565 287.702C95.4442 286.735 96.3518 285.346 96.7213 283.778C97.1635 282.259 97.3082 280.675 97.662 279.131C98.2674 276.968 99.0058 274.844 99.8729 272.772C101.388 268.268 102.557 263.656 103.37 258.975C104.062 255.526 104.729 252.069 105.453 248.628C107.712 237.959 108.797 231.213 110.076 223.607C111.354 216.001 114.49 238.779 114.49 238.779C114.533 240.162 114.461 241.548 114.273 242.919C114.16 245.621 114.216 248.274 113.855 250.959C113.048 256.884 113.198 262.899 114.297 268.776C114.868 271.863 115.374 273.994 115.197 277.137C115.093 278.979 114.763 280.611 115.487 282.315C116.001 283.545 116.765 283.851 117.416 284.984C117.69 285.459 117.69 289.157 117.979 289.334C117.979 289.334 128.745 294.914 135.595 289.398C135.691 288.329 135.595 286.182 136.053 285.242C136.639 284.739 137.12 284.124 137.468 283.434C137.816 282.744 138.023 281.992 138.079 281.222C138.208 279.485 137.677 278.215 137.669 276.478C137.751 274.34 137.958 272.208 138.288 270.094C138.611 267.064 138.737 264.016 138.666 260.969C138.666 258.324 138.192 255.51 138.618 252.929C139.214 248.504 139.533 244.047 139.574 239.583C140.161 222.361 140.459 187.323 138.626 165.068L83.1739 164.602Z" fill="#D9B08C"/>
<path opacity="0.3" d="M83.1739 164.602C82.796 164.602 81.4051 181.212 81.2764 182.852C80.6493 190.611 79.781 198.265 79.6684 206.04C79.6041 210.06 78.8644 217.465 78.6956 221.517C78.3405 231.534 77.3469 241.519 75.7208 251.409C75.0132 255.207 74.53 259.044 74.2736 262.899C74.0565 266.878 74.2736 270.939 73.2766 274.806C72.7426 276.511 72.2944 278.242 71.934 279.992C71.6043 282.243 72.1028 283.489 73.4374 285.266C73.5741 287.766 73.2445 288.57 73.9359 289.173C77.4011 292.188 84.3316 292.719 88.9868 292.711C89.7184 292.711 90.4018 291.047 90.7636 290.395C91.1254 289.744 90.9727 289.398 91.6319 288.98C92.2912 288.562 93.5053 288.176 94.1565 287.702C95.4442 286.735 96.3518 285.346 96.7213 283.778C97.1635 282.259 97.3082 280.675 97.662 279.131C98.2674 276.968 99.0058 274.844 99.8729 272.772C101.388 268.268 102.557 263.656 103.37 258.975C104.062 255.526 104.729 252.069 105.453 248.628C107.712 237.959 108.797 231.213 110.076 223.607C111.354 216.001 114.49 238.779 114.49 238.779C114.533 240.162 114.461 241.548 114.273 242.919C114.16 245.621 114.216 248.274 113.855 250.959C113.048 256.884 113.198 262.899 114.297 268.776C114.868 271.863 115.374 273.994 115.197 277.137C115.093 278.979 114.763 280.611 115.487 282.315C116.001 283.545 116.765 283.851 117.416 284.984C117.69 285.459 117.69 289.157 117.979 289.334C117.979 289.334 128.745 294.914 135.595 289.398C135.691 288.329 135.595 286.182 136.053 285.242C136.639 284.739 137.12 284.124 137.468 283.434C137.816 282.744 138.023 281.992 138.079 281.222C138.208 279.485 137.677 278.215 137.669 276.478C137.751 274.34 137.958 272.208 138.288 270.094C138.611 267.064 138.737 264.016 138.666 260.969C138.666 258.324 138.192 255.51 138.618 252.929C139.214 248.504 139.533 244.047 139.574 239.583C140.161 222.361 140.459 187.323 138.626 165.068L83.1739 164.602Z" fill="black"/>
<path opacity="0.3" d="M92.5244 184.828C93.7385 198.496 86.205 203.561 81.4453 203.561C81.4453 203.561 91.0853 198.681 92.5244 184.828Z" fill="black"/>
<path opacity="0.3" d="M114.924 192.871L109.545 226.727C109.722 225.682 109.899 224.637 110.076 223.568C111.362 215.97 114.49 238.747 114.49 238.747L113.686 223.873C113.492 219.224 113.832 214.568 114.699 209.996L117.842 195.444C120.042 194.878 122.108 193.885 123.924 192.521C125.739 191.156 127.268 189.448 128.423 187.492C124.347 191.392 114.924 192.871 114.924 192.871Z" fill="black"/>
<path d="M72.9631 290.492C75.7288 292.984 84.1226 295.517 90.1044 293.804L91.632 288.98C87.1215 290.17 78.1087 288.61 73.4374 285.266L72.9631 290.492Z" fill="#D9B08C"/>
<path opacity="0.6" d="M72.9631 290.492C75.7288 292.984 84.1226 295.517 90.1044 293.804L91.632 288.98C87.1215 290.17 78.1087 288.61 73.4374 285.266L72.9631 290.492Z" fill="black"/>
<path d="M117.971 289.874C119.941 291.9 130.16 293.291 135.611 290.163L136.053 285.21C131.92 287.462 121.428 287.341 117.416 284.953L117.971 289.874Z" fill="#D9B08C"/>
<path opacity="0.6" d="M117.971 289.874C119.941 291.9 130.16 293.291 135.611 290.163L136.053 285.21C131.92 287.462 121.428 287.341 117.416 284.953L117.971 289.874Z" fill="black"/>
<path opacity="0.3" d="M78.9609 216.203C78.9609 216.203 77.3529 238.715 77.2404 240.323C77.1278 241.931 88.826 246.216 89.236 245.219C89.9194 243.571 90.1526 239.768 92.9505 221.598C83.1337 219.475 78.9609 216.203 78.9609 216.203Z" fill="black"/>
<path opacity="0.3" d="M90.4742 227.763C90.115 227.636 89.7376 227.568 89.3566 227.562C88.9144 227.514 88.4803 227.45 88.0461 227.377C87.1234 227.21 86.2129 226.982 85.3206 226.694C84.3145 226.37 83.3337 225.972 82.386 225.504C81.582 225.118 80.8905 224.636 80.1187 224.258C80.0463 224.258 80.0142 224.37 80.0624 224.411C80.8026 225.012 81.6124 225.522 82.4744 225.93C84.0975 226.755 85.8261 227.353 87.612 227.707C88.0702 227.795 88.5285 227.876 88.9948 227.932C89.4779 228.053 89.9831 228.053 90.4662 227.932C90.5224 227.94 90.5466 227.795 90.4742 227.763Z" fill="black"/>
<path opacity="0.3" d="M85.5538 224.193C85.4653 223.959 85.393 223.807 85.1357 223.759C85.0313 223.732 84.9227 223.727 84.8164 223.744C84.71 223.761 84.6081 223.798 84.5166 223.855C84.4299 223.905 84.3544 223.972 84.2949 224.052C84.2354 224.132 84.1932 224.224 84.1709 224.321C84.1308 224.484 84.1426 224.655 84.2046 224.811C84.2666 224.967 84.3757 225.099 84.5166 225.19C84.6391 225.281 84.785 225.336 84.9374 225.347C85.0897 225.358 85.2422 225.326 85.3769 225.254C85.4567 225.201 85.5221 225.13 85.567 225.046C85.612 224.961 85.6351 224.867 85.6342 224.772C85.6556 224.575 85.6279 224.376 85.5538 224.193ZM85.2643 224.844C85.185 224.923 85.0812 224.972 84.9701 224.984C84.859 224.995 84.7472 224.969 84.6533 224.908C84.3638 224.699 84.4844 224.104 84.8623 224.104C84.9811 224.101 85.0964 224.144 85.1839 224.225C85.2685 224.302 85.323 224.406 85.3378 224.52C85.3525 224.633 85.3265 224.748 85.2643 224.844Z" fill="black"/>
<path d="M128.688 100.562C135.506 102.492 137.773 104.084 142.823 111.408C146.609 116.908 156.241 132.779 156.241 132.779C156.241 132.779 157.922 152.429 153.685 152.3C151.262 152.243 148.957 151.248 147.253 149.526C141.399 143.367 131.599 129.426 131.599 129.426L128.688 100.562Z" fill="#FFBDA7"/>
<path d="M128.455 99.9531C132.346 100.452 137.195 102.245 140.258 106.289C143.321 110.333 151.827 124.403 151.827 124.403C151.827 124.403 151.594 128.624 146.561 133.665C141.528 138.706 137.018 138.706 137.018 138.706L124.548 119.989L128.455 99.9531Z" fill="#455A64"/>
<path d="M155.654 131.822C153.001 134.033 148.796 145.096 148.796 145.096C148.796 145.096 147.47 140.368 149.255 136.075C150.365 133.451 151.951 131.054 153.934 129.008L155.654 131.822Z" fill="#F0997A"/>
<path d="M194.849 119.654C195.75 118.134 198.065 118.914 199.304 117.933C199.483 117.802 199.624 117.624 199.711 117.419C199.798 117.215 199.828 116.99 199.799 116.77C199.769 116.549 199.68 116.341 199.542 116.167C199.404 115.992 199.222 115.858 199.014 115.778C198.073 115.288 196.956 115.521 195.943 115.441C194.759 115.316 193.615 114.947 192.582 114.355C190.387 113.173 187.589 112.225 185.258 113.664C185.786 113.924 186.287 114.236 186.753 114.597C189.455 116.285 192.156 117.949 194.849 119.654Z" fill="#F0997A"/>
<path d="M204.079 119.624L203.171 119.945C202.785 120.09 202.367 120.219 202.013 120.371C201.828 120.444 201.651 120.524 201.466 120.613C201.281 120.701 201.016 120.918 200.944 120.902C200.059 120.653 198.982 119.986 197.478 120.098C195.975 120.211 195.621 120.46 193.724 118.78C192.437 117.654 190.934 115.692 189.197 114.655C187.461 113.618 185.644 112.959 183.569 114.534C181.495 116.11 180.353 117.228 178.15 118.723C176.478 119.857 175.28 120.709 166.701 125.509C160.398 129.031 155.212 131.057 150.983 136.765C149.279 139.073 145.628 147.748 147.301 149.557C149.713 152.121 155.638 154.381 162.376 149.372C165.461 147.09 168.394 144.608 171.155 141.943C173.937 139.314 175.175 137.923 179.123 134.144C183.071 130.365 185.37 128.403 187.597 127.39C189.503 126.522 191.883 126.948 193.491 127.181C195.588 127.567 197.742 127.532 199.826 127.077C201.949 126.747 203.34 126.273 204.803 125.999C206.266 125.726 207.545 124.818 208.976 124.118L211.452 122.944C211.732 122.843 211.985 122.677 212.192 122.462C212.288 122.317 212.151 121.955 212.103 121.787C212.047 121.615 211.954 121.459 211.83 121.328C212.134 121.322 212.436 121.278 212.73 121.2C213.004 121.143 213.229 121.079 213.534 121.047C213.84 121.015 213.952 120.926 213.977 120.725C213.98 120.605 213.94 120.488 213.864 120.396C213.576 119.987 213.169 119.678 212.698 119.511C212.053 119.343 211.387 119.267 210.72 119.286C210.624 119.284 210.529 119.265 210.439 119.23C210.328 119.161 210.226 119.08 210.133 118.989C209.974 118.863 209.79 118.77 209.594 118.716C209.398 118.662 209.193 118.648 208.992 118.675C208.268 118.784 207.551 118.934 206.845 119.125C206.411 119.214 205.961 119.23 205.526 119.302C205.037 119.372 204.553 119.48 204.079 119.624Z" fill="#FFBDA7"/>
<path d="M197.093 120.768C196.795 120.639 196.506 120.486 196.2 120.35L195.959 120.229C196.583 120.274 197.209 120.274 197.832 120.229C198.926 120.181 199.786 120.703 200.815 121.033C200.948 121.048 201.082 121.023 201.201 120.961C202.857 120.049 204.672 119.462 206.548 119.232C207.721 119.087 208.96 118.283 210.085 118.999C209.056 118.195 207.673 118.999 206.499 119.047C204.623 119.213 202.794 119.734 201.113 120.583L200.952 120.679C199.938 120.217 198.848 119.944 197.736 119.875C197.142 119.927 196.545 119.927 195.951 119.875C193.668 119.071 192.349 116.659 190.427 115.26C188.498 113.701 185.603 112.655 183.569 114.553C186.295 112.728 188.643 114.167 190.733 116.08C190.018 115.499 189.132 115.168 188.211 115.139C187.291 115.11 186.386 115.384 185.636 115.92C185.094 116.274 184.629 116.733 184.269 117.27C184.781 116.862 185.318 116.486 185.877 116.145C186.405 115.896 186.965 115.723 187.541 115.63C188.694 115.5 189.86 115.713 190.894 116.241C192.011 117.286 193.057 118.452 194.045 119.296C194.493 119.662 194.998 119.95 195.541 120.149C195.978 120.525 196.465 120.839 196.988 121.081C197.603 121.372 198.278 121.513 198.958 121.491C198.319 121.298 197.695 121.056 197.093 120.768ZM201.362 122.617C201.592 122.605 201.823 122.605 202.053 122.617C202.277 122.623 202.499 122.642 202.721 122.673C202.946 122.673 203.163 122.754 203.372 122.802C203.579 122.857 203.783 122.924 203.983 123.003L204.095 123.051L204.24 122.971C204.723 122.688 205.251 122.49 205.8 122.384C206.345 122.277 206.902 122.245 207.456 122.287H207.561L207.625 122.247C208.083 121.956 208.568 121.709 209.072 121.507C209.625 121.325 210.203 121.233 210.785 121.234C210.692 121.2 210.594 121.181 210.495 121.178C210.327 121.162 210.157 121.162 209.989 121.178C209.311 121.228 208.647 121.397 208.027 121.676C207.869 121.774 207.699 121.85 207.52 121.901C207.339 121.926 207.155 121.926 206.974 121.901C206.191 121.833 205.406 121.986 204.706 122.344C204.552 122.441 204.384 122.517 204.208 122.569C203.969 122.601 203.725 122.584 203.492 122.521C202.79 122.322 202.043 122.356 201.362 122.617ZM209.466 119.457C209.209 119.538 208.968 119.658 208.71 119.731C208.188 119.875 207.633 119.827 207.102 119.932C206.54 120.045 206.024 120.325 205.623 120.736C205.6 120.761 205.573 120.783 205.543 120.8C205.374 120.896 205.068 120.8 204.899 120.736C204.731 120.671 204.385 120.631 204.095 120.591C203.281 120.505 202.458 120.599 201.683 120.864C202.005 120.864 202.327 120.784 202.64 120.776C202.953 120.756 203.268 120.756 203.581 120.776C203.891 120.793 204.2 120.831 204.505 120.888C204.799 120.946 205.087 121.03 205.366 121.138L205.519 121.202L205.647 121.089C206.048 120.737 206.512 120.464 207.014 120.285C207.493 120.129 207.99 120.032 208.493 119.996L208.783 119.94C208.874 119.913 208.963 119.878 209.048 119.835C209.445 119.628 209.863 119.464 210.294 119.345C210.166 119.345 210.013 119.345 209.884 119.345C209.743 119.374 209.603 119.411 209.466 119.457Z" fill="#F0997A"/>
<path d="M101.738 100.477C94.9364 101.563 90.2169 102.632 86.9366 103.364C86.9366 103.364 78.7438 109.217 81.0835 133.715C81.4131 137.18 82.2091 147.085 82.1367 155.423C82.0885 161.348 82.2252 169.356 81.9518 173.488C81.9518 173.488 95.668 181.456 118.566 178.988C136.551 177.05 139.277 170.498 139.277 170.498C139.277 170.498 139.631 141.312 138.779 127.612C137.661 109.611 133.488 105.631 128.455 100.003C124.792 99.6028 121.108 99.4363 117.424 99.5044C111.161 99.4722 108.54 99.3516 101.738 100.477Z" fill="#F0F0F0"/>
<path d="M132.338 117.414C133.098 121.303 133.499 125.254 133.536 129.217C124.636 132.385 113.766 134.788 103.282 134.362C103.218 129.932 102.888 126.25 102.478 122.061C109.835 122.31 123.157 120.678 132.338 117.414Z" fill="#E0E0E0"/>
<path d="M96.7695 63.3828C96.7695 63.3828 93.843 63.8411 92.1706 67.5234C91.3666 69.3807 90.8601 73.867 94.1806 82.8879C95.4633 86.4214 97.2889 89.7334 99.5916 92.7047C100.298 93.6845 101.349 94.3597 102.534 94.5941L101.819 87.5028L101.2 81.3763C101.2 81.3763 105.324 79.9291 106.024 74.2288C106.562 69.6379 104.584 67.9254 104.584 67.9254L96.7695 63.3828Z" fill="#263238"/>
<path d="M92.3556 66.9205C91.0129 59.9177 104.416 49.6667 112.825 54.563C115.575 50.6154 122.409 52.151 123.157 56.171C125.569 54.957 130.345 60.4805 129.291 63.4874C131.703 70.032 128.439 72.7415 125.199 72.7415C117.255 72.7415 108.749 72.444 100.749 72.9907L92.3556 66.9205Z" fill="#263238"/>
<path d="M125.488 63.0977C127.177 64.569 129.621 67.9217 130.385 80.5445C130.907 89.1232 128.841 92.9582 125.738 94.526C123.139 95.8041 120.28 96.4619 117.384 96.4476L117.505 101.585C125.119 108.508 104.641 110.598 99.479 101.473L99.3744 87.3946C98.8438 88.4478 96.0941 89.1875 94.0118 87.2096C90.7154 84.0901 91.246 79.4752 93.6017 77.6983C95.9574 75.9215 99.5192 76.219 100.886 79.6038C103.66 80.4962 105.597 76.6853 104.552 66.3539C115.704 68.8945 118.365 60.0344 125.488 63.0977Z" fill="#FFBDA7"/>
<path d="M117.384 96.4528C108.387 96.1714 104.134 92.0147 103.001 88.7344C103.001 88.7344 102.727 94.3624 109.031 97.0879C111.642 98.2668 114.5 98.7938 117.36 98.6236L117.384 96.4528Z" fill="#F0997A"/>
<path d="M120.954 85.7252L115.004 84.1172C114.878 84.4975 114.83 84.8996 114.864 85.299C114.899 85.6983 115.014 86.0864 115.204 86.4395C115.394 86.7926 115.654 87.1032 115.968 87.3523C116.282 87.6013 116.643 87.7836 117.03 87.8879C117.837 88.0981 118.693 87.9909 119.423 87.5886C120.153 87.1862 120.701 86.5193 120.954 85.7252Z" fill="#B16668"/>
<path d="M118.365 87.9122C117.921 87.9872 117.465 87.9652 117.03 87.8479C116.495 87.7023 116.011 87.4072 115.637 86.9972C115.262 86.5872 115.012 86.0792 114.916 85.5324C115.668 85.5136 116.408 85.7338 117.027 86.1614C117.647 86.5889 118.115 87.2019 118.365 87.9122Z" fill="#F28F8F"/>
<path d="M112.094 75.5867C112.129 75.9176 112.262 76.2305 112.476 76.4857C112.69 76.7409 112.974 76.9269 113.294 77.0201C113.614 77.1133 113.954 77.1095 114.271 77.0092C114.588 76.9088 114.869 76.7165 115.077 76.4566C115.285 76.1967 115.411 75.8809 115.439 75.5493C115.467 75.2176 115.396 74.8851 115.235 74.5938C115.074 74.3025 114.83 74.0657 114.534 73.9132C114.238 73.7607 113.904 73.6996 113.573 73.7375C113.354 73.7615 113.143 73.8284 112.95 73.9344C112.757 74.0404 112.587 74.1834 112.45 74.3551C112.312 74.5269 112.21 74.7241 112.149 74.9355C112.088 75.1468 112.069 75.3681 112.094 75.5867Z" fill="#263238"/>
<path d="M123.912 74.0988C123.946 74.4292 124.076 74.7422 124.287 74.9985C124.498 75.2548 124.78 75.4428 125.098 75.5389C125.416 75.6349 125.755 75.6347 126.073 75.5381C126.391 75.4416 126.672 75.2532 126.883 74.9966C127.094 74.74 127.224 74.4267 127.257 74.0964C127.289 73.766 127.224 73.4333 127.067 73.1403C126.911 72.8473 126.672 72.6071 126.379 72.45C126.087 72.2929 125.754 72.226 125.424 72.2577C125.204 72.2788 124.99 72.3432 124.794 72.4473C124.599 72.5514 124.426 72.693 124.286 72.8641C124.145 73.0352 124.04 73.2324 123.976 73.4443C123.912 73.6561 123.89 73.8786 123.912 74.0988Z" fill="#263238"/>
<path d="M118.823 72.0312L120.721 82.3707L125.786 79.5085L118.823 72.0312Z" fill="#F0997A"/>
<path d="M127.233 70.4533L123.253 69.5689C123.295 69.3044 123.391 69.0512 123.534 68.825C123.678 68.5989 123.866 68.4044 124.087 68.2538C124.309 68.1031 124.559 67.9994 124.822 67.9491C125.085 67.8987 125.356 67.9027 125.617 67.9609C126.158 68.0842 126.629 68.4136 126.931 68.8791C127.233 69.3445 127.341 69.9092 127.233 70.4533Z" fill="#263238"/>
<path d="M110.413 72.6918L113.991 70.6416C113.867 70.4032 113.697 70.1925 113.489 70.022C113.282 69.8515 113.042 69.7248 112.784 69.6497C112.526 69.5745 112.256 69.5524 111.99 69.5847C111.723 69.617 111.466 69.703 111.233 69.8376C110.755 70.1159 110.403 70.5682 110.25 71.1C110.097 71.6318 110.156 72.202 110.413 72.6918Z" fill="#263238"/>
<path d="M127.072 62.7242C110.647 63.1021 103.805 70.7642 103.805 70.7642C101.939 72.0908 98.9805 74.5591 97.9755 76.7942C97.01 76.5624 95.9982 76.6127 95.0604 76.939C94.1226 77.2654 93.2982 77.8542 92.6852 78.6354C92.1263 77.5737 91.7255 76.4361 91.4953 75.2586C90.2089 69.7672 89.831 58.3746 102.751 53.7355C114.642 49.4984 123.157 51.2511 125.898 57.6027C126.455 59.2678 126.848 60.9831 127.072 62.7242Z" fill="#455A64"/>
<path d="M103.419 69.2165C104.988 65.5211 107.521 62.3143 110.751 59.9303C114.361 57.1003 122.433 55.637 126.075 55.1063C132.443 54.1576 134.18 55.2993 134.405 56.248C134.461 56.4731 134.718 57.5264 134.783 57.7595C134.856 57.9676 134.856 58.1946 134.783 58.4027C134.067 60.0107 129.332 63.484 129.332 63.484C121.042 62.5353 111.33 65.5101 103.845 70.7683L103.419 69.2165Z" fill="#D9B08C"/>
<path d="M103.805 70.7521C111.29 65.494 121.203 62.8408 129.291 63.4679C129.291 63.4679 134.027 60.0348 134.742 58.3866C135.128 57.4781 134.34 55.452 126.461 56.6339C122.819 57.1726 114.747 58.6358 111.185 61.4579C107.938 63.84 105.389 67.0496 103.805 70.7521Z" fill="#37474F"/>
<path d="M86.5908 105.172C83.3748 105.719 75.3348 107.045 72.2153 113.308C68.1953 121.461 61.9724 135.241 57.9845 145.468C55.5725 151.587 55.4278 153.508 57.9122 158.927C60.3242 164.113 72.1671 181.439 76.5971 186.601C79.8855 190.412 86.1245 196.747 88.3677 198.114C88.3677 198.114 92.1304 195.976 93.4248 183.128C93.4248 183.128 93.6339 181.729 96.9705 182.895C99.294 183.699 102.237 183.875 103.636 182.533C105.035 181.19 101.77 180.466 100.114 179.445C97.715 177.755 94.9678 176.623 92.0741 176.133C87.9496 175.433 84.7818 174.798 82.4261 169.596C77.98 159.699 75.4876 154.055 75.4876 154.055L87.1375 129.22C91.0128 121.196 89.9757 112.456 86.5908 105.172Z" fill="#FFBDA7"/>
<path d="M86.9366 103.336C77.0072 105.828 73.4213 108.409 69.0556 118.556C66.113 125.382 61.0156 137.225 61.0156 137.225C61.0156 137.225 63.2105 141.245 69.1923 143.488C77.6343 146.623 80.4483 145.2 80.4483 145.2C80.4483 145.2 84.7497 135.785 88.3114 128.26C92.8379 118.749 90.6269 107.477 86.9366 103.336Z" fill="#455A64"/>
<path d="M75.5278 154.023C72.9389 150.623 67.3832 150.389 67.3832 150.389C68.9242 150.066 70.5179 150.091 72.048 150.462C73.5781 150.834 75.006 151.542 76.2272 152.536L75.5278 154.023Z" fill="#F0997A"/>
</svg>
